<?xml version="1.0" encoding="UTF-8" standalone="no"?>
<!-- Generator: Adobe Illustrator 18.0.0, SVG Export Plug-In . SVG Version: 6.00 Build 0)  -->

<svg
   xmlns:dc="http://purl.org/dc/elements/1.1/"
   xmlns:cc="http://creativecommons.org/ns#"
   xmlns:rdf="http://www.w3.org/1999/02/22-rdf-syntax-ns#"
   xmlns:svg="http://www.w3.org/2000/svg"
   xmlns="http://www.w3.org/2000/svg"
   xmlns:xlink="http://www.w3.org/1999/xlink"
   xmlns:sodipodi="http://sodipodi.sourceforge.net/DTD/sodipodi-0.dtd"
   xmlns:inkscape="http://www.inkscape.org/namespaces/inkscape"
   version="1.1"
   id="Режим_изоляции"
   x="0px"
   y="0px"
   viewBox="0 0 517.5 1169"
   enable-background="new 0 0 517.5 1169"
   xml:space="preserve"
   inkscape:version="0.91 r13725"
   sodipodi:docname="map2.svg"><metadata
     id="metadata267"><rdf:RDF><cc:Work
         rdf:about=""><dc:format>image/svg+xml</dc:format><dc:type
           rdf:resource="http://purl.org/dc/dcmitype/StillImage" /></cc:Work></rdf:RDF></metadata><defs
     id="defs265" /><sodipodi:namedview
     pagecolor="#ffffff"
     bordercolor="#666666"
     borderopacity="1"
     objecttolerance="10"
     gridtolerance="10"
     guidetolerance="10"
     inkscape:pageopacity="0"
     inkscape:pageshadow="2"
     inkscape:window-width="1487"
     inkscape:window-height="897"
     id="namedview263"
     showgrid="false"
     inkscape:zoom="0.4037639"
     inkscape:cx="194.18505"
     inkscape:cy="585.04965"
     inkscape:window-x="0"
     inkscape:window-y="27"
     inkscape:window-maximized="0"
     inkscape:current-layer="Режим_изоляции" /><g
     opacity="0.68"
     id="g3"><defs
       id="defs5"><rect
         id="SVGID_1_"
         x="51.7"
         y="156.9"
         opacity="0.68"
         width="158.6"
         height="251.3" /></defs><clipPath
       id="SVGID_2_"><use
         xlink:href="#SVGID_1_"
         overflow="visible"
         id="use9" /></clipPath><g
       id="_x31_1.tif"
       clip-path="url(#SVGID_2_)"><defs
         id="defs12"><rect
           id="SVGID_3_"
           x="-815.1"
           y="245.3"
           width="299"
           height="299" /></defs><clipPath
         id="SVGID_4_"><use
           xlink:href="#SVGID_3_"
           overflow="visible"
           id="use16" /></clipPath><g
         clip-path="url(#SVGID_4_)"
         id="g18"><image
           sodipodi:absref="/run/user/524/gvfs/smb-share:server=192.168.2.2,share=сотрудники/Developers/Design/PetShop Days Landing/B1BC71DC.png"
           xlink:href="B1BC71DC.png"
           transform="matrix(8.541920e-002 0 0 8.541920e-002 -748.3708 286.0672)"
           id="Layer_0_3_"
           height="2304"
           width="1939"
           overflow="visible" /></g></g></g><g
     opacity="0.68"
     id="g21"><defs
       id="defs23"><rect
         id="SVGID_5_"
         x="51.7"
         y="849"
         opacity="0.68"
         width="181"
         height="241.9" /></defs><clipPath
       id="SVGID_6_"><use
         xlink:href="#SVGID_5_"
         overflow="visible"
         id="use27" /></clipPath><g
       id="_x31_0.tif_8_"
       clip-path="url(#SVGID_6_)"><g
         id="g30"><defs
           id="defs32"><rect
             id="SVGID_7_"
             x="-789.3"
             y="837"
             width="274.8"
             height="274.8" /></defs><clipPath
           id="SVGID_8_"><use
             xlink:href="#SVGID_7_"
             overflow="visible"
             id="use36" /></clipPath><g
           transform="matrix(1 0 0 1 6.103516e-005 -6.103516e-005)"
           clip-path="url(#SVGID_8_)"
           id="g38"><image
             sodipodi:absref="/run/user/524/gvfs/smb-share:server=192.168.2.2,share=сотрудники/Developers/Design/PetShop Days Landing/B1BC71DD.png"
             xlink:href="B1BC71DD.png"
             id="image40"
             transform="matrix(7.852216e-002 0 0 7.852216e-002 -789.3273 836.9568)"
             height="3500"
             width="3500"
             overflow="visible" /></g></g></g></g><g
     opacity="0.68"
     id="g42"><defs
       id="defs44"><rect
         id="SVGID_9_"
         x="324.5"
         y="44.3"
         opacity="0.68"
         width="152"
         height="246.5" /></defs><clipPath
       id="SVGID_10_"><use
         xlink:href="#SVGID_9_"
         overflow="visible"
         id="use48" /></clipPath><g
       id="_x32_5.tif_5_"
       clip-path="url(#SVGID_10_)"><g
         id="g51"><defs
           id="defs53"><rect
             id="SVGID_11_"
             x="-640.3"
             y="83.2"
             width="303.3"
             height="303.3" /></defs><clipPath
           id="SVGID_12_"><use
             xlink:href="#SVGID_11_"
             overflow="visible"
             id="use57" /></clipPath><g
           clip-path="url(#SVGID_12_)"
           id="g59"><image
             sodipodi:absref="/run/user/524/gvfs/smb-share:server=192.168.2.2,share=сотрудники/Developers/Design/PetShop Days Landing/B1BC71DB.png"
             xlink:href="B1BC71DB.png"
             id="image61"
             transform="matrix(8.666836e-002 0 0 8.666836e-002 -640.2994 83.2367)"
             height="3500"
             width="3500"
             overflow="visible" /></g></g></g></g><rect
     x="23.7"
     y="41.6"
     fill="none"
     stroke="#0A1620"
     stroke-width="2"
     stroke-miterlimit="10"
     width="482.4"
     height="1126.4"
     id="rect63" /><g
     id="g65"><rect
       x="474.1"
       y="752.4"
       fill="#64BB9F"
       width="16.8"
       height="65.9"
       id="rect67" /><rect
       x="449.5"
       y="777"
       fill="#64BB9F"
       width="65.9"
       height="16.8"
       id="rect69" /></g><g
     id="g71"><path
       fill="#F3B535"
       d="M447.4,947.9c0,30.5-18.2,48.3-40.8,68.8c-13.7,12.7-15.1,20.9-15.1,30.1h-34.2c0-22.6,2.7-35.6,19.2-52.1   c20.2-20.5,30.5-29.5,30.5-46.9c0-13.7-11-20.5-25-20.5c-11.3,0-27.4,4.8-40.4,26.7l-33.2-19.5c18.2-31.5,47.3-45.6,75.3-45.6   C422.4,889,447.4,910.2,447.4,947.9z M376.5,1076c14.7,0,28.4,11.6,28.4,30.1c0,18.8-13,29.5-28.4,29.5   c-14.7,0-28.4-11.6-28.4-30.1C348,1086.6,361,1076,376.5,1076z"
       id="path73" /></g><g
     id="g75"><path
       fill="#E6664B"
       d="M20.4,1107.8l-5.3-13.7l-5.3,13.7H0l10.7-23.8h8.8l10.7,23.8H20.4z"
       id="path77" /><path
       fill="#E6664B"
       d="M64.1,1107.8l-5.3-13.7l-5.3,13.7h-9.7l10.7-23.8h8.8l10.7,23.8H64.1z"
       id="path79" /></g><g
     id="g81"><path
       fill="#DD7D7E"
       d="M92.5,878.6l3.3-6.5c-2.9-1-5.6-3.4-5.4-6.7c0.1-1.4,0.6-2.9,1.5-4.5l6.8-11.6c1.4-2.5,2.2-5,2.4-7.5   c0.5-5.9-3.3-11.3-9.4-13.7l-3.3,6.5c2.9,1,5.7,3.4,5.5,6.7c-0.1,1.4-0.6,2.9-1.5,4.5l-6.8,11.6c-1.4,2.5-2.2,5-2.4,7.5   C82.8,870.8,86.4,876.2,92.5,878.6z"
       id="path83" /><path
       fill="#DD7D7E"
       d="M109.8,878.6l3.3-6.5c-2.9-1-5.6-3.4-5.4-6.7c0.1-1.4,0.6-2.9,1.5-4.5l6.8-11.6c1.4-2.5,2.2-5,2.4-7.5   c0.5-5.9-3.3-11.3-9.4-13.7l-3.3,6.5c2.9,1,5.7,3.4,5.5,6.7c-0.1,1.4-0.6,2.9-1.5,4.5l-6.8,11.6c-1.4,2.5-2.2,5-2.4,7.5   C100.1,870.8,103.8,876.2,109.8,878.6z"
       id="path85" /><path
       fill="#DD7D7E"
       d="M127.1,878.6l3.3-6.5c-2.9-1-5.6-3.4-5.4-6.7c0.1-1.4,0.6-2.9,1.5-4.5l6.8-11.6c1.4-2.5,2.2-5,2.4-7.5   c0.5-5.9-3.3-11.3-9.4-13.7l-3.3,6.5c2.9,1,5.7,3.4,5.5,6.7c-0.1,1.4-0.6,2.9-1.5,4.5l-6.8,11.6c-1.4,2.5-2.2,5-2.4,7.5   C117.4,870.8,121.1,876.2,127.1,878.6z"
       id="path87" /></g><g
     id="g89"><rect
       x="32.3"
       y="516.5"
       fill="#F3D28E"
       width="71.1"
       height="17.6"
       id="rect91" /><rect
       x="22.1"
       y="547.9"
       fill="#F3D28E"
       width="71.1"
       height="17.6"
       id="rect93" /><rect
       x="44.6"
       y="411.1"
       transform="matrix(-0.7071 -0.7071 0.7071 -0.7071 -224.6164 800.2457)"
       fill="#F3D28E"
       width="17.6"
       height="71.1"
       id="rect95" /><rect
       x="22.1"
       y="485.1"
       fill="#F3D28E"
       width="71.1"
       height="17.6"
       id="rect97" /></g><g
     id="g99"><g
       id="g101"><path
         fill="#E6664B"
         d="M305.8,419.6c0,8.1-6.5,15.7-16.7,15.7c-10.4,0-16.3-7.2-16.3-15.7c0-8.1,6.5-15.7,16.7-15.7    C299.9,403.9,305.8,411.1,305.8,419.6z"
         id="path103" /><path
         fill="#E6664B"
         d="M317.6,509.9v-40.4h-48.9h-11.1h-21.3h-10.1H205h-20.3v22.3H205h21.3h10.1v18.1    c0,24.9,16.9,41.1,40.6,41.1C300.7,551,317.6,534.8,317.6,509.9z M257.6,506.7v-14.9h38.7v14.9c0,15.1-8,22.1-19.4,22.1    S257.6,521.8,257.6,506.7z"
         id="path105" /></g><rect
       x="192.2"
       y="410.3"
       fill="#E6664B"
       width="37.8"
       height="18.6"
       id="rect107" /></g><g
     opacity="0.25"
     id="g109"><rect
       x="74.9"
       y="22.7"
       fill="#6DB2D1"
       width="22.1"
       height="90.6"
       id="rect111" /><circle
       fill="#6DB2D1"
       cx="54.4"
       cy="68"
       r="13.8"
       id="circle113" /></g><rect
     x="206.2"
     y="36"
     fill="#FAFDFF"
     width="96.5"
     height="8.3"
     id="rect115" /><g
     id="g117"><g
       id="g119"><path
         fill="#576369"
         d="M271.3,14.5l-18.8-2V8.3l9.9-1l-9.9-1V2l18.8-2v3.3L256,4.4l10.4,1.2v3.2L256,10.1l15.4,1.2V14.5z"
         id="path121" /><path
         fill="#576369"
         d="M258,29.3l-0.1-9.5c-1.8,0.5-2.7,1.8-2.7,3.7c0,1.4,0.3,2.4,1.3,3.7l-2.3,1.9c-1.3-1.4-2-3-2-5.4    c0-3.7,2.1-7,7-7s7,3.1,7,6.3c0,3.8-2,6.5-6.9,6.5C258.9,29.4,258.5,29.4,258,29.3z M260.6,19.8v6.4c1.3-0.1,2.6-1,2.6-3.1    C263.2,21.5,262.4,20.2,260.6,19.8z"
         id="path123" /><path
         fill="#576369"
         d="M253.4,44.3c-0.8-1.1-1.2-2.7-1.2-4.5c0-3.5,2.5-5.1,6-5.1h10.1v-5.2h3v8.4h-12.7c-2.1,0-3.3,0.8-3.3,2.3    c0,1.1,0.3,2.2,1.1,3.5L253.4,44.3z"
         id="path125" /><path
         fill="#576369"
         d="M255.5,59.6c-2.2-1.6-3.2-3.2-3.2-5.8c0-3.1,2.1-6.6,7-6.6s7,3.2,7,6.3c0,2.5-0.9,4-2.8,5.6l-1.9-2.4    c1-0.9,1.7-1.6,1.7-3.1c0-1.9-1.3-3.3-4-3.3s-4,1.7-4,3.6c0,1.3,0.6,2.2,2,3.2L255.5,59.6z"
         id="path127" /><path
         fill="#576369"
         d="M259.2,75.1c-4.9,0-7-3.2-7-6.3s2.1-6.3,7-6.3s7,3.2,7,6.3S264.1,75.1,259.2,75.1z M259.2,72    c2.7,0,4-1.4,4-3.1c0-1.9-1.3-3.1-4-3.1s-4,1.4-4,3.1C255.3,70.8,256.6,72,259.2,72z"
         id="path129" /><path
         fill="#576369"
         d="M261.2,92.5h-8.7v-3.2h8.2c1.9,0,2.5-0.2,2.5-0.8c0-1-2-1.3-5.6-1.3h-5.1v-3.2h8.2c1.9,0,2.5-0.2,2.5-0.8    c0-1-2-1.3-5.6-1.3h-5.1v-3.2h7.6c2.1,0,3.9-0.5,5.9-1.1v3.2c-0.6,0.1-1.7,0.2-2.7,0.2c1.8,0.5,3,1.5,3,3.1c0,1.3-0.5,2.2-1.7,2.7    c1.1,0.6,1.7,1.4,1.7,2.6C266.2,91.6,264.8,92.5,261.2,92.5z"
         id="path131" /><path
         fill="#576369"
         d="M258,108.4l-0.1-9.5c-1.8,0.5-2.7,1.8-2.7,3.7c0,1.4,0.3,2.4,1.3,3.7l-2.3,1.9c-1.3-1.4-2-3-2-5.4    c0-3.7,2.1-7,7-7s7,3.1,7,6.3c0,3.8-2,6.5-6.9,6.5C258.9,108.5,258.5,108.5,258,108.4z M260.6,98.9v6.4c1.3-0.1,2.6-1,2.6-3.1    C263.2,100.5,262.4,99.3,260.6,98.9z"
         id="path133" /></g></g><g
     id="g135"><path
       fill="#D57476"
       d="M237.1,8.9h-3V0.4h3V8.9z"
       id="path137" /><path
       fill="#D57476"
       d="M236.1,23.4h-1.7L228,12h3.3l4.5,8.1h-1.1l4.5-8.1h3.3L236.1,23.4z"
       id="path139" /></g><g
     id="g141"><path
       fill="#D57476"
       d="M300.8,213.9v19.9v8.1v0.4c0,19.7-11.9,33.5-35.9,33.5S229,262.6,229,242.2v-0.4v-8.1v-19.9h-16.9v30.5   c0,30,17.9,51.2,52.8,51.2c34.8,0,52.8-21.2,52.8-51.2v-30.5H300.8z"
       id="path143" /><path
       fill="#D57476"
       d="M262.8,230.4l-5.3,12.1c-12.5-4.3-16.9-11.4-16.9-19.4c0-4.3,1.3-7,3.8-11.7l4.2-7.9   c0.5-0.9,1.1-2.2,1.1-4.3c0-3-1.8-5.3-8.4-7.9l5.3-12.1c12.5,4.3,16.9,11.4,16.9,19.4c0,4.3-1.3,7-3.8,11.7l-4.2,7.9   c-0.5,0.9-1.1,2.2-1.1,4.3C254.4,225.5,256.2,227.8,262.8,230.4z"
       id="path145" /><path
       fill="#D57476"
       d="M291.3,230.5l-5.3,12.1c-12.5-4.3-16.9-11.4-16.9-19.4c0-4.3,1.3-7,3.8-11.7l4.2-7.9   c0.5-0.9,1.1-2.2,1.1-4.3c0-3-1.8-5.3-8.4-7.9l5.3-12.1c12.5,4.3,16.9,11.4,16.9,19.4c0,4.3-1.3,7-3.8,11.7l-4.2,7.9   c-0.5,0.9-1.1,2.2-1.1,4.3C282.9,225.7,284.7,228,291.3,230.5z"
       id="path147" /></g><g
     display="none"
     id="g149"><text
       transform="matrix(1 0 0 1 240.5702 261.2661)"
       display="inline"
       fill="#07101A"
       font-family="'RFRostin-Bold'"
       font-size="26.8862"
       id="text151">Ресторан</text>
</g><g
     display="none"
     id="g153"><text
       transform="matrix(1 0 0 1 55.0207 542.1294)"
       display="inline"
       fill="#07101A"
       font-family="'RFRostin-Bold'"
       font-size="26"
       id="text155">Маркет</text>
</g><g
     display="none"
     id="g157"><text
       transform="matrix(1 0 0 1 159.264 456.3442)"
       display="inline"
       fill="#07101A"
       font-family="'RFRostin-Bold'"
       font-size="26.8862"
       id="text159">Petshop.ru</text>
</g><g
     id="g161"><path
       fill="#CC7274"
       d="M504.1,336.9c0,4.1-3.3,8-8.5,8c-5.3,0-8.3-3.7-8.3-8c0-4.1,3.3-8,8.5-8   C501.2,328.9,504.1,332.5,504.1,336.9z M465.5,336.9c0,4.1-3.3,8-8.5,8c-5.3,0-8.3-3.7-8.3-8c0-4.1,3.3-8,8.5-8   C462.5,328.9,465.5,332.5,465.5,336.9z"
       id="path163" /><g
       id="g165"><path
         fill="#CC7274"
         d="M473.8,378.5h9.4c0,4.6,0.5,7.8,1.6,9.4c1.8,2.9,4.7,4.3,8.7,4.3c3.1,0,5.6-1,7.6-3.1c2-2,3-4.7,3-7.9    c0-3-0.7-5.4-2.2-7.1c-1.5-1.6-4-2.8-7.6-3.6v-10.9c6.8,1.1,11.8,3.4,15,7c3.2,3.5,4.8,8.4,4.8,14.7c0,6.4-1.9,11.5-5.6,15.6    c-3.7,4-8.5,6-14.4,6c-6.6,0-11.8-2.6-15.5-7.9c-3.5,6-9.3,9-17.2,9c-6.5,0-11.8-2.2-16-6.6c-4.1-4.4-6.2-10-6.2-16.9    c0-8.7,3.2-15.2,9.6-19.5c2.7-1.8,6.4-2.9,11.2-3.3v10.6c-3.5,0.6-6.2,1.9-8.1,4.1c-1.9,2.2-2.8,5-2.8,8.5c0,3.5,1.2,6.5,3.5,8.8    c2.4,2.3,5.5,3.5,9.2,3.5c4.9,0,8.4-1.7,10.4-5.2C473.2,385.9,473.8,382.8,473.8,378.5z"
         id="path167" /></g></g><g
     display="none"
     id="g169"><text
       transform="matrix(1 0 0 1 374.0654 385.77)"
       display="inline"
       id="text171"><tspan
         x="0"
         y="0"
         fill="#07101A"
         font-family="'RFRostin-Bold'"
         font-size="26.8862"
         id="tspan173">Зоо </tspan><tspan
         x="0"
         y="27"
         fill="#07101A"
         font-family="'RFRostin-Bold'"
         font-size="26.8862"
         id="tspan175">ресторан</tspan></text>
</g><g
     id="g177"><path
       fill="#D57476"
       d="M86.8,971v47.4h12.4v8.3H78.1v-64h21.1v8.3H86.8z"
       id="path179" /><path
       fill="#D57476"
       d="M153.2,1026.8h-21.1v-8.3h12.4V971h-12.4v-8.3h21.1V1026.8z"
       id="path181" /></g><g
     display="none"
     id="g183"><text
       transform="matrix(1 0 0 1 54.1713 952.4458)"
       display="inline"
       fill="#07101A"
       font-family="'RFRostin-Bold'"
       font-size="26.8862"
       id="text185">Фотозона</text>
</g><g
     display="none"
     id="g187"><text
       transform="matrix(1 0 0 1 40.0187 1086.5396)"
       display="inline"
       fill="#07101A"
       font-family="'RFRostin-Bold'"
       font-size="26.8862"
       id="text189">Дети</text>
</g><g
     display="none"
     id="g191"><text
       transform="matrix(1 0 0 1 40.5228 819.2935)"
       display="inline"
       id="text193"><tspan
         x="0"
         y="0"
         fill="#07101A"
         font-family="'RFRostin-Bold'"
         font-size="26.8862"
         id="tspan195">Beauty</tspan><tspan
         x="0"
         y="27"
         fill="#07101A"
         font-family="'RFRostin-Bold'"
         font-size="26.8862"
         id="tspan197">bar</tspan></text>
</g><text
     transform="matrix(1 0 0 1 372.2083 804.3813)"
     display="none"
     fill="#07101A"
     font-family="'RFRostin-Bold'"
     font-size="26.8862"
     id="text199">Здоровье</text>
<g
     display="none"
     id="g201"><text
       transform="matrix(1 0 0 1 374.0653 962.7505)"
       display="inline"
       fill="#07101A"
       font-family="'RFRostin-Bold'"
       font-size="26.8862"
       id="text203">Лекторий</text>
</g><line
     fill="none"
     stroke="#0A1620"
     stroke-width="0.75"
     stroke-miterlimit="10"
     x1="506.1"
     y1="1124.7"
     x2="23.7"
     y2="1124.7"
     id="line205" /><line
     fill="none"
     stroke="#0A1620"
     stroke-miterlimit="10"
     x1="506.1"
     y1="140.2"
     x2="23.7"
     y2="140.2"
     id="line207" /><path
     fill="#F3BBBE"
     d="M156.2,783.9l2.6,1.6l2.6-1.6c22.2-14.2,33-27.9,33-42.2c0-13-8.9-22.4-21.2-22.4c-5.8,0-10.5,1.9-13.9,5.7  l-0.5,0.5l-0.5-0.5c-3.5-3.8-8.2-5.7-13.9-5.7c-12.3,0-21.2,9.4-21.2,22.5C123.2,756,134,769.7,156.2,783.9z M144.4,728.9  c0.3,0,0.7,0,1.1,0.1c0.2,0,0.3,0,0.4,0c4.8,0.5,10.4,3.2,12.9,8.9c2.5-5.7,8.1-8.3,12.9-8.9c0.1,0,0.2,0,0.4,0  c0.5,0,0.8-0.1,1.1-0.1c7.1,0,11.6,5.1,11.6,12.9c0,6.8-4.4,17.9-25.7,32.1l-0.3,0.2l-0.3-0.2c-21.2-14.2-25.7-25.3-25.7-32.2  C132.8,733.9,137.3,728.9,144.4,728.9z"
     id="path209" /><text
     transform="matrix(1 0 0 1 143.7036 757.9321)"
     display="none"
     fill="#07101A"
     font-family="'RFRostin-Bold'"
     font-size="26.8862"
     id="text211">Приюты</text>
<g
     id="g213"><path
       fill="#D57476"
       d="M414.1,610.5v73.9h19.3v12.9h-32.9v-99.7h32.9v12.9H414.1z"
       id="path215" /><path
       fill="#D57476"
       d="M517.5,697.3h-32.9v-12.9h19.3v-73.9h-19.3v-12.9h32.9V697.3z"
       id="path217" /></g><g
     display="none"
     id="g219"><text
       transform="matrix(1 0 0 1 400.4636 589.313)"
       display="inline"
       fill="#07101A"
       font-family="'RFRostin-Bold'"
       font-size="26"
       id="text221">Фотозона</text>
</g><g
     id="g223"><rect
       x="403.8"
       y="89.4"
       fill="#6DB2D1"
       width="110.3"
       height="26.9"
       id="rect225" /><circle
       fill="#6DB2D1"
       cx="458.9"
       cy="64.4"
       r="16.9"
       id="circle227" /></g><g
     display="none"
     id="g229"><text
       transform="matrix(1 0 0 1 346.7383 120.187)"
       display="inline"
       fill="#07101A"
       font-family="'RFRostin-Bold'"
       font-size="26.8862"
       id="text231">Гардероб</text>
</g><g
     id="g233"><g
       id="g235"><line
         fill="none"
         stroke="#0A1620"
         stroke-width="0.75"
         stroke-miterlimit="10"
         x1="241.5"
         y1="957.2"
         x2="241.5"
         y2="1124.7"
         id="line237" /><g
         id="g239"><polyline
           fill="none"
           stroke="#0A1620"
           stroke-width="0.75"
           stroke-miterlimit="10"
           points="241.5,1053.8 198.4,1053.8      198.4,1124.7    "
           id="polyline241" /></g></g></g><line
     fill="none"
     stroke="#0A1620"
     stroke-miterlimit="10"
     x1="351.7"
     y1="318.9"
     x2="178.8"
     y2="318.9"
     id="line251" /><g
     id="g253"><circle
       fill="#6DB2D1"
       cx="25.6"
       cy="656.3"
       r="15.6"
       id="circle255" /><circle
       fill="#6DB2D1"
       cx="70.3"
       cy="656.3"
       r="15.6"
       id="circle257" /><circle
       fill="#6DB2D1"
       cx="115"
       cy="656.3"
       r="15.6"
       id="circle259" /></g><text
     transform="matrix(1 0 0 1 55.0205 634.9771)"
     display="none"
     fill="#07101A"
     font-family="'RFRostin-Bold'"
     font-size="26"
     id="text261">Блогеры</text>
<g
     transform="translate(-0.0123907,-2.6397265)"
     id="g423"><g
       id="g425"><path
         style="fill:#07101a"
         inkscape:connector-curvature="0"
         d="m 225.5,1092.6 -11,-2.6 0,-2.5 5.7,-1.2 -5.7,-1.2 0,-2.5 11,-2.6 0,2.7 -7.8,1.3 5.7,1.2 0,2 -5.7,1.2 7.8,1.3 0,2.9 z"
         id="path427" /><path
         style="stroke:#000000;stroke-width:0.5;stroke-miterlimit:10"
         inkscape:connector-curvature="0"
         stroke-miterlimit="10"
         d="m 216,1101.4 c -1.4,-0.8 -2.1,-2 -2.1,-3.5 0,-2.2 1.7,-4.6 5.7,-4.7 3.9,-0.1 5.8,2.2 5.8,4.4 0,1.3 -0.6,2.5 -1.6,3.3 l -1.2,-1.3 c 0.7,-0.5 1,-1.2 1,-1.9 0,-1.3 -1.3,-2.6 -4,-2.6 -2.7,0 -3.9,1.6 -3.9,2.8 0,0.9 0.5,1.5 1.5,2 l -1.2,1.5 z"
         id="path429" /></g></g></svg>