<?xml version="1.0" encoding="utf-8"?>
<!-- Generator: Adobe Illustrator 18.0.0, SVG Export Plug-In . SVG Version: 6.00 Build 0)  -->
<!DOCTYPE svg PUBLIC "-//W3C//DTD SVG 1.1//EN" "http://www.w3.org/Graphics/SVG/1.1/DTD/svg11.dtd">
<svg version="1.1" id="Слой_1" xmlns="http://www.w3.org/2000/svg" xmlns:xlink="http://www.w3.org/1999/xlink" x="0px" y="0px"
	 viewBox="0 0 123.4 57.2" enable-background="new 0 0 123.4 57.2" xml:space="preserve">
<g>
	<g>
		<path fill="#0061A4" d="M45.4,29.5c2.5,0,4.4,1.7,4.4,4.1s-1.8,4.1-4.4,4.1H42v2.2h-2.8V29.5H45.4z M42,35.2h3.3
			c1,0,1.7-0.5,1.7-1.5c0-1-0.7-1.6-1.7-1.6H42V35.2z"/>
		<path fill="#0061A4" d="M60.9,29.5V32h-6.8v1.4h6.1v2.5h-6.1v1.5h7.1v2.6h-9.8V29.5H60.9z"/>
		<path fill="#0061A4" d="M73.4,29.5V32h-4.1v7.9h-2.8V32h-4.1v-2.5H73.4z"/>
		<path fill="#0061A4" d="M83.9,33c-1.2-0.9-2.5-1.2-4.1-1.2c-1.8,0-2.2,0.4-2.2,0.8c0,0.4,0.5,0.5,1.1,0.6l3,0.3
			c2.3,0.3,3.7,1.2,3.7,3.2c0,2.4-2.4,3.5-5.5,3.5c-2.2,0-3.8-0.5-5.5-1.8l1.3-2.1c1.4,1,2.8,1.5,4.4,1.5c1.4,0,2.6-0.3,2.6-1
			c0-0.4-0.1-0.5-0.8-0.6l-3.6-0.4c-2.2-0.3-3.5-1.1-3.5-3.1c0-2.3,2.2-3.3,4.9-3.3c2,0,3.8,0.4,5.4,1.7L83.9,33z"/>
		<path fill="#0061A4" d="M89.9,29.5v3.8H95v-3.8h2.8v10.4H95v-4.1h-5.1v4.1h-2.8V29.5H89.9z"/>
		<path fill="#0061A4" d="M105.3,40.2c-3.1,0-5.9-2.2-5.9-5.5c0-3.3,2.8-5.5,5.9-5.5c3.1,0,5.9,2.2,5.9,5.5
			C111.2,38,108.4,40.2,105.3,40.2z M105.3,37.8c1.7,0,3.1-1.2,3.1-3.1c0-1.9-1.4-3.1-3.1-3.1c-1.7,0-3.1,1.2-3.1,3.1
			C102.2,36.6,103.6,37.8,105.3,37.8z"/>
		<path fill="#0061A4" d="M119,29.5c2.5,0,4.4,1.7,4.4,4.1s-1.8,4.1-4.4,4.1h-3.4v2.2h-2.8V29.5H119z M115.6,35.2h3.3
			c1,0,1.7-0.5,1.7-1.5c0-1-0.7-1.6-1.7-1.6h-3.3V35.2z"/>
	</g>
	<g>
		<path fill="#F15A29" d="M44.6,46.5c2.9,0,5.6,2,5.6,5.2c0,3.2-2.7,5.2-5.6,5.2h-5.3V46.5H44.6z M41.3,55.2h3.3
			c2.2,0,3.7-1.4,3.7-3.5c0-2.1-1.5-3.5-3.7-3.5h-3.3V55.2z"/>
		<path fill="#F15A29" d="M58.5,46.5l4.4,10.4h-2l-0.7-1.6h-7.1l-0.7,1.6h-2.1l4.6-10.4H58.5z M53.8,53.6h5.6l-2.2-5.4H56L53.8,53.6
			z"/>
		<path fill="#F15A29" d="M64.2,46.5l3.7,5.9h0.2l3.5-5.9h2.2l-5,7.8v2.6H67v-2.6l-5-7.8H64.2z"/>
		<path fill="#F15A29" d="M83.2,49.1c-1.2-0.8-2.5-1.2-4.2-1.2c-2.3,0-2.9,0.7-2.9,1.4c0,0.8,0.7,1,1.6,1.1l3.2,0.4
			c2.1,0.3,3.5,1.2,3.5,3c0,2.3-2.2,3.3-5.3,3.3c-2.1,0-3.7-0.4-5.3-1.6l0.9-1.5c1.5,1,2.8,1.4,4.7,1.4c1.9,0,3.2-0.5,3.2-1.6
			c0-0.8-0.5-1.2-1.6-1.3l-3.4-0.4c-2.1-0.2-3.3-1-3.3-2.9c0-2.1,2.2-3.1,4.8-3.1c1.9,0,3.5,0.3,5.1,1.4L83.2,49.1z"/>
	</g>
	<path fill="#F15A29" d="M42.9,3.4C40.7,1.2,37.8,0,34.7,0c-3.1,0-6,1.2-8.2,3.4l-2,2l-2.9,2.8c-1.5-1.7-2.9-3.3-4.1-4.6
		C13.7-0.6,7.3-0.8,3.2,3l0,0c-4,3.7-4.2,10-0.5,14.1c4,4.4,3.6,4.1,6.5,7.1c1.7,1.8,3.1,3.7,4.4,5.8c0.6,1,1.4,2,2.4,2.6
		c1.7,1.1,3.4,1.4,5.3,0.3c0.2-0.1,0.3,0,0.5,0.1c0.7,0.7,1.6,1.2,2.5,1.5c1.4,0.4,2.8,0.2,4-0.7c0.9-0.7,1.4-1.6,1.6-2.7
		c1.3-0.2,2.3-0.7,3-1.8c0-0.1,0.1-0.1,0.1-0.2l10-9.4c2.2-2.2,3.4-5.1,3.4-8.2C46.3,8.5,45.1,5.6,42.9,3.4z M26.9,17.5
		c1.5-0.2,3,1.4,3,2.9c-0.1,0.9-0.9,1.5-1.8,1.3c-0.7-0.1-1.2-0.4-1.6-0.9c-0.5-0.6-0.8-1.2-0.8-1.9C25.6,18.3,26.1,17.6,26.9,17.5z
		 M30.8,26.8c0,0.9-0.9,1.5-1.8,1.4c-0.6-0.1-1.2-0.4-1.6-0.9c-0.4-0.4-0.7-0.9-0.8-1.4c-0.2-1.2,0.5-2,1.7-1.9
		C29.6,24.2,30.8,25.5,30.8,26.8z M33.3,24.8c-0.3-0.7-0.8-1.3-1.2-2c0.2-0.4,0.4-0.9,0.5-1.4c0.4-1.8-0.1-3.4-1.3-4.8
		c-0.7-0.8-1.5-1.5-2.3-2.2l1.5-1.4c1.1,0.5,3,1,5.3,0.4L35,10.8c-2.3,0.7-3.9-0.5-3.9-0.5l-0.9-0.7l-0.8,0.8l-2.6,2.5L26.5,13
		c-1.2,1-2.5,1.4-3.7,1.3c-0.8-0.1-1.5-0.5-2.2-1.1c0,0,0,0-0.1-0.1l2.9-2.9l3-2.9l0.1-0.1l0.1-0.1l0,0l1.8-1.8
		c3.4-3.4,9-3.4,12.5,0c3.4,3.4,3.4,9,0,12.5L33.3,25C33.3,24.9,33.3,24.9,33.3,24.8z M20.4,29.3c0,0.1,0,0.2,0,0.3c0,0,0,0.1,0,0.1
		c0,0.1-0.1,0.2-0.1,0.2c0,0,0,0,0,0.1c0,0.1-0.1,0.2-0.2,0.2c0,0,0,0,0,0c-0.1,0.1-0.1,0.1-0.2,0.2c0,0,0,0-0.1,0
		c-0.1,0-0.1,0.1-0.2,0.1c0,0,0,0,0,0c-0.1,0-0.2,0.1-0.3,0.1c0,0-0.1,0-0.1,0c-0.1,0-0.2,0-0.2,0c0,0-0.1,0-0.1,0
		c-0.1,0-0.2,0-0.3-0.1c-0.5-0.2-1-0.5-1.3-0.7c-0.1-0.1-0.2-0.2-0.2-0.3c0,0,0-0.1-0.1-0.1c0-0.1-0.1-0.1-0.1-0.2
		c0,0,0-0.1-0.1-0.1c0-0.1-0.1-0.1-0.1-0.2c0,0,0-0.1-0.1-0.1c0-0.1-0.1-0.1-0.1-0.2c0,0,0-0.1,0-0.1c0,0,0-0.1-0.1-0.1
		c0,0,0-0.1,0-0.1c0,0,0-0.1,0-0.1c0,0,0-0.1,0-0.1c0,0,0-0.1,0-0.1c0,0,0-0.1,0-0.1c0,0,0-0.1,0-0.1c0,0,0,0,0,0c0,0,0,0,0-0.1
		c0,0,0-0.1,0-0.1c0,0,0-0.1,0-0.1c0.1-0.6,0.5-1,1-1.1c0,0,0.1,0,0.1,0c0,0,0.1,0,0.1,0c0,0,0.1,0,0.1,0c0.1,0,0.2,0,0.3,0
		c0,0,0,0,0.1,0c0.1,0,0.2,0,0.3,0.1c0,0,0.1,0,0.1,0c0.6,0.2,1.1,0.6,1.5,1.2c0,0.1,0.1,0.1,0.1,0.2c0,0,0,0,0,0.1
		c0,0.1,0.1,0.1,0.1,0.2c0,0.1,0.1,0.1,0.1,0.2c0,0,0,0.1,0,0.1c0,0.1,0.1,0.2,0.1,0.2c0,0,0,0,0,0.1c0,0.1,0,0.1,0,0.2
		c0,0,0,0,0,0.1c0,0.1,0,0.1,0,0.2C20.4,29.2,20.4,29.2,20.4,29.3C20.4,29.3,20.4,29.3,20.4,29.3C20.4,29.3,20.4,29.3,20.4,29.3z
		 M19.1,24.1c-0.2-0.1-0.3-0.1-0.5,0c-0.7,0.3-1.5,0.1-2.2-0.6c-0.5-0.5-0.6-1.3-0.3-1.9c0,0,0.1-0.1,0.1-0.1
		c0.2-0.2,0.5-0.4,0.7-0.6c0.1-0.1,0.2-0.2,0.2-0.2c0.2-1.5,1.5-2.6,3-2.6c0,0,0.1,0,0.1,0c0.2-0.6,0.5-1.1,1.2-1.2
		c0.3,0.1,0.7,0.2,1,0.2c0.1,0,0.3,0,0.4,0c0.2,0.2,0.4,0.4,0.6,0.7c0.4,0.6,0.4,1.2,0,1.8c-0.2,0.3-0.2,0.5-0.1,0.8
		c0.5,1.2,0.2,2.6-0.7,3.4c-0.4,0.3-0.8,0.6-1.2,0.7C20.7,24.6,19.8,24.5,19.1,24.1z M25.3,31.8C25.3,31.8,25.3,31.8,25.3,31.8
		C25.2,31.8,25.2,31.8,25.3,31.8c-0.2,0-0.3-0.1-0.5-0.1c0,0,0,0,0,0c-0.1,0-0.2-0.1-0.3-0.1c0,0-0.1,0-0.1-0.1c0,0-0.1,0-0.1-0.1
		c-0.1-0.1-0.2-0.1-0.3-0.2c0,0,0,0-0.1-0.1c-0.1-0.1-0.2-0.2-0.3-0.2c0,0-0.1-0.1-0.1-0.1c0,0-0.1-0.1-0.1-0.1
		c-0.2-0.3-0.4-0.6-0.5-0.9c0,0,0,0,0-0.1c0-0.1,0-0.1-0.1-0.2c0-0.1-0.1-0.2-0.1-0.3c0,0,0,0,0,0c0,0,0,0,0,0c0-0.1,0-0.2,0-0.4
		c0,0,0-0.1,0-0.1c0-0.1,0-0.2,0.1-0.3c0,0,0,0,0,0c0-0.1,0.1-0.2,0.1-0.3c0,0,0,0,0-0.1c0.1-0.1,0.1-0.1,0.2-0.2c0,0,0,0,0,0
		c0.1-0.1,0.2-0.1,0.3-0.2c0,0,0,0,0.1,0c0.1,0,0.2-0.1,0.3-0.1c0,0,0,0,0,0c0.1,0,0.2,0,0.3,0c0,0,0.1,0,0.1,0c0.1,0,0.2,0,0.4,0.1
		c0.1,0,0.3,0.1,0.4,0.1c0.4,0.2,0.7,0.4,1.1,0.8c0,0,0.1,0.1,0.1,0.1c0.1,0.1,0.1,0.1,0.2,0.2c0,0,0.1,0.1,0.1,0.1
		c0,0.1,0.1,0.1,0.1,0.2c0,0.1,0,0.1,0.1,0.2c0,0.1,0.1,0.2,0.1,0.2c0,0.1,0,0.1,0,0.2c0,0.1,0,0.2,0.1,0.2c0,0,0,0,0,0c0,0,0,0,0,0
		C27.1,31.2,26.4,31.9,25.3,31.8z"/>
</g>
</svg>
