<?xml version="1.0" encoding="utf-8"?>
<!-- Generator: Adobe Illustrator 18.0.0, SVG Export Plug-In . SVG Version: 6.00 Build 0)  -->
<!DOCTYPE svg PUBLIC "-//W3C//DTD SVG 1.1//EN" "http://www.w3.org/Graphics/SVG/1.1/DTD/svg11.dtd">
<svg version="1.1" id="Режим_изоляции"
	 xmlns="http://www.w3.org/2000/svg" xmlns:xlink="http://www.w3.org/1999/xlink" x="0px" y="0px" viewBox="0 0 52.5 50.4"
	 enable-background="new 0 0 52.5 50.4" xml:space="preserve">
<g>
	<path fill="#DD7D7E" d="M9.3,50.4l3.3-6.5c-2.9-1-5.6-3.4-5.4-6.7c0.1-1.4,0.6-2.9,1.5-4.5l6.8-11.6c1.4-2.5,2.2-5,2.4-7.5
		C18.3,7.8,14.6,2.4,8.5,0L5.2,6.5c2.9,1,5.7,3.4,5.5,6.7c-0.1,1.4-0.6,2.9-1.5,4.5L2.4,29.2c-1.4,2.5-2.2,5-2.4,7.5
		C-0.4,42.5,3.3,47.9,9.3,50.4z"/>
	<path fill="#DD7D7E" d="M26.6,50.4l3.3-6.5c-2.9-1-5.6-3.4-5.4-6.7c0.1-1.4,0.6-2.9,1.5-4.5l6.8-11.6c1.4-2.5,2.2-5,2.4-7.5
		C35.6,7.8,31.9,2.4,25.8,0l-3.3,6.5c2.9,1,5.7,3.4,5.5,6.7c-0.1,1.4-0.6,2.9-1.5,4.5l-6.8,11.6c-1.4,2.5-2.2,5-2.4,7.5
		C16.9,42.5,20.6,47.9,26.6,50.4z"/>
	<path fill="#DD7D7E" d="M43.9,50.4l3.3-6.5c-2.9-1-5.6-3.4-5.4-6.7c0.1-1.4,0.6-2.9,1.5-4.5l6.8-11.6c1.4-2.5,2.2-5,2.4-7.5
		C53,7.8,49.2,2.4,43.2,0l-3.3,6.5c2.9,1,5.7,3.4,5.5,6.7c-0.1,1.4-0.6,2.9-1.5,4.5l-6.8,11.6c-1.4,2.5-2.2,5-2.4,7.5
		C34.2,42.5,37.9,47.9,43.9,50.4z"/>
</g>
</svg>
