<?xml version="1.0" encoding="utf-8"?>
<!-- Generator: Adobe Illustrator 18.0.0, SVG Export Plug-In . SVG Version: 6.00 Build 0)  -->
<!DOCTYPE svg PUBLIC "-//W3C//DTD SVG 1.1//EN" "http://www.w3.org/Graphics/SVG/1.1/DTD/svg11.dtd">
<svg version="1.1" id="Режим_изоляции"
	 xmlns="http://www.w3.org/2000/svg" xmlns:xlink="http://www.w3.org/1999/xlink" x="0px" y="0px" viewBox="4.8 0 90.3 100"
	 enable-background="new 4.8 0 90.3 100" xml:space="preserve">
<g>
	<g>
		<path fill="#FFFFFF" d="M87.2,10.7c0,5.5-4.4,10.7-11.4,10.7c-7.1,0-11.1-4.9-11.1-10.7C64.7,5.1,69.1,0,76.1,0
			C83.1,0,87.2,4.9,87.2,10.7z"/>
		<path fill="#FFFFFF" d="M95.2,72.1V44.6H61.9h-7.5H40h-6.9H18.6H4.8v15.2h13.8h14.5H40v12.3C40,89,51.5,100,67.6,100
			S95.2,89,95.2,72.1z M54.4,69.9V59.7h26.3v10.1c0,10.3-5.4,15-13.2,15S54.4,80.1,54.4,69.9z"/>
	</g>
	<rect x="9.9" y="4.4" fill="#FFFFFF" width="25.7" height="12.6"/>
</g>
</svg>
