<?xml version="1.0" encoding="utf-8"?>
<!-- Generator: Adobe Illustrator 18.0.0, SVG Export Plug-In . SVG Version: 6.00 Build 0)  -->
<!DOCTYPE svg PUBLIC "-//W3C//DTD SVG 1.1//EN" "http://www.w3.org/Graphics/SVG/1.1/DTD/svg11.dtd">
<svg version="1.1" id="Слой_1" xmlns="http://www.w3.org/2000/svg" xmlns:xlink="http://www.w3.org/1999/xlink" x="0px" y="0px"
	 viewBox="0 0 100 100" enable-background="new 0 0 100 100" xml:space="preserve">
<path fill="#9CC5E3" d="M62.4,49.7c12.2,5.1,24.8,9.7,37.6,13.4L86.4,86.7c-9.7-9.5-19.9-18.2-30.3-26.2c1.7,13.2,4.3,26.2,7.5,39.3
	H36.4c3.2-12.8,5.5-26,7.3-39c-10.4,7.9-20.4,16.6-30.1,25.9L0,63.1c12.8-3.6,25.4-8.3,37.6-13.4C25.4,44.9,12.8,40.6,0,36.9
	l13.6-23.6c9.7,9.2,19.7,17.7,30.1,25.8c-1.7-12.8-4.1-26-7.3-38.8h27.2c-3.2,12.8-5.9,26-7.5,39c10.4-8,20.7-16.7,30.3-26L100,36.9
	C87.1,40.6,74.5,44.9,62.4,49.7z"/>
</svg>
