<?xml version="1.0" encoding="utf-8"?>
<!-- Generator: Adobe Illustrator 18.0.0, SVG Export Plug-In . SVG Version: 6.00 Build 0)  -->
<!DOCTYPE svg PUBLIC "-//W3C//DTD SVG 1.1//EN" "http://www.w3.org/Graphics/SVG/1.1/DTD/svg11.dtd">
<svg version="1.1" id="Слой_1" xmlns="http://www.w3.org/2000/svg" xmlns:xlink="http://www.w3.org/1999/xlink" x="0px" y="0px"
	 viewBox="0 0 100 100" enable-background="new 0 0 100 100" xml:space="preserve">
<path fill="#9CC5E3" d="M100,39.2c-6.8,22.1-16.5,32.4-32.2,32.4C62,71.6,57.3,70,50.9,65l-12.4-9.7c-1.5-1.1-3.5-2.4-6.3-2.4
	c-5.4,0-9,5.8-13.1,17.4L0,60.8c6.8-22.1,16.5-32.4,32.2-32.4c5.8,0,10.5,1.5,16.9,6.6l12.4,9.6c1.5,1.1,3.5,2.4,6.3,2.4
	c5.4,0,9-5.8,13.1-17.4L100,39.2z"/>
</svg>
