<?xml version="1.0" encoding="utf-8"?>
<!-- Generator: Adobe Illustrator 18.0.0, SVG Export Plug-In . SVG Version: 6.00 Build 0)  -->
<!DOCTYPE svg PUBLIC "-//W3C//DTD SVG 1.1//EN" "http://www.w3.org/Graphics/SVG/1.1/DTD/svg11.dtd">
<svg version="1.1" id="Слой_1" xmlns="http://www.w3.org/2000/svg" xmlns:xlink="http://www.w3.org/1999/xlink" x="0px" y="0px"
	 viewBox="0 0 100 100" enable-background="new 0 0 100 100" xml:space="preserve">
<path fill="#9CC5E3" d="M50,0c6.4,0,12.4,5.1,12.4,13.2c0,8.3-5.7,12.9-12.4,12.9c-6.4,0-12.4-5-12.4-13.2C37.5,4.6,43.3,0,50,0z
	 M62.5,66.6c0,11.4-4.4,24-18.3,33.4l-5.6-6c6.2-4,10.7-9.7,11.8-16.1H50c-6.4,0-12.4-5.1-12.4-13.2c0-8.3,5.7-12.9,12-12.9
	C56.9,51.8,62.5,57.4,62.5,66.6z"/>
</svg>
