<?xml version="1.0" encoding="utf-8"?>
<!-- Generator: Adobe Illustrator 18.0.0, SVG Export Plug-In . SVG Version: 6.00 Build 0)  -->
<!DOCTYPE svg PUBLIC "-//W3C//DTD SVG 1.1//EN" "http://www.w3.org/Graphics/SVG/1.1/DTD/svg11.dtd">
<svg version="1.1" id="Слой_1" xmlns="http://www.w3.org/2000/svg" xmlns:xlink="http://www.w3.org/1999/xlink" x="0px" y="0px"
	 viewBox="21.3 0 57.5 100" enable-background="new 21.3 0 57.5 100" xml:space="preserve">
<g>
	<path fill="#9CC5E3" d="M52.9,0c15.7,0,25.8,9.3,25.8,22.9c0,10.1-5.5,15.1-12.6,18.9l-11.4,6c-3.4,1.8-5.3,4.3-5.3,6.5
		c0,2.5,1.8,3.9,4,3.9c2.6,0,4.7-1.2,7.7-3.9l5.2,11.1c-3,3.6-8.8,5.5-13.8,5.5c-9.8,0-17-6.4-17-17.5c0-7,4.6-14,11-17.4l10.3-5.3
		c4.2-2.2,5.5-4.3,5.5-7.9c0-4.6-4.2-7.3-10.1-7.3c-4.6,0-10.8,1.2-17.5,12.1l-13.4-8C28.6,7,39.6,0,52.9,0z M50.9,75.9
		c6,0,11.5,4.7,11.5,12.2c0,7.7-5.3,11.9-11.5,11.9c-6,0-11.5-4.7-11.5-12.2C39.3,80.1,44.6,75.9,50.9,75.9z"/>
</g>
</svg>
