<?xml version="1.0" encoding="utf-8"?>
<!-- Generator: Adobe Illustrator 18.0.0, SVG Export Plug-In . SVG Version: 6.00 Build 0)  -->
<!DOCTYPE svg PUBLIC "-//W3C//DTD SVG 1.1//EN" "http://www.w3.org/Graphics/SVG/1.1/DTD/svg11.dtd">
<svg version="1.1" id="Livello_1" xmlns="http://www.w3.org/2000/svg" xmlns:xlink="http://www.w3.org/1999/xlink" x="0px" y="0px"
	 viewBox="0 0 417.2 206.5" enable-background="new 0 0 417.2 206.5" xml:space="preserve">
<g>
	<g>
		<path fill="none" d="M266.3,55.8c1.1,1.3,2.6,2,3.9,1.8C269.3,56.4,268.1,55.3,266.3,55.8z"/>
		<path fill="none" d="M287.9,62.2c-0.5-0.3-1.3-0.6-2.1-0.6C286.4,61.9,287.2,62.1,287.9,62.2z"/>
		<path fill="none" d="M288.9,63.1c-0.2-0.4-0.2-0.7,0.3-0.8h0l-1.3-0.1L288.9,63.1z"/>
		<path fill="none" d="M288.9,63.1c0.1,0.2,0.2,0.4,0.4,0.6L288.9,63.1z"/>
		<path fill="none" d="M311,72.2c-0.5,0-1.5,0-1.5,0c-1.1-2.1-3.2-2.4-5.3-2.7l0.4,1.3c1.1,0.4,1.5-0.1,0.7-1c1.6,2.2,3.4,3,5.7,4
			C311.1,73.4,311.4,72.8,311,72.2z"/>
		<path fill="#FBAE36" d="M216.6,47.3c13.4,0.8,25.7,2.2,38,4.7c0.3-1.6,0.5-3.5,0.5-5.7C255,20.7,234.3,0,208.7,0
			c-25.6,0-46.3,20.7-46.3,46.3c0,1,0,1.9,0.1,2.8c8.1-1.7,16.3-3.1,25.1-3.1C197.1,46.3,206.7,46.5,216.6,47.3z"/>
		<path fill="#67BD53" d="M130.9,78c0.3,0,0.6,0,0.9-0.1C131.5,77.9,131.2,77.9,130.9,78z"/>
		<path fill="#67BD53" d="M289.2,63.7l0.2,0.3C289.4,64,289.3,63.9,289.2,63.7z"/>
		<path fill="#67BD53" d="M309.8,70.5c-5.4-2.1-10.1-4.9-15.2-6.5c-0.5,0.3-0.9,0.6-1.4,0.2c-0.3-0.5-0.6-0.8-0.9-1.1l-2.2-0.8
			l-0.8-0.1h0c-0.5,0.1-0.5,0.5-0.3,0.8l0.4,0.6c0.1,0.1,0.2,0.3,0.2,0.3l-0.2-0.3c-0.1-0.2-0.3-0.4-0.4-0.6l-1-0.9
			c-0.7-0.1-1.4-0.2-2.1-0.6c0.9,0,1.6,0.2,2.1,0.6l1.3,0.1l0.4-0.1c-1.7-0.6-3.3-1.3-5-1.8l-1.1-0.1c-1.3,0-2.6,0-3.1-1.2l-0.9-0.3
			l0.1,0.2l-0.3-0.3l-3.8-1.2c-2.5-0.8-5.1-1.5-7.7-2.2c-4.4-1.3-8.8-2.4-13.2-3.3c-12.3-2.6-24.6-3.9-38-4.7
			c-9.9-0.8-19.5-1.1-29-1.3c-8.8,0-16.9,1.3-25.1,3.1c-9.7,2.1-19.5,4.7-30.4,6.2c-7.8,1.1-20.2,8.7-26.1,13.2
			c-6.3,8.4,3.3,12.8,3.8,13.1c8.7,3.2,10-2.5,21.1-3.7c-6,0.3,4.1-7.2,12.4-4.9c12,3.7,23.5-6.3,36.4-6.3c3.1-0.1,6.3-0.8,10-1.1
			c19.2,0.6,37.1-2.4,57.3,1c5.4,0.9,10.2-0.3,15.2-0.4c3.4,0.4,6.9,2,9.5,2.7c4.2,1,7.9,1.1,11.6,1.1c-4-0.6-6.9-0.7-11.3-1.4
			c-2.9-0.6,2.6-2.2,4.7-2.3c0.9-0.3,1.7,2.3,2.6,2c1.8,0.5,3.7-0.2,5.7-0.1c0.9-0.2,0.2,1.8,0.7,1.7c2.6,0.3,5.4-1.6,6.9-0.6
			c1.1,0.7,2.2,1.3,3.1,2c0.7,0.3,1.2,0.7,1.9,0.9l1.5,0.1c3.6,0.3,7.8,0.7,11.8,1.8l0-0.2c-2.2-1-4.1-1.8-5.7-4
			c0.7,0.8,0.4,1.3-0.7,1l-0.4-1.3c2.1,0.3,4.2,0.6,5.3,2.7c0,0,1.1,0,1.5,0c0.4,0.6,0.1,1.1,0,1.7l1.2,0.5
			C311.9,73,309.8,70.4,309.8,70.5z M266.3,55.8c1.8-0.5,3,0.6,3.9,1.8C268.9,57.8,267.4,57.1,266.3,55.8z"/>
	</g>
	<path fill="#F26137" d="M394,104.8c0.8-0.5,1.5-0.9,2.6-1c0.8-0.1,1.7-0.2,2.6-0.1c1.1,0.1,2.1,0.4,3,0.9c1,0.5,1.8,1.1,2.7,2.2
		c0.4,0.5,0.9,1.2,1.8,3c-1.4,0.6-1.6,0.7-1.7,0.7c-2.3,0.7-4.7,1.1-7,1.4c-2,0.3-4.1,0.7-6.1,1.3c-1.1,0.4-2.1,0.8-3.1,1.4
		C390,107.5,392.2,105.9,394,104.8 M411.6,129.3c-3.1,0-5.3,3.6-11.4,3.6c-3.8,0-7.3-1.5-9.4-4.7c-1.6-4.3,6.1-4.7,11.7-5.8
		c5.5-1,8.8-2.7,11.1-4.8c2.3-2.1,3.6-4.7,3.5-7.5c-0.1-2.8-1.5-5.9-2.8-8.1c-1.3-2.2-2.4-3.4-3.9-4.7c-1.5-1.3-3.5-2.8-5.8-3.8
		c-2.3-1-5-1.5-8.3-1.1c-3.3,0.4-7.3,1.7-11.8,5.9c-4.8,5-7.6,12.4-7.6,20.3c0,15,8.8,26.2,22.1,26.2c8.8,0,17.3-3.8,17.3-9.7
		C416.5,132.2,414.2,129.3,411.6,129.3"/>
	<path fill="#F26137" d="M374.5,94.3c-4.1-2.2-8.1-0.6-11,1c-2.9,1.6-4.6,3-6.1,4.7c-1.5,1.7-2.6,3.8-3.5,6.1
		c-0.9,2.3-1.5,4.9-1.9,8.3c-0.4,3.5-0.6,7.8-0.6,18.2v4.6c0,4.5,2.5,7.6,5.9,7.6c3.4,0,5.9-3,5.9-7.6v-15c0-11.2,3.6-13,7.1-14.9
		c3.5-1.9,7-2.2,7-6.6C377.3,97.5,376.1,95.4,374.5,94.3"/>
	<path fill="#F26137" d="M316.5,143.6c-7.8-4.3-7.9-11.6-7.9-21v-5.6v-8.8v-4.4v-2.2c0-2.2,0.3-4,1.5-5.7c1.7-2.4,4.5-2.9,6.7-1.8
		c3.5,1.6,3.6,4.8,3.6,8.9v2.9v5.8v11.5c0,2.7,0,5.1,1.3,7.5c1.7,3.3,4.9,4.2,7.6,3.3c3.2-1,4.9-4.6,5-8.8c0.1-4.2,0-8.3,0-12.5
		v-6.1v-3.1c0-3.3-0.2-6.1,2.3-8.4c3.8-3.6,9.4-0.6,9.5,5.8c0,0.8,0,1.5,0,2.3v3.9v7.9v6.6c0,8.8,0.5,16.1-6.6,21.2
		C333.7,146.8,322.4,146.8,316.5,143.6"/>
	<path fill="#F26137" d="M296.2,94.5h3.4c3,0,5.6,1.6,5.6,5.9c0,4.3-2.6,6-5.6,6h-3.4v31.4c0,4.5-2.5,7.6-5.9,7.6
		c-3.4,0-5.9-3-5.9-7.6V86.4c0-4.5,2.4-7.6,5.9-7.6c3.4,0,5.9,3,5.9,7.6V94.5z"/>
	<path fill="#F26137" d="M211.3,104.4c-2.9,0-5.4,1.8-6.4,5.5c-0.4,1.5-0.5,3-0.5,4.6v2.2v4.4v8.9v5.1c0,1.4,0.1,2.9-0.2,4.3
		c-1.4,8.1-11.1,7.1-11.6-1.2c-0.1-2.4,0-4.9,0-7.3v-6.6v-6.6c0-3.6-0.2-7,0.3-10.6c1.8-12.2,10.8-14.5,18.4-14.5
		c7.6,0,16.6,2.3,18.4,14.5c0.5,3.5,0.3,7.1,0.3,10.6v6.6v6.6c0,2.4,0.1,4.8,0,7.3c-0.5,8.3-10.1,9.4-11.6,1.3
		c-0.3-1.5-0.2-2.9-0.2-4.3V130v-8.9v-4.4v-2.2c0-1.6-0.1-3.1-0.5-4.6C216.7,106.1,214.2,104.4,211.3,104.4"/>
	<path fill="#F26137" d="M98.4,96.4c-0.6-0.5-1.1-0.9-1.8-1.2c-4.5-2.7-8.9-2.8-13.6-2.4c-6.8,0.6-14,3.4-15.8,13.8
		c-0.7,3.9-0.4,7.7-0.4,11.6v7.1v7.1v3.5c0,1.2,0,2.5,0.2,3.7c1.1,5.3,6.1,7,9.3,4c2.5-2.3,2.3-5.2,2.3-8.6v-3.3v-6.6v-6.6v-3.3
		c0-0.9,0-1.8,0-2.8c0.5-6.1,4.4-9.2,8.8-7.9c2.3,0.7,3.6,2.1,4.5,5.1c0.4,1.5,0.5,2.9,0.5,4.4v1.7v3.3v6.6v6.6v3.3v1.6
		c0,4.8,2.3,7.8,5.9,7.8c3.6,0,5.9-3,5.9-7.8l0-1.6v-3.3v-6.6v-6.6v-3.3v-1.7c0-1.5,0.1-3,0.5-4.4c0.9-3,2.2-4.4,4.5-5.1
		c4.4-1.4,8.3,1.7,8.8,7.8c0.1,0.9,0,1.9,0,2.8v3.3v6.6v6.6v3.3c0,3.4-0.2,6.2,2.3,8.6c3.2,3,8.3,1.3,9.3-4c0.2-1.2,0.2-2.4,0.2-3.7
		v-3.5v-7.1v-7.1c0-3.9,0.3-7.7-0.4-11.6c-1.8-10.4-8.9-13.3-15.7-13.9c-3.4-0.3-6.8-0.1-10.1,0.9c-1.2,0.4-2.4,0.8-3.5,1.5
		C99.6,95.5,99,95.9,98.4,96.4"/>
	<path fill="#F26137" d="M156,132.9c-6.4,0-9.3-7.2-9.3-13.7c0-6.5,2.9-13.9,9.3-13.9c6.5,0,9.3,7.4,9.3,13.9
		C165.4,125.7,162.4,132.9,156,132.9 M156,92.8c-12.4,0-21.1,12.6-21.1,26.4c0,14.2,8.4,26.2,21.1,26.2c12.7,0,21.1-12,21.1-26.2
		C177.2,105.4,168.5,92.8,156,92.8"/>
	<path fill="#F26137" d="M48.5,79.1c0-4.5,2.5-7.6,5.9-7.6s5.9,3,5.9,7.6v58.2c0,4.5-2.5,7.6-5.9,7.6s-5.9-3-5.9-7.6V79.1z"/>
	<path fill="#F26137" d="M21.1,132.4c-6.4,0-9.3-7.2-9.3-13.7c0-6.5,2.9-13.9,9.3-13.9c6.2,0,9.1,7.4,9.1,13.9
		C30.2,125.2,27.3,132.4,21.1,132.4 M39.8,105.8c-2.1-6.2-6-10.4-11.2-12.4c-5.2-2-11.6-1.9-16.9,1.2C4.8,98.4,0,107.6,0,118.7
		c0,15.3,8.4,26.2,19.5,26.2c4.5,0,8.2-2.2,11.2-6.3c0.8,3.6,4.5,6.4,8,6.4c11.9,0,4-6.3,3.6-13c-0.1-1.7-0.2-3.6-0.2-4.1
		C41.7,113.4,41.8,112,39.8,105.8"/>
	<path fill="#F26137" d="M256.1,132.3c-6.4,0-9.3-7.2-9.3-13.7c0-6.5,2.9-13.9,9.3-13.9c6.2,0,9.1,7.4,9.1,13.9
		C265.2,125.1,262.3,132.3,256.1,132.3 M274.8,105.7c-2.1-6.2-6-10.4-11.2-12.4c-5.2-2-11.6-1.9-16.9,1.2
		c-6.9,4-11.6,13.1-11.6,24.2c0,15.3,8.4,26.2,19.5,26.2c4.5,0,8.2-2.2,11.2-6.3c0.8,3.6,4.5,6.4,8,6.4c11.9,0,4-6.4,3.6-12.9
		c-0.1-1.8-0.2-3.6-0.2-4.1C276.7,113.4,276.9,111.9,274.8,105.7"/>
	<path fill="#594A42" d="M247.7,191.8c-1,0.4-2.4,0.9-2.4,2.4c0,0.9,0.8,2,2.2,2c0.7,0,1.4-0.3,2-0.6c1.9-1.2,2-3,2-5L247.7,191.8z
		 M240.5,185.9c0.1-1.3,0.3-2.9,2-4.3c1.8-1.4,4.1-1.7,6.3-1.7c2.4,0,8.1,0.6,8.1,5.6v11.3c0,2.1,0.1,2.4,0.6,3h-5.6V198
		c-1.4,1.1-3.1,2.3-5.9,2.3c-4.5,0-6.4-3.2-6.4-5.9c0-3.1,2.5-4.9,4.1-5.6c1.6-0.7,5.2-1.3,7.7-1.8v-1c-0.1-0.9-0.2-2.4-2.2-2.4
		c-2.5,0-2.9,1.6-3,2.3H240.5z"/>
	<path fill="#594A42" d="M266.3,182.5c0.7-0.8,2.2-2.5,5.5-2.5c3.2,0,4.3,1.2,5.4,2.3c1.1-0.9,2.7-2.3,5.8-2.3
		c3.2,0,4.8,1.6,5.4,2.8c0.5,1,0.5,2.4,0.5,4.5v12.6h-5.6v-10.2c0-1.1,0-2.6-0.2-3.3c-0.5-1.6-2-1.7-2.5-1.7c-0.6,0-1.3,0.1-1.9,0.6
		c-1.1,0.9-1.1,2-1.1,4.1v10.5h-5.6v-11.5c0-0.9,0-2-0.6-2.7c-0.4-0.6-1.3-1-2.2-1c-0.4,0-1,0.1-1.6,0.4c-1.3,0.9-1.3,2.4-1.3,3.7
		v11h-5.6v-19.3h5.6V182.5z"/>
	<path fill="#594A42" d="M298.3,186.3c-0.7,1.1-1,2.4-1,3.8c0,3.1,1.5,5.8,4.7,5.8c3.1,0,4.6-2.5,4.6-5.5c0-2.2-0.5-3.8-1.6-4.9
		c-1.2-1.1-2.5-1.1-3.3-1.1C300.1,184.5,299.1,185,298.3,186.3 M312.4,190.1c0,4.9-2.8,10.3-10.4,10.3c-5.5,0-10.4-3.1-10.4-10.3
		c0-5.9,3.7-10.7,11.2-10.2C310.7,180.3,312.4,186.6,312.4,190.1"/>
	<path fill="#594A42" d="M320.6,182.4c1.3-1.1,2.6-1.9,5.6-2.2v5l-1.9,0.3c-2.8,0.5-3.6,0.9-3.6,3.3v10.9H315v-19.4h5.6V182.4z"/>
	<path fill="#594A42" d="M341,187.7c-0.1-0.8-0.3-1.9-1.1-2.7c-0.7-0.7-1.8-1.1-2.8-1.1c-1.4,0-2.3,0.7-2.9,1.3
		c-0.8,0.9-1,1.7-1.2,2.6H341z M346.7,194.9c-0.7,1-1.3,2-2.3,2.9c-1.7,1.6-4.2,2.7-7.3,2.7c-5.8,0-9.8-3.7-9.8-10
		c0-4.7,2.3-10.7,9.9-10.7c1.2,0,4.5,0.1,7,2.8c2.5,2.7,2.7,6.5,2.7,8.7H333c0,2.4,1.3,4.8,4.4,4.8c3.1,0,4.2-2,4.9-3.4L346.7,194.9
		z"/>
	<path fill="#F26137" d="M258.9,192.5c0,0,1.5-6.8,3.5-11.4c2.1-4.5,4.8-9.5,6.4-12c1.5-2.5,2.8-4.2,2.8-4.2s0.4,0.1,0.7,0.8
		c0.3,0.7,0.2,1.9,0,3.1c-0.3,1.2-1.2,5.4-4.3,10.3c-3.1,4.9-4.9,7.8-5.8,9.1C261.2,189.6,258.9,192.5,258.9,192.5 M271.6,177.6
		c2-3.2,3.3-6.7,4-9.2c0.7-2.5,0.5-3.9,0.3-4.5c-0.2-0.6-0.7-1.6-1.6-1.7c-1-0.1-2.3,1-2.9,1.4c-0.6,0.5-2.2,1.5-3.6,3.4
		c-1.4,1.9-5.3,7.9-7.7,12.7c-2.3,4.8-4,10.9-4.6,13.2c-0.6,2.3-0.9,4.8-0.9,4.8c-0.7,0.8-4.8,5.3-7.4,7.8c-0.9,0.9-0.2,0.3,1.2,0.4
		c0.5,0,0.8-0.1,1.2-0.4c0.9-0.6,1.7-1.4,2.2-2c0.8-0.9,2.7-3,2.7-3s-0.1,2.3,0.9,3.8c0.8,1.2,1.4,1.9,3.7,2.1
		c2.8,0.3,5.6-1.7,7.6-3.2c2-1.5,4.5-4.4,5.3-5.5c0.9-1.1,1.4-2,1.2-2.1c-0.2-0.2-0.8,0.6-1.2,0.8c-0.5,0.2-0.7-0.5-1.2,0.1
		c-0.5,0.6-2.1,2.5-4.3,4.8c-2.2,2.3-3.2,2.6-3.9,2.9c-0.7,0.3-1.7,0.3-2.6-0.5c-0.9-0.8-1.5-2.7-1.6-4c-0.1-1.3,0.1-3.2,0.1-3.2
		c2.1-2.2,5.9-7.3,7.2-9C266.6,185.7,269.7,180.8,271.6,177.6"/>
	<path fill="#7B2C0C" d="M260.6,186c0.5-1.6,1.1-3.4,1.8-4.8c0.1-0.2,0.2-0.5,0.3-0.7h-2.1V186z"/>
	<path fill="#7B2C0C" d="M262.1,188.3c-0.4,0.5-0.9,1.2-1.5,2v3.3c1.9-2.3,3.9-5.1,4.8-6.2c1-1.3,2.9-4.4,4.7-7.2
		c-2.2,0.5-3.3,1.7-3.8,2.4v-0.6C264.2,185.2,262.8,187.2,262.1,188.3"/>
	<path fill="#7B2C0C" d="M273,195.5c-0.2-0.2-0.7,0.5-1.1,0.8v1.2C272.7,196.5,273.2,195.7,273,195.5"/>
	<path fill="#7B2C0C" d="M257,196.8v-9.2c-0.7,2.2-1.2,4.2-1.5,5.3c-0.6,2.3-0.9,4.8-0.9,4.8c-0.3,0.3-1,1.1-1.9,2.1h4.9
		C257.1,199.1,257,198.9,257,196.8"/>
	<g>
		<path fill="#594A42" d="M72.8,182.5c0.2-0.2,0.4-0.4,0.6-0.6c1-0.9,2.7-1.7,4.8-1.7c4.7,0,8.3,3.6,8.3,10c0,3.9-1.7,10-8.3,10
			c-2.1,0-3.2-0.7-4.7-1.6v7.9h-5.7v-25.8h5V182.5z M77.3,184.2c-1,0-2.1,0.4-2.9,1.5c-0.8,1.1-1.2,2.7-1.2,4.5
			c0,2.4,0.6,3.9,1.4,4.7c0.7,0.7,1.6,1.1,2.5,1.1c2.8,0,4-3,4-6c0-2.5-0.7-5.2-3-5.8C77.8,184.2,77.6,184.2,77.3,184.2z"/>
		<path fill="#594A42" d="M107.4,194.9c-0.7,1-1.3,1.9-2.3,2.9c-1.7,1.5-4.1,2.7-7.2,2.7c-5.7,0-9.7-3.6-9.7-9.9
			c0-4.6,2.3-10.6,9.8-10.6c1.1,0,4.4,0.1,6.9,2.8c2.5,2.7,2.6,6.4,2.7,8.6H93.9c0,2.4,1.3,4.8,4.4,4.8c3.1,0,4.1-2,4.9-3.4
			L107.4,194.9z M101.8,187.8c-0.1-0.8-0.3-1.9-1.1-2.7C100,184.4,99,184,98,184c-1.4,0-2.3,0.7-2.9,1.3c-0.8,0.8-1,1.7-1.1,2.5
			H101.8z"/>
		<path fill="#594A42" d="M111.2,175.1h5.6v6h3.7v3.5h-3.7v8.6c0,1.2,0,2.2,1.5,2.2l2-0.1v4.4c-1.2,0.2-1.9,0.3-3,0.3
			c-1.9,0-4.1-0.1-5.3-1.9c-0.8-1.1-0.8-2.5-0.8-4.3v-9.3h-2.8V181h2.8V175.1z"/>
		<path fill="#594A42" d="M130,178.7c0-1,0.1-2.2,0.8-3.3c0.7-1,2.3-1.9,4.9-1.9c1.1,0,2.3,0.2,3.4,0.3v4.2h-1.4
			c-2.1,0-2.2,0.4-2.2,3h3.8v3.5h-3.8v15.3h-5.6v-15.3h-3v-3.5h3V178.7z"/>
		<path fill="#594A42" d="M159.7,190.2c0,4.9-2.8,10.2-10.3,10.2c-5.4,0-10.3-3.1-10.3-10.2c0-5.9,3.7-10.5,11.1-10.1
			C158,180.5,159.7,186.7,159.7,190.2z M145.7,186.4c-0.7,1.1-1,2.4-1,3.7c0,3.1,1.5,5.7,4.6,5.7c3,0,4.6-2.5,4.6-5.5
			c0-2.1-0.5-3.8-1.6-4.8c-1.2-1.1-2.5-1.1-3.3-1.1C147.5,184.6,146.5,185.2,145.7,186.4z"/>
		<path fill="#594A42" d="M181.9,190.2c0,4.9-2.8,10.2-10.3,10.2c-5.4,0-10.3-3.1-10.3-10.2c0-5.9,3.7-10.5,11.1-10.1
			C180.1,180.5,181.9,186.7,181.9,190.2z M167.9,186.4c-0.7,1.1-1,2.4-1,3.7c0,3.1,1.5,5.7,4.6,5.7c3.1,0,4.6-2.5,4.6-5.5
			c0-2.1-0.5-3.8-1.6-4.8c-1.2-1.1-2.5-1.1-3.3-1.1C169.6,184.6,168.7,185.2,167.9,186.4z"/>
		<path fill="#594A42" d="M202,173.9v25.9h-5.1V198c-0.9,0.9-2.4,2.3-5.2,2.3c-1.9,0-3.9-0.7-5.4-2.2c-2.8-2.7-2.8-6.5-2.8-7.8
			c0-7.2,4.1-10.2,8-10.2c2.5,0,4,1.2,5.1,1.9v-8.2H202z M196.7,190.2c0-0.9,0-3.3-1.2-4.7c-0.3-0.3-1.1-1.1-2.2-1.1c-4,0-4,5-4,5.9
			c0,2.7,0.7,5.9,3.6,5.9c0.6,0,1.3-0.2,1.8-0.6C196.7,194.2,196.7,191.3,196.7,190.2z"/>
	</g>
	<g>
		<path fill="#594A42" d="M223.4,198.1H220v-7.7h-7.6V187h7.6v-7.6h3.4v7.6h7.7v3.4h-7.7V198.1z"/>
	</g>
</g>
</svg>
