<?xml version="1.0" encoding="utf-8"?>
<!-- Generator: Adobe Illustrator 18.0.0, SVG Export Plug-In . SVG Version: 6.00 Build 0)  -->
<!DOCTYPE svg PUBLIC "-//W3C//DTD SVG 1.1//EN" "http://www.w3.org/Graphics/SVG/1.1/DTD/svg11.dtd">
<svg version="1.1" id="Layer_1" xmlns="http://www.w3.org/2000/svg" xmlns:xlink="http://www.w3.org/1999/xlink" x="0px" y="0px"
	 viewBox="0 0 203.1 120.2" enable-background="new 0 0 203.1 120.2" xml:space="preserve">
<g>
	<g>
		<g>
			<g>
				<g>
					<path fill="#5D574C" d="M60.9,61c0,8.4-0.6,15.9-3.3,20.7c-4.4,7.1-14.6,14-28.5,14C9.5,95.7,2.1,83.9,1,75.9h19.5
						c2.4,5.6,8.7,5.6,9.8,5.6c2.1,0,13.7,0.9,13.7-17.1v-1.7h-0.2c-1.7,3.2-6.6,6.9-15.4,6.9C13.1,69.6,0,58,0,40
						C0,20.7,13.8,9.7,28.4,9.7c6.3,0,12.5,0.8,15.5,5.7h0.2v-3.8h16.8V61z M30.3,53.9c8.1,0,13.8-5.9,13.8-14
						c0-9-6.2-14.5-13.7-14.5c-7.2,0-13.6,5.8-13.6,14C16.8,48.4,23.3,53.9,30.3,53.9z"/>
					<path fill="#5D574C" d="M95,9.7c20.5,0,30.3,16.1,30.3,29.9c0,13.8-9.8,29.9-30.3,29.9c-20.5,0-30.3-16.1-30.3-29.9
						C64.7,25.8,74.5,9.7,95,9.7z M95,53.8c7.3,0,13.5-6,13.5-14.2c0-8.2-6.2-14.2-13.5-14.2c-7.3,0-13.5,6-13.5,14.2
						C81.5,47.8,87.7,53.8,95,53.8z"/>
					<path fill="#5D574C" d="M147.8,45.5h-17.3V0h17.3V45.5z M147.8,67.8h-17.3V50.5h17.3V67.8z"/>
				</g>
			</g>
		</g>
		<g>
			<path fill="#5D574C" d="M151.4,65.1L151.4,65.1c0-1.9,1.5-3.5,3.5-3.5c1.9,0,3.5,1.6,3.5,3.5v0c0,1.9-1.5,3.5-3.5,3.5
				C152.9,68.5,151.4,66.9,151.4,65.1z M157.7,65L157.7,65c0-1.6-1.3-2.9-2.9-2.9c-1.6,0-2.9,1.3-2.9,2.9v0c0,1.6,1.2,2.9,2.9,2.9
				C156.5,68,157.7,66.6,157.7,65z M153.6,63.4h1.4c0.7,0,1.2,0.3,1.2,1c0,0.5-0.3,0.8-0.7,0.9l0.8,1.1h-0.9l-0.7-1h-0.5v1h-0.8
				V63.4z M155,64.9c0.3,0,0.5-0.2,0.5-0.4c0-0.3-0.2-0.4-0.5-0.4h-0.6v0.9H155z"/>
		</g>
	</g>
	<g>
		<path fill="#F37021" d="M67.6,90.9h0.5c0.2,0,0.4-0.2,0.5-0.4l1.6-7c0-0.2-0.1-0.5-0.3-0.5h-0.5l0.2-0.8c0.2-0.1,0.6-0.2,1.1-0.2
			c0.7,0,1.2,0.4,1,1.4c0.6-0.7,1.6-1.4,2.8-1.4c1.2,0,2,0.7,2,2.4c0,1.3-0.4,2.9-1.3,3.8c-0.7,0.8-1.7,1.1-2.7,1.1
			c-1,0-1.6-0.3-2-0.7L70,90.9h1l-0.2,0.8h-3.5L67.6,90.9z M74.9,84.7c0-1.1-0.5-1.5-1.2-1.5c-0.8,0-1.6,0.6-2.2,1.1L70.6,88
			c0.3,0.2,0.8,0.5,1.6,0.5C74.1,88.5,74.9,86.5,74.9,84.7z"/>
		<path fill="#F37021" d="M77.2,86.7c0-2.6,1.9-4.6,4.2-4.6c1.4,0,2.3,0.7,2.3,1.8c0,1.8-1.8,2.5-5,2.6c0,1.1,0.1,2.2,1.5,2.2
			c1,0,1.4-0.4,1.8-0.8h0.9l-0.3,1.2c-0.5,0.3-1.2,0.6-2.4,0.6C78.2,89.6,77.2,88.4,77.2,86.7z M82.3,83.9c0-0.6-0.4-1-1-1
			c-1.4,0-2.2,1.2-2.5,2.5C81.2,85.4,82.3,85,82.3,83.9z"/>
		<path fill="#F37021" d="M84.5,87.4l1-4.3h-0.9l0.2-1h0.9l0.5-2h1.5l-0.5,2h1.5l-0.2,1H87l-1,4.3c-0.2,0.8,0,1.2,0.7,1.2h0.7
			l-0.2,0.8c-0.3,0.1-0.6,0.2-1.1,0.2C84.7,89.6,84.2,88.7,84.5,87.4z"/>
		<path fill="#F37021" d="M96.2,88.1l0.9-3.8c0.2-0.7-0.1-1-0.6-1c-0.8,0-1.7,0.5-2.5,1.1l-1.2,5.2h-1.2c-0.2,0-0.3-0.2-0.3-0.4
			l1.3-5.4c0-0.2-0.1-0.5-0.3-0.5h-0.5l0.2-0.8c0.2-0.1,0.6-0.2,1.2-0.2c0.7,0,1.2,0.4,1,1.5c0.8-0.7,1.9-1.5,3.1-1.5
			s1.6,0.8,1.4,1.9l-1,4.2c-0.1,0.3,0.1,0.5,0.3,0.5h0.4l-0.2,0.8c-0.2,0.1-0.6,0.2-1,0.2C96.4,89.6,96,88.9,96.2,88.1z"/>
		<path fill="#F37021" d="M100,87.4l0.9-3.8c0.1-0.2-0.1-0.5-0.3-0.5h-0.4l0.2-0.8c0.2-0.1,0.6-0.2,1.1-0.2c0.9,0,1.2,0.6,1,1.5
			l-0.9,3.7c-0.2,0.7,0.1,1.1,0.7,1.1c0.7,0,1.5-0.4,2.2-1l1.2-5.3h1.2c0.2,0,0.3,0.2,0.3,0.5l-1.3,5.5c-0.1,0.3,0.1,0.5,0.3,0.5
			h0.4l-0.2,0.8c-0.3,0.1-0.6,0.2-1,0.2c-0.8,0-1.2-0.4-1.1-1.3c-0.8,0.7-1.8,1.3-2.8,1.3C100.2,89.6,99.7,88.7,100,87.4z"/>
		<path fill="#F37021" d="M108.1,87.4l1-4.3h-0.9l0.2-1h0.9l0.5-2h1.5l-0.5,2h1.5l-0.2,1h-1.5l-1,4.3c-0.2,0.8,0,1.2,0.7,1.2h0.7
			l-0.2,0.8c-0.3,0.1-0.6,0.2-1.1,0.2C108.3,89.6,107.8,88.7,108.1,87.4z"/>
		<path fill="#F37021" d="M112.5,89l1.3-5.4c0-0.2-0.1-0.5-0.3-0.5h-0.5l0.2-0.8c0.2-0.1,0.6-0.2,1.1-0.2c0.7,0,1.2,0.5,1,1.5
			c0.6-0.8,1.4-1.5,2.3-1.5c0.2,0,0.3,0,0.4,0.1l-0.3,1.2h-0.3c-1.1,0-1.7,0.4-2.3,1.1l-1.1,5h-1.1C112.5,89.5,112.4,89.3,112.5,89z
			"/>
		<path fill="#F37021" d="M118.3,88l1-4.5c0.1-0.2-0.1-0.5-0.3-0.5h-0.5l0.2-0.8c0.2-0.1,0.6-0.2,1.2-0.2c0.8,0,1.2,0.5,1,1.4
			l-1.1,4.7c-0.1,0.2,0.1,0.5,0.3,0.5h0.4l-0.2,0.8c-0.2,0.1-0.6,0.2-1,0.2C118.4,89.6,118.1,88.9,118.3,88z M119.9,80.5
			c0-0.5,0.4-0.9,0.9-0.9c0.5,0,0.8,0.4,0.8,0.8c0,0.5-0.4,0.9-0.9,0.9C120.2,81.4,119.9,81,119.9,80.5z"/>
		<path fill="#F37021" d="M122.1,87.4l1-4.3h-0.9l0.2-1h0.9l0.5-2h1.5l-0.5,2h1.5l-0.2,1h-1.5l-1,4.3c-0.2,0.8,0,1.2,0.7,1.2h0.7
			l-0.2,0.8c-0.3,0.1-0.6,0.2-1.1,0.2C122.3,89.6,121.8,88.7,122.1,87.4z"/>
		<path fill="#F37021" d="M126.7,88l1-4.5c0.1-0.2-0.1-0.5-0.3-0.5h-0.5l0.2-0.8c0.2-0.1,0.6-0.2,1.2-0.2c0.8,0,1.2,0.5,1,1.4
			l-1.1,4.7c-0.1,0.2,0.1,0.5,0.4,0.5h0.4l-0.2,0.8c-0.2,0.1-0.6,0.2-1,0.2C126.8,89.6,126.5,88.9,126.7,88z M128.3,80.5
			c0-0.5,0.4-0.9,0.9-0.9c0.5,0,0.8,0.4,0.8,0.8c0,0.5-0.4,0.9-0.9,0.9C128.6,81.4,128.3,81,128.3,80.5z"/>
		<path fill="#F37021" d="M130.1,86.5c0-2.6,1.8-4.5,4.1-4.5c1.9,0,3.1,1.2,3.1,3c0,2.6-1.8,4.5-4,4.5
			C131.2,89.5,130.1,88.4,130.1,86.5z M135.7,84.9c0-1.2-0.5-1.9-1.6-1.9c-1.5,0-2.5,1.7-2.5,3.6c0,1.2,0.5,1.9,1.6,1.9
			C134.8,88.6,135.7,86.9,135.7,84.9z"/>
		<path fill="#F37021" d="M142.7,88.1l0.9-3.8c0.2-0.7-0.1-1-0.6-1c-0.8,0-1.7,0.5-2.5,1.1l-1.2,5.2h-1.2c-0.2,0-0.3-0.2-0.3-0.4
			l1.3-5.4c0-0.2-0.1-0.5-0.3-0.5h-0.5l0.2-0.8c0.2-0.1,0.6-0.2,1.2-0.2c0.7,0,1.2,0.4,1,1.5c0.8-0.7,1.9-1.5,3.1-1.5
			c1.2,0,1.6,0.8,1.4,1.9l-1,4.2c-0.1,0.3,0.1,0.5,0.3,0.5h0.4l-0.2,0.8c-0.2,0.1-0.6,0.2-1,0.2C142.8,89.6,142.5,88.9,142.7,88.1z"
			/>
		<path fill="#F37021" d="M150,88.7c-0.3,0.4-0.7,0.7-0.8,0.7h-0.7l1.9-8.5c0-0.2-0.1-0.4-0.3-0.4h-0.5l0.2-0.9h2.1
			c0.2,0,0.3,0.1,0.2,0.4l-0.8,3.3c0.6-0.6,1.5-1.3,2.6-1.3c1.2,0,2,0.8,2,2.4c0,1.4-0.4,2.9-1.4,3.9c-0.7,0.8-1.6,1.1-2.7,1.1
			C151,89.6,150.4,89.2,150,88.7z M154.5,84.7c0-1.1-0.5-1.6-1.1-1.6c-0.8,0-1.6,0.5-2.2,1.1l-0.9,3.9c0.3,0.2,0.7,0.5,1.5,0.5
			C153.7,88.6,154.5,86.6,154.5,84.7z"/>
		<path fill="#F37021" d="M156.4,91.4l0.3-1.1h0.9c0.3,0.4,0.7,0.6,1.5,0.6c1.2,0,1.8-0.5,2.1-1.4l0.3-1.5c-0.8,0.7-1.7,1.2-2.7,1.2
			c-1.2,0-1.8-0.8-1.6-2.1l0.8-3.6c0.1-0.2-0.1-0.5-0.3-0.5h-0.4l0.2-0.8c0.2-0.1,0.6-0.2,1.1-0.2c0.9,0,1.2,0.6,1,1.5l-0.8,3.5
			c-0.2,0.7,0.1,1.1,0.7,1.1c0.7,0,1.5-0.4,2.2-1l1.1-5h1.2c0.2,0,0.3,0.2,0.3,0.5l-1.6,6.8c-0.4,1.7-1.6,2.5-3.7,2.5
			C157.6,91.9,156.9,91.6,156.4,91.4z"/>
	</g>
	<g>
		<g>
			<g>
				<path fill="#F37021" d="M96.5,98.2c-4.8,0-8.5,3.2-8.5,8.2c0,5,3.6,8.5,8.5,8.5c2.9,0,5.6-1.2,7.3-3.2c0.5-0.6,0.5-1.6-0.7-1.8
					c0,0-1.9-0.3-2.2-0.4c-0.5-0.1-1.1-0.3-1.8,0.4c-0.5,0.6-1.5,1-2.4,1c-1.2,0-2.3-0.8-2.7-1.9c-0.2-0.5,0-1,0.6-1h8.9
					c0.8,0,1.4-0.6,1.4-1.4C104.9,101.5,101.4,98.2,96.5,98.2z M98,104.7h-3c-0.5,0-0.8-0.4-0.5-1c0.4-1,1.2-1.5,2-1.5l0,0h0h0
					c0.9,0,1.6,0.5,2.1,1.5C98.8,104.3,98.4,104.7,98,104.7z"/>
				<path fill="#F37021" d="M115.5,98.6h-1.9c0-1.2,0-2,0-2c0-0.8-0.6-1.4-1.4-1.4h-3.4c-0.8,0-1.4,0.6-1.4,1.4v2l0,0
					c0,0-0.8,0-0.8,0c-0.7,0-1.3,0.6-1.3,1.4v1.8c0,0.7,0.6,1.3,1.3,1.4c0,0,0.8,0,0.8,0l0,0v6.6l0,0c0,3.1,2.3,5.1,5.1,5.1
					c1.3,0,1.7,0,2.5-0.2c0.8-0.2,1.4-0.7,1.4-1.4v-1.4c0-0.8-0.6-1.4-1.4-1.4c-0.6,0-1.4-0.1-1.4-1.1c0-0.3,0-2.9,0-6.1h1.9
					c0.8,0,1.4-0.6,1.4-1.4V100C116.9,99.2,116.2,98.6,115.5,98.6z"/>
				<path fill="#F37021" d="M78.4,98.2c-1.6,0-3,0.4-4.2,1.2c-0.2-0.5-0.7-0.8-1.2-0.8h-3.4c-0.8,0-1.4,0.6-1.4,1.4v18.8
					c0,0.8,0.6,1.4,1.4,1.4h3.4c0.8,0,1.4-0.6,1.4-1.4v-5.1c-3.1-2.5-3.6-8.1,0.4-10.4c4.4-2.5,7.9,2.1,4.1,4.7
					c-2.4,1.7-2.4,4-0.4,5.1c0.1,0.1,0.2,0.1,0.2,0.2c0,0.1-0.1,0.2-0.2,0.1c-2-0.5-3.4-2.3-3.4-4.4c0-0.9,0.3-1.8,0.8-2.5
					c0,0,0.1-0.1,0.1-0.1c0-0.1-0.1-0.2-0.2-0.2c0,0-0.1,0-0.1,0.1c-1,0.9-1.6,2.2-1.6,3.6c0,2.6,1.9,4.9,4.6,4.9c0,0,0,0,0,0
					c4.6,0,8.3-3.7,8.3-8.3C86.7,101.9,83,98.2,78.4,98.2z"/>
			</g>
		</g>
		<g>
			<path fill="#5D574C" d="M145.6,112.7V99.6h-3.8v1.4h1.9v10c-1.3,1.1-3.4,2.4-5.6,2.4c-1.8,0-2.6-0.8-2.6-2.7v-11h-3.7v1.4h1
				c0.3,0,0.7,0.4,0.7,0.7v9.4c0,3.2,2.2,3.8,4.1,3.8c2.5,0,4.6-1.3,6.1-2.5v1.3c0,0.7,0.1,1.1,0.6,1.1h2.9v-1.3h-0.9
				C146,113.4,145.6,113,145.6,112.7z"/>
			<path fill="#5D574C" d="M157.1,101.2c0.3,0,0.6,0,0.6,0l0.2,0v-1.6l-0.1,0c0,0-0.3-0.1-0.8-0.1c-2.2,0-3.8,1.4-4.8,2.7v-1.4
				c0-0.7-0.1-1.2-0.7-1.2h-3v1.4h1.1c0.3,0,0.7,0.4,0.7,0.7v11.1c0,0.3-0.3,0.7-0.7,0.7h-0.9v1.3h5.8v-1.3h-2.3v-9.6
				C153.8,102.2,155,101.2,157.1,101.2z"/>
			<path fill="#5D574C" d="M202.1,113.4c-0.3,0-0.7-0.3-0.7-0.7v-9.4c0-3.4-2.4-3.8-4.1-3.8c-2.6,0-4.9,1.5-6.2,2.6v-1.3
				c0-0.7-0.1-1.1-0.7-1.1h-3.1v1.4h1.1c0.3,0,0.7,0.4,0.7,0.7v11.1c0,0.3-0.3,0.7-0.7,0.7h-0.9v1.3h5.7v-1.3h-2.1v-10
				c2-1.6,3.8-2.4,5.6-2.4c1.6,0,2.7,0.5,2.7,2.7v9.6h-2.1v1.3h5.7v-1.3H202.1z"/>
			<path fill="#5D574C" d="M185.2,113.4c-0.7,0-1-0.3-1-1.1v-8.6c0-2.9-1.7-4.3-5.2-4.3c-2.7,0-4.4,0.4-5.6,0.9l0,0l0,0v2.8h1.4
				l0-0.1c0.1-1.3,0.1-2.1,4-2.1c2.4,0,3.4,0.9,3.4,2.9v2.5c-1.1-0.3-2.3-0.4-3.7-0.4c-3.9,0-6.1,1.6-6.1,4.5c0,2.8,1.9,4.5,5.1,4.5
				c1.9,0,3.5-0.7,4.7-2.1c0,1.3,0.9,2,2.4,2c0.6,0,1.1-0.2,1.4-0.3l0.1,0v-1.2l-0.2,0C185.9,113.3,185.6,113.4,185.2,113.4z
				 M182.3,111.1c-1,1.2-2.2,2.3-4.5,2.3c-2.3,0-3.4-1-3.4-3c0-2,1.5-3.1,4.5-3.1c1.1,0,2.2,0.1,3.4,0.4V111.1z"/>
			<path fill="#5D574C" d="M125.4,99.4c-4.6,0-7.5,3-7.5,7.7c0,4.9,2.7,7.7,7.3,7.7c3.6,0,5.1-1.6,5.1-1.6v-2.1c0,0-2,2.3-5.1,2.3
				c-3.4,0-5.3-2.2-5.3-6.3c0-3.9,2.1-6.3,5.5-6.3c1.1,0,1.9,0.1,2.6,0.4c0.6,0.3,0.9,0.4,1,1.8l0,0.1h1.4v-2.8l-0.1,0
				C129,99.7,127.4,99.4,125.4,99.4z"/>
			<path fill="#5D574C" d="M164.8,99.4c-4.2,0-7.1,3.1-7.1,7.8c0,4.8,2.7,7.6,7.4,7.6l0,0c4.1,0,5.7-1.6,5.7-1.6v-2.1
				c0,0-2.3,2.3-5.6,2.3l0,0c-3.6,0-5.5-2.1-5.6-6.1h11.6v-0.2c0,0,0-0.1,0-0.1c0-0.1,0-0.4,0-0.6C171.3,102,169,99.4,164.8,99.4z
				 M159.8,105.9c0.3-3.2,2.2-5.1,5-5.1c3,0,4.4,1.7,4.6,5.1H159.8z"/>
		</g>
	</g>
</g>
</svg>
