<?xml version="1.0" encoding="utf-8"?>
<!-- Generator: Adobe Illustrator 18.0.0, SVG Export Plug-In . SVG Version: 6.00 Build 0)  -->
<!DOCTYPE svg PUBLIC "-//W3C//DTD SVG 1.1//EN" "http://www.w3.org/Graphics/SVG/1.1/DTD/svg11.dtd">
<svg version="1.1" id="Слой_1" xmlns="http://www.w3.org/2000/svg" xmlns:xlink="http://www.w3.org/1999/xlink" x="0px" y="0px"
	 viewBox="-0.1 21.7 100.1 56.6" enable-background="new -0.1 21.7 100.1 56.6" xml:space="preserve">
<path fill="#FFFFFF" d="M86.1,57.7c3.3,3.2,6.8,6.3,9.8,9.9c1.3,1.6,2.5,3.2,3.5,5.1c1.4,2.6,0.1,5.5-2.2,5.6H82.5
	c-3.8,0.3-6.7-1.2-9.3-3.8c-2-2.1-3.9-4.2-5.8-6.4c-0.8-0.9-1.6-1.7-2.6-2.3c-2-1.3-3.7-0.9-4.8,1.2s-1.4,4.4-1.5,6.8
	c-0.2,3.4-1.2,4.3-4.6,4.5c-7.4,0.3-14.3-0.8-20.9-4.5c-5.7-3.3-10.1-7.9-14-13.1C11.4,50.4,5.6,39.2,0.4,27.7c-1.1-2.6-0.3-4,2.5-4
	c4.8-0.1,9.5-0.1,14.3,0c1.9,0,3.2,1.1,3.9,3c2.6,6.3,5.7,12.3,9.7,17.9c1.1,1.5,2.1,3,3.7,4c1.7,1.1,3,0.8,3.8-1.1
	c0.5-1.2,0.7-2.5,0.8-3.7c0.4-4.4,0.4-8.8-0.2-13.2c-0.4-2.8-1.9-4.5-4.7-5c-1.4-0.2-1.2-0.8-0.5-1.6c1.3-1.4,2.4-2.3,4.6-2.3h16.5
	c2.6,0.5,3.2,1.7,3.5,4.3v18.3c0,1,0.5,4,2.3,4.7c1.4,0.5,2.4-0.7,3.3-1.6c3.9-4.2,6.7-9.1,9.3-14.3c1.1-2.3,2.1-4.6,3-6.9
	c0.7-1.7,1.8-2.6,3.7-2.5h15.9c0.5,0,0.9,0,1.4,0.1c2.7,0.5,3.4,1.6,2.6,4.2c-1.3,4.1-3.8,7.5-6.3,10.9c-2.6,3.7-5.5,7.2-8.1,10.9
	C82.9,53.1,83.1,54.8,86.1,57.7L86.1,57.7z"/>
</svg>
