<?xml version="1.0" encoding="utf-8"?>
<!-- Generator: Adobe Illustrator 18.0.0, SVG Export Plug-In . SVG Version: 6.00 Build 0)  -->
<!DOCTYPE svg PUBLIC "-//W3C//DTD SVG 1.1//EN" "http://www.w3.org/Graphics/SVG/1.1/DTD/svg11.dtd">
<svg version="1.1" id="Режим_изоляции"
	 xmlns="http://www.w3.org/2000/svg" xmlns:xlink="http://www.w3.org/1999/xlink" x="0px" y="0px" viewBox="0 0 100 100"
	 enable-background="new 0 0 100 100" xml:space="preserve">
<g>
	<path fill="#FFFFFF" d="M17.7,98L24,85.6c-5.5-1.9-10.7-6.5-10.3-12.8c0.2-2.7,1.1-5.5,2.9-8.6l13-22.1c2.7-4.8,4.2-9.5,4.6-14.3
		c0.8-11-6.3-21.3-17.9-25.9L9.9,14.4c5.5,1.9,10.9,6.5,10.5,12.8c-0.2,2.7-1.1,5.5-2.9,8.6l-13,21.9C1.9,62.4,0.4,67.1,0,71.9
		C-0.8,83,6.3,93.2,17.7,98z"/>
	<path fill="#FFFFFF" d="M50.7,98L57,85.6c-5.5-1.9-10.7-6.5-10.3-12.8c0.2-2.7,1.1-5.5,2.9-8.6l13-22.1c2.7-4.8,4.2-9.5,4.6-14.3
		c0.8-11-6.3-21.3-17.9-25.9l-6.3,12.4c5.5,1.9,10.9,6.5,10.5,12.8c-0.2,2.7-1.1,5.5-2.9,8.6l-13,22.1c-2.7,4.8-4.2,9.5-4.6,14.3
		C32.2,83,39.2,93.2,50.7,98z"/>
	<path fill="#FFFFFF" d="M83.6,98l6.3-12.4c-5.5-1.9-10.7-6.5-10.3-12.8c0.2-2.7,1.1-5.5,2.9-8.6l13-22.1c2.7-4.8,4.2-9.5,4.6-14.3
		c1-11-6.3-21.3-17.7-25.9L76,14.4c5.5,1.9,10.9,6.5,10.5,12.8c-0.2,2.7-1.1,5.5-2.9,8.6l-13,22.1c-2.7,4.8-4.2,9.5-4.6,14.3
		C65.1,83,72.2,93.2,83.6,98z"/>
</g>
</svg>
