<?xml version="1.0" encoding="utf-8"?>
<!-- Generator: Adobe Illustrator 18.0.0, SVG Export Plug-In . SVG Version: 6.00 Build 0)  -->
<!DOCTYPE svg PUBLIC "-//W3C//DTD SVG 1.1//EN" "http://www.w3.org/Graphics/SVG/1.1/DTD/svg11.dtd">
<svg version="1.1" id="Режим_изоляции"
	 xmlns="http://www.w3.org/2000/svg" xmlns:xlink="http://www.w3.org/1999/xlink" x="0px" y="0px" viewBox="21.8 0 56.4 100"
	 enable-background="new 21.8 0 56.4 100" xml:space="preserve">
<g>
	<path fill="#FFFFFF" d="M78.2,23.9c0,12.4-7.4,19.6-16.5,27.9c-5.6,5.2-6.1,8.5-6.1,12.2H41.7c0-9.2,1.1-14.4,7.8-21.1
		c8.2-8.3,12.4-12,12.4-19c0-5.6-4.5-8.3-10.1-8.3c-4.6,0-11.1,1.9-16.4,10.8l-13.5-7.9C29.2,5.7,41,0,52.3,0
		C68.1,0,78.2,8.6,78.2,23.9z M49.5,75.8c6,0,11.5,4.7,11.5,12.2c0,7.6-5.3,12-11.5,12c-6,0-11.5-4.7-11.5-12.2
		C37.9,80.1,43.2,75.8,49.5,75.8z"/>
</g>
</svg>
