<?xml version="1.0" encoding="utf-8"?>
<!-- Generator: Adobe Illustrator 18.0.0, SVG Export Plug-In . SVG Version: 6.00 Build 0)  -->
<!DOCTYPE svg PUBLIC "-//W3C//DTD SVG 1.1//EN" "http://www.w3.org/Graphics/SVG/1.1/DTD/svg11.dtd">
<svg version="1.1" id="Режим_изоляции"
	 xmlns="http://www.w3.org/2000/svg" xmlns:xlink="http://www.w3.org/1999/xlink" x="0px" y="0px" viewBox="0 0 139.1 246.6"
	 enable-background="new 0 0 139.1 246.6" xml:space="preserve">
<g>
	<path fill="#F3B535" d="M139.1,58.9c0,30.5-18.2,48.3-40.8,68.8c-13.7,12.7-15.1,20.9-15.1,30.1H49c0-22.6,2.7-35.6,19.2-52.1
		c20.2-20.5,30.5-29.5,30.5-46.9c0-13.7-11-20.5-25-20.5c-11.3,0-27.4,4.8-40.4,26.7L0,45.6C18.2,14,47.3,0,75.3,0
		C114.1,0,139.1,21.2,139.1,58.9z M68.2,187c14.7,0,28.4,11.6,28.4,30.1c0,18.8-13,29.5-28.4,29.5c-14.7,0-28.4-11.6-28.4-30.1
		C39.7,197.6,52.7,187,68.2,187z"/>
</g>
</svg>
