<?xml version="1.0" encoding="utf-8"?>
<!-- Generator: Adobe Illustrator 18.0.0, SVG Export Plug-In . SVG Version: 6.00 Build 0)  -->
<!DOCTYPE svg PUBLIC "-//W3C//DTD SVG 1.1//EN" "http://www.w3.org/Graphics/SVG/1.1/DTD/svg11.dtd">
<svg version="1.1" id="Режим_изоляции"
	 xmlns="http://www.w3.org/2000/svg" xmlns:xlink="http://www.w3.org/1999/xlink" x="0px" y="0px" viewBox="0 0 132.9 147.1"
	 enable-background="new 0 0 132.9 147.1" xml:space="preserve">
<g>
	<g>
		<path fill="#E6664B" d="M121.1,15.7c0,8.1-6.5,15.7-16.7,15.7c-10.4,0-16.3-7.2-16.3-15.7C88.1,7.5,94.5,0,104.8,0
			C115.2,0,121.1,7.2,121.1,15.7z"/>
		<path fill="#E6664B" d="M132.9,106V65.6H84H72.9H51.7H41.6H20.3H0v22.3h20.3h21.3h10.1V106c0,24.9,16.9,41.1,40.6,41.1
			S132.9,130.9,132.9,106z M72.9,102.8V87.8h38.7v14.9c0,15.1-8,22.1-19.4,22.1S72.9,117.8,72.9,102.8z"/>
	</g>
	<rect x="7.5" y="6.4" fill="#E6664B" width="37.8" height="18.6"/>
</g>
</svg>
