<?xml version="1.0" encoding="utf-8"?>
<!-- Generator: Adobe Illustrator 18.0.0, SVG Export Plug-In . SVG Version: 6.00 Build 0)  -->
<!DOCTYPE svg PUBLIC "-//W3C//DTD SVG 1.1//EN" "http://www.w3.org/Graphics/SVG/1.1/DTD/svg11.dtd">
<svg version="1.1" id="Режим_изоляции"
	 xmlns="http://www.w3.org/2000/svg" xmlns:xlink="http://www.w3.org/1999/xlink" x="0px" y="0px" viewBox="0 0 71.2 66.2"
	 enable-background="new 0 0 71.2 66.2" xml:space="preserve">
<path fill="#F3BBBE" d="M33,64.5l2.6,1.6l2.6-1.6c22.2-14.2,33-27.9,33-42.2C71.2,9.4,62.3,0,50,0C44.2,0,39.5,1.9,36,5.7l-0.5,0.5
	l-0.5-0.5C31.7,1.9,27,0,21.2,0C8.9,0,0,9.4,0,22.5C0,36.6,10.8,50.4,33,64.5z M21.2,9.6c0.3,0,0.7,0,1.1,0.1c0.2,0,0.3,0,0.4,0
	c4.8,0.5,10.4,3.2,12.9,8.9c2.5-5.7,8.1-8.3,12.9-8.9c0.1,0,0.2,0,0.4,0c0.5,0,0.8-0.1,1.1-0.1c7.1,0,11.6,5.1,11.6,12.9
	c0,6.8-4.4,17.9-25.7,32.1l-0.3,0.2l-0.3-0.2C14,40.3,9.6,29.2,9.6,22.4C9.6,14.6,14.1,9.6,21.2,9.6z"/>
</svg>
