<?xml version="1.0" encoding="utf-8"?>
<!-- Generator: Adobe Illustrator 18.0.0, SVG Export Plug-In . SVG Version: 6.00 Build 0)  -->
<!DOCTYPE svg PUBLIC "-//W3C//DTD SVG 1.1//EN" "http://www.w3.org/Graphics/SVG/1.1/DTD/svg11.dtd">
<svg version="1.1" id="Режим_изоляции"
	 xmlns="http://www.w3.org/2000/svg" xmlns:xlink="http://www.w3.org/1999/xlink" x="0px" y="0px" viewBox="0 0 100 100"
	 enable-background="new 0 0 100 100" xml:space="preserve">
<path fill="#FFFFFF" d="M46.3,94.1l3.7,2.2l3.7-2.2C84.8,74.2,100,54.9,100,34.8c0-18.1-12.5-31.3-29.8-31.3c-8.1,0-14.7,2.7-19.7,8
	l-0.7,0.7l-0.7-0.7c-4.6-5.3-11.2-8-19.4-8C12.5,3.5,0,16.7,0,35.1C0,54.9,15.2,74.3,46.3,94.1z M29.8,17c0.4,0,1,0,1.5,0.1
	c0.3,0,0.4,0,0.6,0c6.7,0.7,14.6,4.5,18.1,12.5c3.5-8,11.4-11.7,18.1-12.5c0.1,0,0.3,0,0.6,0c0.7,0,1.1-0.1,1.5-0.1
	c10,0,16.3,7.2,16.3,18.1c0,9.6-6.2,25.1-36.1,45.1L50,80.5l-0.4-0.3C19.7,60.1,13.5,44.5,13.5,35C13.5,24,19.8,17,29.8,17z"/>
</svg>
