<?xml version="1.0" encoding="utf-8"?>
<!-- Generator: Adobe Illustrator 18.0.0, SVG Export Plug-In . SVG Version: 6.00 Build 0)  -->
<!DOCTYPE svg PUBLIC "-//W3C//DTD SVG 1.1//EN" "http://www.w3.org/Graphics/SVG/1.1/DTD/svg11.dtd">
<svg version="1.1" id="Режим_изоляции"
	 xmlns="http://www.w3.org/2000/svg" xmlns:xlink="http://www.w3.org/1999/xlink" x="0px" y="0px" viewBox="0 0 100 100"
	 enable-background="new 0 0 100 100" xml:space="preserve">
<g>
	<path fill="#FFFFFF" d="M86.9,10.7c0,5.5-4.4,10.7-11.3,10.7c-7.1,0-11.1-4.9-11.1-10.7C64.5,5.2,68.9,0,75.9,0
		C82.9,0,86.9,4.9,86.9,10.7z M35.5,10.7c0,5.5-4.4,10.7-11.3,10.7c-7.1,0-11.1-4.9-11.1-10.7C13.1,5.2,17.5,0,24.4,0
		C31.5,0,35.5,4.9,35.5,10.7z"/>
	<g>
		<path fill="#FFFFFF" d="M46.5,66.1h12.5c0,6.1,0.7,10.4,2.1,12.5c2.4,3.9,6.3,5.7,11.6,5.7c4.1,0,7.5-1.3,10.1-4.1
			c2.7-2.7,4-6.3,4-10.5c0-4-0.9-7.2-2.9-9.5c-2-2.1-5.3-3.7-10.1-4.8V40.9c9.1,1.5,15.7,4.5,20,9.3c4,4.5,6.1,11.1,6.1,19.5
			c0,8.5-2.5,15.3-7.5,20.8c-4.9,5.3-11.3,8-19.2,8c-8.8,0-15.7-3.5-20.7-10.5c-4.7,8-12.4,12-22.9,12c-8.7,0-15.7-2.9-21.3-8.8
			C2.8,85.5,0,78,0,68.8c0-11.6,4.3-20.3,12.8-26c3.6-2.4,8.5-3.9,14.9-4.4v14.1c-4.7,0.8-8.3,2.5-10.8,5.5
			c-2.5,2.9-3.7,6.7-3.7,11.3s1.6,8.7,4.7,11.7c3.2,3.1,7.3,4.7,12.3,4.7c6.5,0,11.2-2.3,13.9-6.9C45.7,76,46.5,71.9,46.5,66.1z"/>
	</g>
</g>
</svg>
