<?xml version="1.0" encoding="utf-8"?>
<!-- Generator: Adobe Illustrator 18.0.0, SVG Export Plug-In . SVG Version: 6.00 Build 0)  -->
<!DOCTYPE svg PUBLIC "-//W3C//DTD SVG 1.1//EN" "http://www.w3.org/Graphics/SVG/1.1/DTD/svg11.dtd">
<svg version="1.1" id="Режим_изоляции"
	 xmlns="http://www.w3.org/2000/svg" xmlns:xlink="http://www.w3.org/1999/xlink" x="0px" y="0px" viewBox="0 0 75 75"
	 enable-background="new 0 0 75 75" xml:space="preserve">
<g>
	<path fill="#CC7274" d="M65.2,8c0,4.1-3.3,8-8.5,8c-5.3,0-8.3-3.7-8.3-8c0-4.1,3.3-8,8.5-8C62.2,0,65.2,3.7,65.2,8z M26.6,8
		c0,4.1-3.3,8-8.5,8c-5.3,0-8.3-3.7-8.3-8c0-4.1,3.3-8,8.5-8C23.6,0,26.6,3.7,26.6,8z"/>
	<g>
		<path fill="#CC7274" d="M34.9,49.6h9.4c0,4.6,0.5,7.8,1.6,9.4c1.8,2.9,4.7,4.3,8.7,4.3c3.1,0,5.6-1,7.6-3.1c2-2,3-4.7,3-7.9
			c0-3-0.7-5.4-2.2-7.1c-1.5-1.6-4-2.8-7.6-3.6V30.7c6.8,1.1,11.8,3.4,15,7C73.4,41.1,75,46,75,52.3c0,6.4-1.9,11.5-5.6,15.6
			c-3.7,4-8.5,6-14.4,6c-6.6,0-11.8-2.6-15.5-7.9c-3.5,6-9.3,9-17.2,9c-6.5,0-11.8-2.2-16-6.6C2.1,64.1,0,58.5,0,51.6
			c0-8.7,3.2-15.2,9.6-19.5c2.7-1.8,6.4-2.9,11.2-3.3v10.6c-3.5,0.6-6.2,1.9-8.1,4.1c-1.9,2.2-2.8,5-2.8,8.5c0,3.5,1.2,6.5,3.5,8.8
			c2.4,2.3,5.5,3.5,9.2,3.5c4.9,0,8.4-1.7,10.4-5.2C34.3,57,34.9,53.9,34.9,49.6z"/>
	</g>
</g>
</svg>
