<?xml version="1.0" encoding="utf-8"?>
<!-- Generator: Adobe Illustrator 18.0.0, SVG Export Plug-In . SVG Version: 6.00 Build 0)  -->
<!DOCTYPE svg PUBLIC "-//W3C//DTD SVG 1.1//EN" "http://www.w3.org/Graphics/SVG/1.1/DTD/svg11.dtd">
<svg version="1.1" id="Слой_1" xmlns="http://www.w3.org/2000/svg" xmlns:xlink="http://www.w3.org/1999/xlink" x="0px" y="0px"
	 viewBox="0 0 757.8 156" enable-background="new 0 0 757.8 156" xml:space="preserve">
<g>
	<g>
		<path fill="#231F20" d="M35.7,104.9c9,0,15.6,5.4,15.6,13.8c0,3.2-1.2,6.2-3.5,7.9c4.3,2.5,6.9,6.2,6.9,12.5
			c0,8.8-7.2,15.7-16.3,15.7h-35v-49.9H35.7z M16.5,123.5h19c1.4,0,2.7-1.7,2.7-3.3c0-1.3-0.8-3.3-3.2-3.3H16.5V123.5z M16.5,142.8
			h21.4c2.1,0,3.7-1.4,3.7-3.8c0-2.3-1.7-4-4.1-4h-21V142.8z"/>
		<path fill="#231F20" d="M75,104.9v37.9h32.9v12H61.7v-49.9H75z"/>
		<path fill="#231F20" d="M140.4,156c-14.9,0-28.1-10.6-28.1-26.2s13.2-26.2,28.1-26.2s28.1,10.6,28.1,26.2S155.3,156,140.4,156z
			 M140.4,144.8c8.2,0,14.7-5.8,14.7-14.9s-6.5-14.9-14.7-14.9c-8.3,0-14.8,5.8-14.8,14.9S132.1,144.8,140.4,144.8z"/>
		<path fill="#231F20" d="M230.1,125.2v29.6h-8.2l-1.6-3.2c-4.8,2.9-9.7,4.4-16.4,4.4c-15.5,0-28-10-28-26.2
			c0-16.1,12.3-26.2,28-26.2c11.8,0,19.8,4.2,25.6,13.3l-10.6,6c-3.9-5.1-7.2-7.1-15.2-7.1c-8.9,0-14.7,5.2-14.7,14.1
			c0,9,5.6,14.1,14.7,14.1c6.2,0,9.7-0.9,13.5-3.2v-4.1l-12.3-0.5v-11H230.1z"/>
		<path fill="#231F20" d="M285.2,104.9v12h-32.7v6.6h29.3v12h-29.3v7h33.8v12.3h-47.1v-49.9H285.2z"/>
		<path fill="#231F20" d="M323.8,104.9c12,0,20.8,8,20.8,19.9c0,7.4-3.4,13.1-9,16.4l7.6,13.6h-14.4l-5.7-10.6h-15.5v10.6h-13.3
			v-49.9H323.8z M307.6,132h15.7c4.7,0,8-2.4,8-7.3c0-4.8-3.3-7.8-8-7.8h-15.7V132z"/>
		<path fill="#231F20" d="M415.2,104.9l21.2,49.9h-14.1l-3.2-7.3h-27.6l-3.1,7.3h-14.3l21.7-49.9H415.2z M396.4,135.9H414l-7.6-19.2
			h-2.1L396.4,135.9z"/>
		<path fill="#231F20" d="M449.3,104.9l11.5,38.6h0.4l9.7-38.6H486l9.7,38.6h0.4l11.8-38.6h14l-18.1,49.9h-17.2l-8.2-34.9l-8.6,34.9
			h-17l-17.4-49.9H449.3z"/>
		<path fill="#231F20" d="M552.7,156c-14.9,0-28.1-10.6-28.1-26.2s13.2-26.2,28.1-26.2s28.1,10.6,28.1,26.2S567.5,156,552.7,156z
			 M552.7,144.8c8.2,0,14.7-5.8,14.7-14.9s-6.5-14.9-14.7-14.9c-8.3,0-14.8,5.8-14.8,14.9S544.3,144.8,552.7,144.8z"/>
		<path fill="#231F20" d="M618.3,104.9c12,0,20.8,8,20.8,19.9c0,7.4-3.4,13.1-9,16.4l7.6,13.6h-14.4l-5.7-10.6H602v10.6h-13.3v-49.9
			H618.3z M602,132h15.7c4.7,0,8-2.4,8-7.3c0-4.8-3.3-7.8-8-7.8H602V132z"/>
		<path fill="#231F20" d="M672.1,104.9c13.4,0,26.9,10.2,26.9,24.9c0,14.7-13.4,25-26.9,25h-26.3v-49.9H672.1z M659.1,142.6h13.2
			c7.5,0,13.4-5.6,13.4-12.8c0-7.2-6-12.9-13.4-12.9h-13.2V142.6z"/>
		<path fill="#231F20" d="M750.3,121.4c-5.8-4.2-11.8-5.9-19.6-5.9c-8.5,0-10.4,1.9-10.4,4.1c0,2.1,2.2,2.4,5.1,2.8L740,124
			c11,1.4,17.8,5.8,17.8,15.4c0,11.5-11.4,16.6-26.3,16.6c-10.4,0-18.1-2.3-26.4-8.5l6.2-10.3c6.8,4.8,13.6,7.2,21.3,7.2
			c6.9,0,12.3-1.5,12.3-4.9c0-1.7-0.5-2.6-3.6-2.9l-17.1-2c-10.6-1.3-16.9-5.4-16.9-15.1c0-10.9,10.6-16,23.5-16
			c9.6,0,18,1.8,26,7.9L750.3,121.4z"/>
	</g>
	<g>
		<g>
			<path fill="#FF5A20" d="M52.4,52.9c0,12-8,20.8-19.9,20.8s-19.4-8.8-19.4-20.8V36.6H0.5V23.4h51.9V52.9z M25.2,36.6v15.7
				c0,4.7,2.4,8,7.3,8c4.8,0,7.8-3.3,7.8-8V36.6H25.2z"/>
			<path fill="#FF5A20" d="M105.5,23.6v12H72.8v6.6h29.3v12H72.8v7h33.8v12.3H59.6V23.6H105.5z"/>
			<path fill="#FF5A20" d="M165.2,23.6v11.9h-19.4v38h-13.4v-38h-19.4V23.6H165.2z"/>
			<path fill="#FF5A20" d="M215.6,40.1c-5.8-4.2-11.8-5.9-19.6-5.9c-8.5,0-10.4,1.9-10.4,4.1c0,2.1,2.2,2.4,5.1,2.8l14.5,1.6
				c11,1.4,17.8,5.8,17.8,15.4c0,11.5-11.4,16.6-26.3,16.6c-10.4,0-18.1-2.3-26.4-8.5l6.2-10.3c6.8,4.8,13.6,7.2,21.3,7.2
				c6.9,0,12.3-1.5,12.3-4.9c0-1.7-0.5-2.6-3.6-2.9l-17.1-2c-10.6-1.3-16.9-5.4-16.9-15.1c0-10.9,10.6-16,23.5-16
				c9.6,0,18,1.8,26,7.9L215.6,40.1z"/>
			<path fill="#FF5A20" d="M244.1,23.6v18.2h24.5V23.6h13.4v49.9h-13.4V53.7h-24.5v19.8h-13.3V23.6H244.1z"/>
			<path fill="#F8D58E" d="M318,74.8c-14.9,0-28.1-10.6-28.1-26.2s13.2-26.2,28.1-26.2s28.1,10.6,28.1,26.2S332.9,74.8,318,74.8z
				 M318,63.5c8.2,0,14.7-5.8,14.7-14.9s-6.5-14.9-14.7-14.9c-8.3,0-14.8,5.8-14.8,14.9S309.7,63.5,318,63.5z"/>
			<path fill="#FF5A20" d="M383.6,23.6c12,0,20.8,8,20.8,19.9s-8.8,19.4-20.8,19.4h-16.2v10.6h-13.3V23.6H383.6z M367.4,50.8h15.7
				c4.7,0,8-2.4,8-7.3c0-4.8-3.3-7.8-8-7.8h-15.7V50.8z"/>
		</g>
		<path fill="#FF5A20" d="M49.4,6.8c0,3.5-2.8,6.8-7.2,6.8c-4.5,0-7-3.1-7-6.8c0-3.5,2.8-6.8,7.2-6.8C46.9,0,49.4,3.1,49.4,6.8z
			 M18.2,13.6C12,13.6,5.2,11.2,0,3.6l3.3-3c2.2,3.4,8.8,5,9,4.4c0.8-2.7,3.3-5,6.9-5c4.5,0,7,3.1,7,6.5
			C26.3,10.6,23.2,13.6,18.2,13.6z"/>
	</g>
	<g>
		<circle fill="#FF5A20" cx="463.3" cy="46.5" r="13.6"/>
		<circle fill="#FF5A20" cx="506.7" cy="46.5" r="13.6"/>
		<circle fill="#FF5A20" cx="550.1" cy="46.5" r="13.6"/>
	</g>
	<polygon fill="#FF5A20" points="318.9,22.9 322,20.8 324.7,23.5 328.2,22.3 330.1,25.5 333.9,25.1 335,28.7 338.7,29.2 339,32.9 
		342.5,34.3 341.9,38 345,40.1 343.5,43.5 346.1,46.3 343.9,49.3 345.7,52.6 342.9,55.1 343.9,58.7 340.6,60.4 340.7,64.1 337.1,65 
		336.4,68.7 332.6,68.8 331.1,72.2 327.4,71.4 325.2,74.4 321.8,72.7 318.9,75.1 316,72.7 312.6,74.4 310.3,71.4 306.7,72.2 
		305.1,68.8 301.4,68.7 300.7,65 297,64.1 297.2,60.4 293.9,58.7 294.9,55.1 292.1,52.6 293.9,49.3 291.7,46.3 294.2,43.5 
		292.8,40.1 295.9,38 295.3,34.3 298.8,32.9 299.1,29.2 302.8,28.7 303.9,25.1 307.7,25.5 309.6,22.3 313.1,23.5 315.7,20.8 	"/>
</g>
</svg>
