<?xml version="1.0" encoding="utf-8"?>
<!-- Generator: Adobe Illustrator 18.0.0, SVG Export Plug-In . SVG Version: 6.00 Build 0)  -->
<!DOCTYPE svg PUBLIC "-//W3C//DTD SVG 1.1//EN" "http://www.w3.org/Graphics/SVG/1.1/DTD/svg11.dtd">
<svg version="1.1" id="Слой_1" xmlns="http://www.w3.org/2000/svg" xmlns:xlink="http://www.w3.org/1999/xlink" x="0px" y="0px"
	 viewBox="0 0 216.8 301.1" enable-background="new 0 0 216.8 301.1" xml:space="preserve">
<g opacity="0.56">
	<g>
		<path fill="#F16649" d="M64.2,159.5c0,0,33.3,39.3,33.3,92.1h-26v34.1H110l-9.6-113.9L64.2,159.5z"/>
		<path fill="#F16649" d="M165.1,142c0,0-50.8,53.7-50.8,109.6h26v34.1h-38.5l-1.5-113.9l29-5.8L165.1,142z"/>
		<rect x="58.2" y="285.6" fill="#F16649" width="94.7" height="15.5"/>
		<g>
			<path fill="#F16649" d="M94.3,152.6c0,0.1,0,0.2,0.1,0.3C94.3,152.9,94.3,152.8,94.3,152.6z"/>
			<path fill="#F16649" d="M94,151.3c0,0.1,0.1,0.2,0.1,0.3C94.1,151.5,94,151.4,94,151.3z"/>
			<path fill="#F16649" d="M79.8,141.2c-2.5,0.6-4.3,2.4-4.7,5.1C75.6,143.8,77.4,141.8,79.8,141.2z"/>
			<path fill="#F16649" d="M92.6,147.9c-0.2-0.3-0.4-0.6-0.6-1c-1.7-2.5-4.1-4.4-6.9-5.4c-0.2-0.1-0.4-0.1-0.5-0.1
				C87.7,142.4,90.7,144.9,92.6,147.9z"/>
			<path fill="#F16649" d="M82.9,141.1c0.1,0,0.2,0,0.3,0C83.1,141.1,83,141.1,82.9,141.1z"/>
			<path fill="#F16649" d="M92.7,148.2c0.1,0.2,0.3,0.5,0.4,0.7C93,148.7,92.8,148.4,92.7,148.2z"/>
			<path fill="#F16649" d="M105.7,155.5c-0.1-0.5-0.2-1-0.3-1.5C105.5,154.5,105.6,155,105.7,155.5z"/>
			<path fill="#F16649" d="M93.5,149.8c0.1,0.1,0.1,0.3,0.2,0.4C93.6,150.1,93.6,149.9,93.5,149.8z"/>
			<path fill="#F16649" d="M109,161.5c-0.2-0.2-0.4-0.5-0.6-0.7C108.6,161,108.8,161.3,109,161.5z"/>
			<path fill="#F16649" d="M94.4,153.8c0,0.2,0,0.3,0,0.5C94.4,154.1,94.4,154,94.4,153.8z"/>
			<path fill="#F16649" d="M106.1,156.7c0-0.1-0.1-0.2-0.1-0.3C106,156.5,106.1,156.6,106.1,156.7z"/>
			<path fill="#F16649" d="M110.8,163.2c-0.4-0.3-0.8-0.7-1.2-1.1C110,162.5,110.3,162.9,110.8,163.2z"/>
			<path fill="#F16649" d="M116.8,165.9c-0.7-0.1-1.3-0.2-2-0.5C115.5,165.7,116.2,165.9,116.8,165.9z"/>
			<path fill="#F16649" d="M112.6,164.4c-0.5-0.3-1-0.6-1.5-1C111.6,163.8,112.1,164.1,112.6,164.4z"/>
			<path fill="#F16649" d="M113.6,165c0.4,0.2,0.8,0.3,1.2,0.5c-0.6-0.2-1.2-0.5-1.8-0.8C113.3,164.8,113.4,164.9,113.6,165z"/>
			<path fill="#F16649" d="M80.9,141c0.1,0,0.3,0,0.4,0C81.2,141,81.1,141,80.9,141z"/>
			<path fill="#F16649" d="M91.5,159.8c-0.3,0.2-0.6,0.4-1,0.5C90.8,160.2,91.2,160,91.5,159.8z"/>
			<path fill="#F16649" d="M92.6,158.9c-0.2,0.3-0.5,0.5-0.8,0.7C92.1,159.4,92.3,159.1,92.6,158.9z"/>
			<path fill="#F16649" d="M90.3,160.4c-0.4,0.2-0.9,0.3-1.3,0.3C89.4,160.7,89.9,160.6,90.3,160.4z"/>
			<path fill="#F16649" d="M74.9,147.3c0,0.1,0,0.2,0,0.2c0-0.2,0-0.4,0.1-0.7C75,147,74.9,147.1,74.9,147.3z"/>
			<path fill="#F16649" d="M88.6,160.8c-0.4,0-0.7,0-1.1,0C87.9,160.9,88.2,160.9,88.6,160.8z"/>
			<path fill="#F16649" d="M93.5,157.6c-0.2,0.4-0.5,0.8-0.8,1.1C93.1,158.3,93.3,158,93.5,157.6z"/>
			<path fill="#F16649" d="M94.1,156.2c-0.1,0.4-0.2,0.7-0.4,1C93.8,156.9,94,156.6,94.1,156.2z"/>
			<path fill="#F16649" d="M94.4,154.5c0,0.5-0.1,0.9-0.2,1.3C94.3,155.4,94.3,155,94.4,154.5z"/>
			<path fill="#F16649" d="M75.5,151.3c-0.1-0.2-0.1-0.4-0.2-0.5C75.4,150.9,75.4,151.1,75.5,151.3z"/>
			<path fill="#F16649" d="M76,152.5c-0.1-0.2-0.2-0.4-0.2-0.5C75.9,152.1,75.9,152.3,76,152.5z"/>
			<path fill="#F16649" d="M75.1,150c0-0.2-0.1-0.4-0.1-0.6C75.1,149.7,75.1,149.9,75.1,150z"/>
			<path fill="#F16649" d="M76.7,153.7c-0.1-0.2-0.2-0.3-0.3-0.5C76.5,153.4,76.6,153.5,76.7,153.7z"/>
			<path fill="#F16649" d="M78.3,156.2c-0.1-0.1-0.2-0.3-0.3-0.4C78.1,155.9,78.2,156,78.3,156.2z"/>
			<path fill="#F16649" d="M87.1,160.8c-0.5-0.1-1-0.1-1.6-0.3C86,160.7,86.6,160.8,87.1,160.8z"/>
			<path fill="#F16649" d="M77.4,154.9c-0.1-0.2-0.2-0.3-0.3-0.5C77.2,154.6,77.3,154.8,77.4,154.9z"/>
			<path fill="#F16649" d="M74.9,148.8c0-0.2,0-0.4,0-0.6C74.9,148.4,74.9,148.6,74.9,148.8z"/>
			<path fill="#F16649" d="M124.3,155.8c0.1,0.3,0.1,0.6,0.2,0.9C124.4,156.3,124.4,156,124.3,155.8z"/>
			<path fill="#F16649" d="M110.6,146.3c0.5-0.1,1-0.1,1.6-0.1C111.6,146.2,111.1,146.2,110.6,146.3z"/>
			<path fill="#F16649" d="M105.8,150.2c0.2-0.5,0.4-0.9,0.7-1.3C106.2,149.4,106,149.8,105.8,150.2z"/>
			<path fill="#F16649" d="M109.2,146.8c0.4-0.2,0.9-0.3,1.4-0.4C110.1,146.4,109.6,146.6,109.2,146.8z"/>
			<path fill="#F16649" d="M121.7,151.3c-0.2-0.2-0.4-0.5-0.6-0.7c-1.6-1.7-3.2-2.9-4.9-3.6c1.7,0.7,3.4,1.9,4.9,3.6
				C121.3,150.8,121.5,151,121.7,151.3z"/>
			<path fill="#F16649" d="M123.5,153.9c0.1,0.2,0.2,0.5,0.3,0.8C123.7,154.4,123.6,154.1,123.5,153.9z"/>
			<path fill="#F16649" d="M107.7,147.7c0.4-0.3,0.8-0.5,1.2-0.8C108.4,147.1,108,147.4,107.7,147.7z"/>
			<path fill="#F16649" d="M106.7,148.7c0.3-0.4,0.6-0.7,0.9-1C107.3,148,107,148.3,106.7,148.7z"/>
			<path fill="#F16649" d="M124.7,157.8c0.7,4.8-2.9,8.8-7.7,8.2C122.1,166.6,125.5,163.1,124.7,157.8
				C124.7,157.8,124.7,157.8,124.7,157.8z"/>
			<path fill="#F16649" d="M122.4,152.2c0.2,0.2,0.3,0.4,0.4,0.7C122.7,152.6,122.6,152.4,122.4,152.2z"/>
			<path fill="#F16649" d="M112.6,146.2c0.6,0,1.1,0.1,1.7,0.2C113.7,146.3,113.2,146.2,112.6,146.2z"/>
			<path fill="#F16649" d="M105.4,151.7c0.1-0.5,0.2-0.9,0.3-1.4C105.6,150.8,105.5,151.3,105.4,151.7z"/>
			<path fill="#F16649" d="M105.4,153.8c-0.1-0.6,0-1.1,0-1.7C105.3,152.7,105.3,153.2,105.4,153.8z"/>
			<path fill="#F16649" d="M198.8,34.5c-10.2-10.2-23.6-15.7-38-15.7c-14.4,0-27.9,5.6-38,15.7l-9.3,9.3l-13.4,13.2
				c-7-7.7-13.4-15.2-19.2-21.5c-17.4-19.3-47.2-20.6-66.2-2.8l0,0C-3.9,50-5,79,12.2,97.8c18.6,20.3,16.8,18.8,30.3,33.1
				c7.7,8.1,13.5,17.8,20.2,26.7c3.5,4.6,7.4,9.8,12.2,12.9c7.8,5,14.9,5.7,23.3,0.9c1-0.6,1.5-0.2,2.2,0.5
				c3.4,3.2,7.2,5.6,11.8,6.8c6.7,1.7,13,0.9,18.5-3.4c4-3.1,6.4-7.3,7.3-12.3c5.9-0.7,10.7-3.4,14.1-8.1c0.2-0.3,0.3-0.6,0.5-0.9
				l46.2-43.4c10.2-10.2,15.7-23.6,15.7-38C214.5,58.1,208.9,44.7,198.8,34.5z M124.5,100c6.9-0.7,14.1,6.6,13.7,13.5
				c-0.2,4.2-4,6.9-8.1,6.2c-3-0.5-5.5-2-7.4-4.2c-2.5-2.6-3.9-5.4-3.9-8.7C118.7,103.4,121.1,100.3,124.5,100z M142.5,143
				c-0.2,4.3-4.1,7.1-8.3,6.4c-3-0.5-5.4-2-7.5-4.3c-1.8-1.9-3.1-4.1-3.5-6.7c-0.9-5.6,2.4-9.4,7.9-8.6
				C137.1,130.6,142.7,137.1,142.5,143z M154,133.7c-1.4-3.3-3.5-6.2-5.4-9.3c0.7-1.9,1.8-4,2.4-6.3c1.9-8.4-0.7-15.7-6.2-22.1
				c-3.2-3.7-6.9-7-10.7-10l6.8-6.3c5.1,2.3,13.9,4.8,24.7,1.6l-3.6-12.3c-10.6,3.1-17.8-2.1-18.1-2.3l-4.3-3.4l-3.8,3.6l-12.2,11.4
				l-0.7,0.6c-5.5,4.7-11.5,6.7-17.2,5.8c-3.7-0.6-7.1-2.3-10-4.9c-0.1-0.1-0.2-0.2-0.3-0.2l13.5-13.2l13.8-13.5l0.5-0.5l0.3-0.3
				l0,0l8.5-8.5c15.9-15.9,41.9-15.9,57.8,0c15.9,15.9,15.9,41.9,0.1,57.7l-35.5,33.3C154.2,134.3,154.1,134,154,133.7z M94.4,154.5
				c0,0.5-0.1,0.9-0.2,1.3c0,0.1-0.1,0.3-0.1,0.4c-0.1,0.4-0.2,0.7-0.4,1c0,0.1-0.1,0.2-0.1,0.3c-0.2,0.4-0.5,0.8-0.8,1.1
				c-0.1,0.1-0.1,0.1-0.2,0.2c-0.2,0.3-0.5,0.5-0.8,0.7c-0.1,0.1-0.2,0.2-0.3,0.2c-0.3,0.2-0.6,0.4-1,0.5c-0.1,0-0.1,0.1-0.2,0.1
				c-0.4,0.2-0.9,0.3-1.3,0.3c-0.1,0-0.2,0-0.4,0c-0.4,0-0.7,0-1.1,0c-0.1,0-0.3,0-0.4,0c-0.5-0.1-1-0.1-1.6-0.3
				c-2.5-0.7-4.7-2.3-6.2-3c-0.4-0.4-0.7-0.9-1-1.3c-0.1-0.1-0.2-0.3-0.3-0.4c-0.2-0.3-0.4-0.6-0.6-0.8c-0.1-0.2-0.2-0.3-0.3-0.5
				c-0.2-0.2-0.3-0.5-0.5-0.7c-0.1-0.2-0.2-0.3-0.3-0.5c-0.1-0.2-0.3-0.5-0.4-0.7c-0.1-0.2-0.2-0.4-0.2-0.5
				c-0.1-0.2-0.2-0.5-0.3-0.7c-0.1-0.2-0.1-0.4-0.2-0.5c-0.1-0.2-0.1-0.5-0.2-0.7c0-0.2-0.1-0.4-0.1-0.6c0-0.2-0.1-0.5-0.1-0.7
				c0-0.2,0-0.4,0-0.6c0-0.2,0-0.3,0-0.5c0-0.1,0-0.1,0-0.2c0-0.1,0-0.2,0-0.2c0-0.2,0.1-0.3,0.1-0.4c0-0.2,0.1-0.4,0.1-0.6
				c0.5-2.7,2.2-4.5,4.7-5.1c0.2-0.1,0.4-0.1,0.7-0.2c0.1,0,0.3,0,0.4,0c0.1,0,0.3,0,0.4,0c0.5,0,1.1,0,1.6,0.1c0.1,0,0.2,0,0.3,0
				c0.4,0.1,0.9,0.2,1.3,0.3c0.2,0.1,0.4,0.1,0.5,0.1c2.8,0.9,5.2,2.9,6.9,5.4c0.2,0.3,0.4,0.6,0.6,1c0.1,0.1,0.1,0.2,0.2,0.3
				c0.1,0.2,0.3,0.5,0.4,0.7c0.1,0.3,0.3,0.6,0.4,0.9c0.1,0.1,0.1,0.3,0.2,0.4c0.1,0.4,0.2,0.7,0.3,1.1c0,0.1,0.1,0.2,0.1,0.3
				c0.1,0.3,0.1,0.7,0.2,1c0,0.1,0,0.2,0.1,0.3c0,0.3,0,0.6,0,0.9c0,0.2,0,0.3,0,0.5c0,0,0,0,0,0C94.4,154.4,94.4,154.5,94.4,154.5z
				 M88.4,130.3c-0.9-0.5-1.5-0.6-2.5-0.1c-3.3,1.6-7.1,0.4-10.1-3c-2.1-2.5-2.7-6.2-1.2-8.9c0.1-0.2,0.2-0.4,0.4-0.7
				c0.8-1.1,2.2-1.8,3.4-2.6c0.4-0.3,0.9-0.7,1-1.1c0.7-6.9,6.8-12.1,13.7-12c0.2,0,0.4-0.1,0.6-0.1c0.7-3,2.4-5,5.4-5.6
				c1.5,0.5,3.1,0.9,4.7,1.1c0.6,0.1,1.2,0.2,1.8,0.2c1.1,0.8,2,1.8,2.8,3.1c1.7,2.7,2,5.7,0.1,8.4c-1,1.4-0.9,2.4-0.3,3.8
				c2.2,5.6,0.9,11.8-3.2,15.6c-1.6,1.5-3.6,2.6-5.7,3.1C95.8,132.6,91.9,132.2,88.4,130.3z M117.1,166C117,166,117,166,117.1,166
				c-0.1,0-0.2,0-0.3,0c-0.6-0.1-1.3-0.2-2-0.5c0,0,0,0,0,0c-0.4-0.1-0.8-0.3-1.2-0.5c-0.2-0.1-0.4-0.2-0.6-0.3
				c-0.2-0.1-0.3-0.2-0.5-0.3c-0.5-0.3-1-0.6-1.5-1c-0.1-0.1-0.2-0.2-0.3-0.3c-0.4-0.3-0.8-0.7-1.2-1.1c-0.2-0.2-0.4-0.4-0.6-0.6
				c-0.2-0.2-0.4-0.5-0.6-0.7c-1-1.2-1.8-2.6-2.3-4.1c0-0.1-0.1-0.2-0.1-0.3c-0.1-0.3-0.2-0.6-0.3-0.9c-0.1-0.5-0.2-1-0.3-1.5
				c0-0.1,0-0.1,0-0.2c0,0,0,0,0,0c-0.1-0.6,0-1.1,0-1.7c0-0.1,0-0.3,0.1-0.4c0.1-0.5,0.2-0.9,0.3-1.4c0,0,0-0.1,0-0.1
				c0.2-0.5,0.4-0.9,0.7-1.3c0.1-0.1,0.1-0.2,0.2-0.3c0.3-0.4,0.6-0.7,0.9-1c0,0,0,0,0.1-0.1c0.4-0.3,0.8-0.5,1.2-0.8
				c0.1-0.1,0.2-0.1,0.3-0.1c0.4-0.2,0.9-0.3,1.4-0.4c0,0,0,0,0.1,0c0.5-0.1,1-0.1,1.6-0.1c0.1,0,0.3,0,0.4,0c0.6,0,1.1,0.1,1.7,0.2
				c0.6,0.1,1.2,0.3,1.8,0.6c1.7,0.7,3.4,1.9,4.9,3.6c0.2,0.2,0.4,0.4,0.6,0.7c0.3,0.3,0.6,0.6,0.8,0.9c0.2,0.2,0.3,0.4,0.4,0.7
				c0.2,0.3,0.5,0.7,0.7,1.1c0.1,0.2,0.2,0.5,0.3,0.8c0.2,0.4,0.3,0.7,0.5,1.1c0.1,0.3,0.1,0.6,0.2,0.9c0.1,0.4,0.2,0.7,0.3,1.1
				c0,0,0,0,0,0c0,0,0,0,0,0C125.5,163.1,122.1,166.6,117.1,166z"/>
		</g>
	</g>
	<path fill="#FFF2BE" d="M165.1,14.6c0.7,4.2-0.7,18.6,1.8,21.6c2.5,3,22.6,16.1,24.9,15.5c2.3-0.5,22.7-7.6,22.7-7.6l-8.9-41.2
		l-6.4-2.8L165.1,14.6z"/>
	<g>
		<path fill="#F16649" d="M216.8,41.4c-13.8-9.1-32.3-5.3-41.4,8.5c9.1-13.8,5.3-32.3-8.5-41.4c13.8,9.1,32.3,5.3,41.4-8.5
			C199.2,13.8,203,32.3,216.8,41.4z"/>
	</g>
	<rect x="87.4" y="263.7" fill="#FFF2BE" width="36.7" height="13.5"/>
</g>
</svg>
