<?xml version="1.0" encoding="utf-8"?>
<!-- Generator: Adobe Illustrator 18.0.0, SVG Export Plug-In . SVG Version: 6.00 Build 0)  -->
<!DOCTYPE svg PUBLIC "-//W3C//DTD SVG 1.1//EN" "http://www.w3.org/Graphics/SVG/1.1/DTD/svg11.dtd">
<svg version="1.1" id="Слой_1" xmlns="http://www.w3.org/2000/svg" xmlns:xlink="http://www.w3.org/1999/xlink" x="0px" y="0px"
	 viewBox="0 39.7 109 20.6" enable-background="new 0 39.7 109 20.6" xml:space="preserve">
<path fill="#231F20" d="M4.7,53.5c1.2,0,2.1,0.7,2.1,1.8c0,0.4-0.2,0.8-0.5,1c0.6,0.3,0.9,0.8,0.9,1.6c0,1.2-1,2.1-2.2,2.1H0.4v-6.6
	H4.7z M2.2,56h2.5C4.9,56,5,55.8,5,55.6c0-0.2-0.1-0.4-0.4-0.4H2.2V56z M2.2,58.6H5c0.3,0,0.5-0.2,0.5-0.5c0-0.3-0.2-0.5-0.5-0.5
	H2.2C2.2,57.5,2.2,58.6,2.2,58.6z"/>
<path fill="#231F20" d="M9.9,53.5v5h4.3v1.6H8.1v-6.6H9.9z"/>
<path fill="#231F20" d="M18.5,60.3c-2,0-3.7-1.4-3.7-3.5c0-2.1,1.7-3.5,3.7-3.5s3.7,1.4,3.7,3.5C22.2,58.9,20.5,60.3,18.5,60.3z
	 M18.5,58.8c1.1,0,1.9-0.8,1.9-2s-0.9-2-1.9-2c-1.1,0-2,0.8-2,2S17.4,58.8,18.5,58.8z"/>
<path fill="#231F20" d="M30.4,56.2v3.9h-1.1l-0.2-0.4c-0.6,0.4-1.3,0.6-2.2,0.6c-2,0-3.7-1.3-3.7-3.5c0-2.1,1.6-3.5,3.7-3.5
	c1.6,0,2.6,0.6,3.4,1.8l-1.4,0.8c-0.5-0.7-1-0.9-2-0.9c-1.2,0-1.9,0.7-1.9,1.9c0,1.2,0.7,1.9,1.9,1.9c0.8,0,1.3-0.1,1.8-0.4v-0.5
	L27,57.7v-1.5C27,56.2,30.4,56.2,30.4,56.2z"/>
<path fill="#231F20" d="M45.6,53.5v1.6h-4.3V56h3.9v1.6h-3.9v0.9h4.5v1.6h-6.2v-6.6H45.6z"/>
<path fill="#231F20" d="M50.7,53.5c1.6,0,2.7,1.1,2.7,2.6c0,1-0.4,1.7-1.2,2.2l1,1.8h-1.9l-0.8-1.4h-2v1.4h-1.8v-6.6H50.7z
	 M48.6,57.1h2.1c0.6,0,1.1-0.3,1.1-1c0-0.6-0.4-1-1.1-1h-2.1V57.1z"/>
<path fill="#231F20" d="M63.8,53.5l2.8,6.6h-1.9l-0.4-1h-3.6l-0.4,1h-1.9l2.9-6.6H63.8z M61.3,57.6h2.3l-1-2.5h-0.3L61.3,57.6z"/>
<path fill="#231F20" d="M68.3,53.5l1.5,5.1h0.1l1.3-5.1h2l1.3,5.1h0.1l1.6-5.1h1.8l-2.4,6.6h-2.3l-1.1-4.6L71,60.1h-2.2l-2.3-6.6
	H68.3z"/>
<path fill="#231F20" d="M90.6,53.5c1.6,0,2.7,1.1,2.7,2.6c0,1-0.4,1.7-1.2,2.2l1,1.8h-1.9l-0.8-1.4h-2.1v1.4h-1.8v-6.6H90.6z
	 M88.4,57.1h2.1c0.6,0,1.1-0.3,1.1-1c0-0.6-0.4-1-1.1-1h-2.1V57.1z"/>
<path fill="#231F20" d="M97.7,53.5c1.8,0,3.5,1.3,3.5,3.3c0,1.9-1.8,3.3-3.5,3.3h-3.5v-6.6H97.7z M96,58.5h1.7c1,0,1.8-0.7,1.8-1.7
	c0-1-0.8-1.7-1.8-1.7H96V58.5z"/>
<path fill="#231F20" d="M108,55.7c-0.8-0.6-1.6-0.8-2.6-0.8c-1.1,0-1.4,0.3-1.4,0.5c0,0.3,0.3,0.3,0.7,0.4l1.9,0.2
	c1.5,0.2,2.3,0.8,2.3,2c0,1.5-1.5,2.2-3.5,2.2c-1.4,0-2.4-0.3-3.5-1.1l0.8-1.4c0.9,0.6,1.8,1,2.8,1c0.9,0,1.6-0.2,1.6-0.6
	c0-0.2-0.1-0.3-0.5-0.4l-2.3-0.3c-1.4-0.2-2.2-0.7-2.2-2c0-1.4,1.4-2.1,3.1-2.1c1.3,0,2.4,0.2,3.4,1L108,55.7z"/>
<g>
	<g>
		<path fill="#FF5A20" d="M6.9,46.7c0,1.6-1.1,2.7-2.6,2.7s-2.6-1.2-2.6-2.7v-2.2H0.1v-1.7h6.8V46.7z M3.3,44.5v2.1
			c0,0.6,0.3,1.1,1,1.1c0.6,0,1-0.4,1-1.1v-2.1H3.3z"/>
		<path fill="#FF5A20" d="M13.9,42.8v1.6H9.6v0.9h3.9v1.6H9.6v0.9h4.5v1.6H7.9v-6.6H13.9z"/>
		<path fill="#FF5A20" d="M21.8,42.8v1.6h-2.6v5h-1.8v-5h-2.6v-1.6H21.8z"/>
		<path fill="#FF5A20" d="M28.5,45c-0.8-0.6-1.6-0.8-2.6-0.8c-1.1,0-1.4,0.3-1.4,0.5c0,0.3,0.3,0.3,0.7,0.4l1.9,0.2
			c1.5,0.2,2.3,0.8,2.3,2c0,1.5-1.5,2.2-3.5,2.2c-1.4,0-2.4-0.3-3.5-1.1l0.8-1.4c0.9,0.6,1.8,1,2.8,1c0.9,0,1.6-0.2,1.6-0.6
			c0-0.2-0.1-0.3-0.5-0.4L25,46.7c-1.4-0.2-2.2-0.7-2.2-2c0-1.4,1.4-2.1,3.1-2.1c1.3,0,2.4,0.2,3.4,1L28.5,45z"/>
		<path fill="#FF5A20" d="M32.2,42.8v2.4h3.2v-2.4h1.8v6.6h-1.8v-2.6h-3.2v2.6h-1.8v-6.6H32.2z"/>
		<path fill="#FF5A20" d="M50.6,42.8c1.6,0,2.7,1.1,2.7,2.6c0,1.6-1.2,2.6-2.7,2.6h-2.1v1.4h-1.8v-6.6H50.6z M48.5,46.4h2.1
			c0.6,0,1.1-0.3,1.1-1c0-0.6-0.4-1-1.1-1h-2.1V46.4z"/>
	</g>
	<path fill="#FF5A20" d="M6.5,40.6c0,0.5-0.4,0.9-1,0.9c-0.6,0-0.9-0.4-0.9-0.9c0-0.5,0.4-0.9,1-0.9C6.2,39.7,6.5,40.1,6.5,40.6z
		 M2.4,41.5c-0.8,0-1.7-0.3-2.4-1.3l0.4-0.4c0.3,0.4,1.2,0.7,1.2,0.6c0.1-0.4,0.4-0.7,0.9-0.7c0.6,0,0.9,0.4,0.9,0.9
		C3.5,41.1,3.1,41.5,2.4,41.5z"/>
</g>
<g>
	<circle fill="#FF5A20" cx="61.1" cy="45.8" r="1.8"/>
	<circle fill="#FF5A20" cx="66.9" cy="45.8" r="1.8"/>
	<circle fill="#FF5A20" cx="72.6" cy="45.8" r="1.8"/>
</g>
<path fill="#231F20" d="M38.4,56.2v3.9h-1.1l-0.2-0.4c-0.6,0.4-1.3,0.6-2.2,0.6c-2,0-3.7-1.3-3.7-3.5c0-2.1,1.6-3.5,3.7-3.5
	c1.6,0,2.6,0.6,3.4,1.8l-1.4,0.8c-0.5-0.7-1-0.9-2-0.9c-1.2,0-1.9,0.7-1.9,1.9c0,1.2,0.7,1.9,1.9,1.9c0.8,0,1.3-0.1,1.8-0.4v-0.5
	L35,57.7v-1.5C35,56.2,38.4,56.2,38.4,56.2z"/>
<path fill="#231F20" d="M82.8,53.6l2.8,6.6h-1.9l-0.4-1h-3.6l-0.4,1h-1.9l2.9-6.6H82.8z M80.3,57.6h2.3l-1-2.5h-0.3L80.3,57.6z"/>
<polygon fill="#FF5A20" points="42.2,42.6 43,42.3 43.6,42.9 44.4,42.9 44.7,43.7 45.5,44.1 45.4,45 46,45.6 45.6,46.4 45.8,47.2 
	45.1,47.7 45,48.6 44.2,48.8 43.8,49.5 42.9,49.3 42.2,49.8 41.5,49.3 40.6,49.5 40.2,48.8 39.4,48.6 39.2,47.7 38.6,47.2 
	38.8,46.4 38.4,45.6 39,45 38.9,44.1 39.7,43.7 40,42.9 40.8,42.9 41.4,42.3 "/>
</svg>
