<?xml version="1.0" encoding="utf-8"?>
<!-- Generator: Adobe Illustrator 18.0.0, SVG Export Plug-In . SVG Version: 6.00 Build 0)  -->
<!DOCTYPE svg PUBLIC "-//W3C//DTD SVG 1.1//EN" "http://www.w3.org/Graphics/SVG/1.1/DTD/svg11.dtd">
<svg version="1.1" id="Capa_1" xmlns="http://www.w3.org/2000/svg" xmlns:xlink="http://www.w3.org/1999/xlink" x="0px" y="0px"
	 viewBox="0 0 127 58" enable-background="new 0 0 127 58" xml:space="preserve">
<path fill="#002B5C" d="M111.4,1.3H1.5v41.2c0,7.8,6.3,14.1,14.1,14.1h109.9V15.5C125.5,7.7,119.2,1.3,111.4,1.3z"/>
<path fill="#E24301" d="M44.2,16.5c0,4.8-3.9,8.7-8.7,8.7c-4.8,0-8.7-3.9-8.7-8.7c0-4.8,3.9-8.7,8.7-8.7
	C40.3,7.8,44.2,11.7,44.2,16.5z M35.5,9.1c-0.7,0-1.3,0.6-1.3,1.3s0.6,1.3,1.3,1.3c0.7,0,1.3-0.6,1.3-1.3S36.2,9.1,35.5,9.1z"/>
<path fill="#FFFFFF" d="M38.2,14.9c-0.1-0.1-0.1-0.2-0.1-0.3c0-0.3,0.2-0.5,0.4-0.5c0.1,0,0.2,0,0.3,0.1c0.1,0.1,0.1,0.1,0.1,0.3
	c0,0.2-0.2,0.5-0.4,0.5l0,0C38.4,15,38.3,14.9,38.2,14.9z M38.5,15L38.5,15L38.5,15z"/>
<path fill="#FFFFFF" d="M32.3,16.8c0-0.2,0.3-0.2,0.3-0.2l0.2,0l0-0.3c0.1-0.4,0.2-0.8,0.9-1c0.1,0,0.4-0.1,0.5,0c0,0,0,0,0,0l0,0
	c0,0-0.1,0.4-0.1,0.4c0,0.1-0.1,0.1-0.1,0.1c0,0,0,0-0.1,0c-0.1,0-0.1,0-0.2,0c-0.2,0-0.2,0.2-0.3,0.4l0,0.2l1.4-0.3l0,0
	c0,0,0.1,0,0.1,0c0,0,0,0,0,0.1l0,0.1L34.5,18l0.3-0.1c0,0,0.1,0,0.1,0c0,0,0,0,0,0l0,0.1c0,0-0.1,0.3-0.1,0.3
	c0,0.1-0.1,0.1-0.1,0.1l-0.4,0.1c-0.2,0-0.3,0-0.4,0c0,0-0.1-0.1-0.1-0.2c0-0.1,0-0.1,0-0.2l0.3-1.4l-0.9,0.2l-0.4,2
	c-0.1,0.5-0.3,1-0.9,1.2c-0.3,0.1-0.4,0-0.4,0c0,0,0,0,0,0l0-0.1l0,0l0.1-0.4c0,0,0-0.1,0.1-0.1c0,0,0,0,0,0c0,0,0.1,0,0.2,0
	c0.3-0.1,0.3-0.2,0.4-0.6l0.4-1.9l-0.2,0c0,0-0.1,0-0.1,0c0,0-0.1,0-0.1-0.1l0,0c0,0,0,0.2-0.3,0.3l-0.3,0.1l-0.4,2
	c-0.1,0.5-0.3,1-0.9,1.2c-0.3,0.1-0.4,0.1-0.4,0c0,0,0,0,0,0c0,0,0-0.1,0-0.1l0,0L30,20c0,0,0-0.1,0.1-0.1l0,0c0,0,0.1,0,0.2,0
	c0.3-0.1,0.3-0.2,0.4-0.6l0.4-1.9l-0.3,0.1c0,0-0.1,0-0.1,0c0,0,0,0,0,0l0-0.1l0.1-0.3c0,0,0-0.1,0.1-0.1l0.3-0.1l0-0.1
	c0-0.1,0-0.1,0-0.1c0,0,0,0,0,0c0.1-0.4,0.2-0.8,0.9-1c0.1,0,0.4-0.1,0.5,0c0,0,0,0,0,0c0,0,0,0,0,0c0,0-0.1,0.4-0.1,0.4
	c0,0.1-0.1,0.1-0.1,0.1c0,0,0,0-0.1,0c-0.1,0-0.1,0-0.2,0c-0.2,0-0.2,0.2-0.3,0.4c0,0,0,0,0,0l0,0l0,0.2l0.3-0.1c0.1,0,0.1,0,0.1,0
	C32.2,16.7,32.3,16.7,32.3,16.8L32.3,16.8L32.3,16.8z M34.4,15.8c-0.1-0.1-0.1-0.2-0.1-0.3c0-0.3,0.2-0.5,0.4-0.5l0,0
	c0.1,0,0.2,0,0.3,0.1c0.1,0.1,0.1,0.1,0.1,0.3c0,0.2-0.2,0.5-0.4,0.5C34.6,15.9,34.5,15.9,34.4,15.8z M36.2,16
	c0.2-0.3,0.5-0.5,0.7-0.5c0.1,0,0.2,0,0.3,0.1c0.1,0.1,0.1,0.2,0.1,0.4c0,0.1,0,0.2-0.1,0.4l-0.2,1.1l0.3-0.1l0,0c0,0,0.1,0,0.1,0
	c0,0,0,0,0,0l0,0.1c0,0-0.1,0.3-0.1,0.3c0,0.1-0.1,0.1-0.1,0.1l-0.4,0.1c-0.2,0-0.3,0-0.4,0c0,0-0.1-0.1-0.1-0.2c0-0.1,0-0.1,0-0.2
	c0,0,0,0,0,0l0.2-1l0,0c0-0.1,0-0.2,0-0.2c0,0,0-0.1,0-0.1c0,0-0.1,0-0.1,0c-0.2,0.1-0.4,0.4-0.6,1l-0.2,1c0,0.1,0,0.1-0.1,0.1
	l-0.4,0.1c0,0-0.1,0-0.1,0c0,0,0,0,0,0c0,0,0,0,0,0l0,0l0.3-1.5l0,0c0-0.1,0-0.2,0-0.3l0,0l-0.2,0.1c0,0-0.1,0-0.1,0c0,0,0,0,0,0
	l0-0.1c0,0,0.1-0.3,0.1-0.3c0-0.1,0-0.1,0.1-0.1l0.6-0.1c0,0,0,0,0.1,0C36.1,15.8,36.1,15.9,36.2,16L36.2,16L36.2,16z"/>
<path fill="#FFFFFF" d="M30,18.8c0,0,0.3-1.5,0.3-1.5l0-0.1c0,0,0,0,0,0c0,0,0,0-0.1,0l-0.4,0.1c-0.1,0-0.1,0-0.1,0.1l0,0
	c0,0,0,0,0,0l0,0.1l0,0c-0.1-0.1-0.2-0.1-0.5-0.1c-0.6,0.1-1.1,1.1-1.1,2c0,0.3,0.1,0.5,0.2,0.6c0.1,0.1,0.3,0.1,0.3,0.1
	c0.3-0.1,0.6-0.3,0.7-0.5l0-0.1l0,0.1c0,0.1,0,0.1,0.1,0.2c0.1,0,0.2,0.1,0.4,0l0.3-0.1c0.1,0,0.1,0,0.1-0.1l0.1-0.3l0-0.1
	c0,0,0,0,0,0c0,0,0,0-0.1,0L30,19.1l0,0C30,19,30,18.9,30,18.8z M29.6,17.9c0,0.1-0.2,0.8-0.2,0.8c0,0.1-0.2,0.6-0.5,0.7
	c-0.1,0-0.1,0-0.1-0.2c0-0.5,0.2-1.3,0.5-1.3C29.4,17.8,29.5,17.8,29.6,17.9L29.6,17.9z"/>
<path fill="#FFFFFF" d="M41.4,14.5C41.4,14.5,41.5,14.5,41.4,14.5c0.1,0,0.1,0,0.1,0.1l0.1,1.1c0,0.1,0,0.3,0,0.5l0.1,0l0.2-0.5
	c0,0,0.5-1.3,0.5-1.3l0,0v0c0,0,0-0.1,0.1-0.1c0,0,0.1,0,0.1,0c0,0,0,0,0,0c0,0,0.4,0,0.4,0c0.1,0,0.1,0,0.1,0.1c0,0,0,0,0,0.1l0,0
	c0,0-0.9,2.1-0.9,2.1L42,16.6c-0.2,0.5-0.5,1.2-1.1,1.4c-0.2,0-0.5,0-0.6,0c0,0,0,0,0,0c0,0,0-0.1,0-0.1l0,0l0,0l0.2-0.3l0,0
	c0,0,0-0.1,0.1-0.1c0,0,0.1,0,0.1,0c0.1,0,0.1,0,0.2,0c0.2,0,0.3-0.1,0.4-0.3l0.1-0.3l-0.1,0c0,0-0.1,0-0.1,0c0,0,0,0,0-0.1
	c0,0-0.2-1.7-0.2-1.7l-1,0.2l-0.2,1.1c0,0.1,0,0.2,0,0.2c0,0,0,0.1,0,0.1c0,0,0.1,0,0.1,0c0.1,0,0.3-0.1,0.3-0.2c0,0,0.1,0,0.1,0
	c0,0,0.1,0,0.1,0c0,0,0.1,0.3,0.1,0.3l0,0l0,0l0,0l0,0c0,0.1-0.6,0.4-0.8,0.4c-0.2,0.1-0.4,0-0.5,0c-0.1-0.1-0.1-0.2-0.1-0.3
	c0-0.1,0-0.2,0-0.3l0.2-1.2l-0.7,0.2l-0.3,1.4l0.3-0.1c0,0,0.1,0,0.1,0c0,0,0,0,0,0l0,0.1l-0.1,0.3c0,0.1-0.1,0.1-0.1,0.1l-0.4,0.1
	c-0.2,0-0.3,0-0.4,0c0,0-0.1-0.1-0.1-0.2c0-0.1,0-0.1,0-0.2l0.3-1.4l-0.2,0.1c0,0-0.1,0-0.1,0c0,0,0,0,0-0.1l0-0.1l0.1-0.3
	c0-0.1,0.1-0.1,0.2-0.1l1.5-0.4l0,0c0-0.1,0.1-0.5,0.1-0.6c0-0.1,0.1-0.1,0.1-0.1c0,0,0.4-0.2,0.4-0.2l0,0l0,0l0,0c0,0,0,0,0,0
	c0,0,0,0,0,0.1l0,0.1l-0.1,0.5l0,0L41.4,14.5z"/>
<path fill="#FFFFFF" d="M42.6,16.5C42.6,16.5,42.6,16.5,42.6,16.5l-0.1,0c0,0,0,0,0,0c0,0,0,0,0,0l0.1-0.5l-0.1,0c0,0,0,0,0,0
	c0,0,0,0,0,0l0-0.1c0,0,0,0,0,0l0.4-0.1c0,0,0,0,0,0c0,0,0,0,0,0l0,0.1c0,0,0,0,0,0l-0.1,0L42.6,16.5z"/>
<path fill="#FFFFFF" d="M43.3,16.4C43.3,16.4,43.3,16.4,43.3,16.4L43.3,16.4c-0.1,0-0.1,0-0.1,0c0,0,0,0,0,0l0.1-0.3
	c0,0,0-0.1,0-0.1h0c0,0,0,0.1-0.1,0.1l-0.1,0.2c0,0,0,0,0,0l0,0c0,0,0,0,0,0l0-0.2c0,0,0-0.1,0-0.1l0,0c0,0,0,0.1,0,0.1l-0.1,0.3
	c0,0,0,0,0,0l-0.1,0c0,0,0,0,0,0c0,0,0,0,0,0l0.2-0.6c0,0,0,0,0,0l0.1,0c0,0,0,0,0,0l0,0.2c0,0,0,0,0,0.1c0,0,0,0,0,0.1l0,0
	c0,0,0-0.1,0-0.1l0.1-0.3c0,0,0,0,0,0l0.1,0c0,0,0,0,0,0c0,0,0,0,0,0L43.3,16.4z"/>
<g>
	<g>
		<defs>
			<path id="SVGID_1_" d="M74.4,46.4c-0.3,0-0.5-0.2-0.5-0.5V29.2c0-0.3,0.2-0.5,0.5-0.5h2.8c0.2,0,0.3,0.1,0.4,0.2l7.7,11.6V29.2
				c0-0.3,0.2-0.5,0.5-0.5h2.7c0.3,0,0.5,0.2,0.5,0.5v16.7c0,0.3-0.2,0.5-0.5,0.5h-3c-0.2,0-0.3-0.1-0.4-0.2L77.6,35v10.9
				c0,0.3-0.2,0.5-0.5,0.5L74.4,46.4L74.4,46.4z M105.8,46.4c-0.3,0-0.5-0.2-0.5-0.5V29.2c0-0.3,0.2-0.5,0.5-0.5h11.1
				c0.3,0,0.5,0.2,0.5,0.5v2.6c0,0.3-0.2,0.5-0.5,0.5h-7.8v3.3h7c0.3,0,0.5,0.2,0.5,0.5v2.5c0,0.3-0.2,0.5-0.5,0.5h-7v3.6h8.1
				c0.3,0,0.5,0.2,0.5,0.5v2.7c0,0.3-0.2,0.5-0.5,0.5L105.8,46.4L105.8,46.4z M97.5,46.4c-5.2,0-7-3.5-7-6.6v-4.9
				c0-3,2.2-6.2,6.9-6.2h5.4c0.3,0,0.5,0.2,0.5,0.5v2.7c0,0.3-0.2,0.5-0.5,0.5h-6.1c-1.7,0-2.5,0.9-2.5,2.9v4.7c0,2.2,1.8,3,3.3,3
				h5.2c0.3,0,0.5,0.2,0.5,0.5v2.5c0,0.3-0.2,0.5-0.5,0.5L97.5,46.4L97.5,46.4z M69.8,46.4c-0.2,0-0.4-0.1-0.4-0.3l-1.1-2.8h-7.7
				l-1.1,2.8c-0.1,0.2-0.2,0.3-0.4,0.3h-3.1c-0.2,0-0.3-0.1-0.4-0.2c-0.1-0.1-0.1-0.3,0-0.5L62.8,29c0.1-0.2,0.2-0.3,0.4-0.3h2.4
				c0.2,0,0.4,0.1,0.4,0.3l7.5,16.7c0.1,0.1,0.1,0.3,0,0.5c-0.1,0.1-0.2,0.2-0.4,0.2C73.2,46.4,69.8,46.4,69.8,46.4z M66.8,39.8
				l-2.5-6l-2.4,6H66.8z M49.1,46.4c-0.2,0-0.4-0.1-0.4-0.3l-6.4-16.8c-0.1-0.1,0-0.3,0.1-0.4c0.1-0.1,0.2-0.2,0.4-0.2H46
				c0.2,0,0.4,0.1,0.4,0.3l4.3,12.3L55.1,29c0.1-0.2,0.2-0.3,0.5-0.3h3c0.2,0,0.3,0.1,0.4,0.2c0.1,0.1,0.1,0.3,0.1,0.4L52.7,46
				c-0.1,0.2-0.2,0.3-0.4,0.3H49.1z M28.5,46.4c-0.1,0-0.3-0.1-0.3-0.1c-0.1-0.1-0.1-0.2-0.1-0.3l0-16.7c0-0.3,0.2-0.5,0.5-0.5H36
				c5.2,0,7,3.5,7,6.6v4.9c0,3-2.2,6.2-6.9,6.2H28.5z M36.8,42.7c1.7,0,2.5-0.9,2.5-2.9v-4.7c0-2.2-1.8-3-3.3-3h-4v10.5H36.8z
				 M23.8,46.4c-0.2,0-0.4-0.1-0.4-0.3l-1.1-2.8h-7.7l-1.1,2.8c-0.1,0.2-0.2,0.3-0.4,0.3H9.7c-0.2,0-0.3-0.1-0.4-0.2
				c-0.1-0.1-0.1-0.3,0-0.5L16.7,29c0.1-0.2,0.2-0.3,0.4-0.3h2.4c0.2,0,0.4,0.1,0.4,0.3l7.5,16.7c0.1,0.1,0.1,0.3,0,0.5
				c-0.1,0.1-0.2,0.2-0.4,0.2C27.1,46.4,23.8,46.4,23.8,46.4z M20.8,39.8l-2.5-6l-2.4,6H20.8z"/>
		</defs>
		<clipPath id="SVGID_2_">
			<use xlink:href="#SVGID_1_"  overflow="visible"/>
		</clipPath>
		<path clip-path="url(#SVGID_2_)" fill="#FFFFFF" d="M36,28.5h-8.1l0,17.5L20,28.5h-3.3l-8,18h4.6l1.3-3.1H22l1.3,3.1h12.8
			c4.9,0,7.1-3.3,7.1-6.4v-4.9C43.2,32.1,41.3,28.5,36,28.5z M16.1,39.6l2.2-5.3l2.2,5.3H16.1z M39.1,39.9c0,2.4-1.3,2.7-2.3,2.7
			h-4.7V32.4h3.8c1.5,0,3.2,0.7,3.2,2.8L39.1,39.9L39.1,39.9z"/>
	</g>
	<g>
		<defs>
			<path id="SVGID_4_" d="M74.4,46.4c-0.3,0-0.5-0.2-0.5-0.5V29.2c0-0.3,0.2-0.5,0.5-0.5h2.8c0.2,0,0.3,0.1,0.4,0.2l7.7,11.6V29.2
				c0-0.3,0.2-0.5,0.5-0.5h2.7c0.3,0,0.5,0.2,0.5,0.5v16.7c0,0.3-0.2,0.5-0.5,0.5h-3c-0.2,0-0.3-0.1-0.4-0.2L77.6,35v10.9
				c0,0.3-0.2,0.5-0.5,0.5L74.4,46.4L74.4,46.4z M105.8,46.4c-0.3,0-0.5-0.2-0.5-0.5V29.2c0-0.3,0.2-0.5,0.5-0.5h11.1
				c0.3,0,0.5,0.2,0.5,0.5v2.6c0,0.3-0.2,0.5-0.5,0.5h-7.8v3.3h7c0.3,0,0.5,0.2,0.5,0.5v2.5c0,0.3-0.2,0.5-0.5,0.5h-7v3.6h8.1
				c0.3,0,0.5,0.2,0.5,0.5v2.7c0,0.3-0.2,0.5-0.5,0.5L105.8,46.4L105.8,46.4z M97.5,46.4c-5.2,0-7-3.5-7-6.6v-4.9
				c0-3,2.2-6.2,6.9-6.2h5.4c0.3,0,0.5,0.2,0.5,0.5v2.7c0,0.3-0.2,0.5-0.5,0.5h-6.1c-1.7,0-2.5,0.9-2.5,2.9v4.7c0,2.2,1.8,3,3.3,3
				h5.2c0.3,0,0.5,0.2,0.5,0.5v2.5c0,0.3-0.2,0.5-0.5,0.5L97.5,46.4L97.5,46.4z M69.8,46.4c-0.2,0-0.4-0.1-0.4-0.3l-1.1-2.8h-7.7
				l-1.1,2.8c-0.1,0.2-0.2,0.3-0.4,0.3h-3.1c-0.2,0-0.3-0.1-0.4-0.2c-0.1-0.1-0.1-0.3,0-0.5L62.8,29c0.1-0.2,0.2-0.3,0.4-0.3h2.4
				c0.2,0,0.4,0.1,0.4,0.3l7.5,16.7c0.1,0.1,0.1,0.3,0,0.5c-0.1,0.1-0.2,0.2-0.4,0.2C73.2,46.4,69.8,46.4,69.8,46.4z M66.8,39.8
				l-2.5-6l-2.4,6H66.8z M49.1,46.4c-0.2,0-0.4-0.1-0.4-0.3l-6.4-16.8c-0.1-0.1,0-0.3,0.1-0.4c0.1-0.1,0.2-0.2,0.4-0.2H46
				c0.2,0,0.4,0.1,0.4,0.3l4.3,12.3L55.1,29c0.1-0.2,0.2-0.3,0.5-0.3h3c0.2,0,0.3,0.1,0.4,0.2c0.1,0.1,0.1,0.3,0.1,0.4L52.7,46
				c-0.1,0.2-0.2,0.3-0.4,0.3H49.1z M28.5,46.4c-0.1,0-0.3-0.1-0.3-0.1c-0.1-0.1-0.1-0.2-0.1-0.3l0-16.7c0-0.3,0.2-0.5,0.5-0.5H36
				c5.2,0,7,3.5,7,6.6v4.9c0,3-2.2,6.2-6.9,6.2H28.5z M36.8,42.7c1.7,0,2.5-0.9,2.5-2.9v-4.7c0-2.2-1.8-3-3.3-3h-4v10.5H36.8z
				 M23.8,46.4c-0.2,0-0.4-0.1-0.4-0.3l-1.1-2.8h-7.7l-1.1,2.8c-0.1,0.2-0.2,0.3-0.4,0.3H9.7c-0.2,0-0.3-0.1-0.4-0.2
				c-0.1-0.1-0.1-0.3,0-0.5L16.7,29c0.1-0.2,0.2-0.3,0.4-0.3h2.4c0.2,0,0.4,0.1,0.4,0.3l7.5,16.7c0.1,0.1,0.1,0.3,0,0.5
				c-0.1,0.1-0.2,0.2-0.4,0.2C27.1,46.4,23.8,46.4,23.8,46.4z M20.8,39.8l-2.5-6l-2.4,6H20.8z"/>
		</defs>
		<clipPath id="SVGID_5_">
			<use xlink:href="#SVGID_4_"  overflow="visible"/>
		</clipPath>
		<polygon clip-path="url(#SVGID_5_)" fill="#FFFFFF" points="55,28.5 50.7,40.7 46.4,28.4 41.7,28.4 48.6,46.6 52.7,46.6 
			59.4,28.5 		"/>
	</g>
	<g>
		<defs>
			<path id="SVGID_6_" d="M74.4,46.4c-0.3,0-0.5-0.2-0.5-0.5V29.2c0-0.3,0.2-0.5,0.5-0.5h2.8c0.2,0,0.3,0.1,0.4,0.2l7.7,11.6V29.2
				c0-0.3,0.2-0.5,0.5-0.5h2.7c0.3,0,0.5,0.2,0.5,0.5v16.7c0,0.3-0.2,0.5-0.5,0.5h-3c-0.2,0-0.3-0.1-0.4-0.2L77.6,35v10.9
				c0,0.3-0.2,0.5-0.5,0.5L74.4,46.4L74.4,46.4z M105.8,46.4c-0.3,0-0.5-0.2-0.5-0.5V29.2c0-0.3,0.2-0.5,0.5-0.5h11.1
				c0.3,0,0.5,0.2,0.5,0.5v2.6c0,0.3-0.2,0.5-0.5,0.5h-7.8v3.3h7c0.3,0,0.5,0.2,0.5,0.5v2.5c0,0.3-0.2,0.5-0.5,0.5h-7v3.6h8.1
				c0.3,0,0.5,0.2,0.5,0.5v2.7c0,0.3-0.2,0.5-0.5,0.5L105.8,46.4L105.8,46.4z M97.5,46.4c-5.2,0-7-3.5-7-6.6v-4.9
				c0-3,2.2-6.2,6.9-6.2h5.4c0.3,0,0.5,0.2,0.5,0.5v2.7c0,0.3-0.2,0.5-0.5,0.5h-6.1c-1.7,0-2.5,0.9-2.5,2.9v4.7c0,2.2,1.8,3,3.3,3
				h5.2c0.3,0,0.5,0.2,0.5,0.5v2.5c0,0.3-0.2,0.5-0.5,0.5L97.5,46.4L97.5,46.4z M69.8,46.4c-0.2,0-0.4-0.1-0.4-0.3l-1.1-2.8h-7.7
				l-1.1,2.8c-0.1,0.2-0.2,0.3-0.4,0.3h-3.1c-0.2,0-0.3-0.1-0.4-0.2c-0.1-0.1-0.1-0.3,0-0.5L62.8,29c0.1-0.2,0.2-0.3,0.4-0.3h2.4
				c0.2,0,0.4,0.1,0.4,0.3l7.5,16.7c0.1,0.1,0.1,0.3,0,0.5c-0.1,0.1-0.2,0.2-0.4,0.2C73.2,46.4,69.8,46.4,69.8,46.4z M66.8,39.8
				l-2.5-6l-2.4,6H66.8z M49.1,46.4c-0.2,0-0.4-0.1-0.4-0.3l-6.4-16.8c-0.1-0.1,0-0.3,0.1-0.4c0.1-0.1,0.2-0.2,0.4-0.2H46
				c0.2,0,0.4,0.1,0.4,0.3l4.3,12.3L55.1,29c0.1-0.2,0.2-0.3,0.5-0.3h3c0.2,0,0.3,0.1,0.4,0.2c0.1,0.1,0.1,0.3,0.1,0.4L52.7,46
				c-0.1,0.2-0.2,0.3-0.4,0.3H49.1z M28.5,46.4c-0.1,0-0.3-0.1-0.3-0.1c-0.1-0.1-0.1-0.2-0.1-0.3l0-16.7c0-0.3,0.2-0.5,0.5-0.5H36
				c5.2,0,7,3.5,7,6.6v4.9c0,3-2.2,6.2-6.9,6.2H28.5z M36.8,42.7c1.7,0,2.5-0.9,2.5-2.9v-4.7c0-2.2-1.8-3-3.3-3h-4v10.5H36.8z
				 M23.8,46.4c-0.2,0-0.4-0.1-0.4-0.3l-1.1-2.8h-7.7l-1.1,2.8c-0.1,0.2-0.2,0.3-0.4,0.3H9.7c-0.2,0-0.3-0.1-0.4-0.2
				c-0.1-0.1-0.1-0.3,0-0.5L16.7,29c0.1-0.2,0.2-0.3,0.4-0.3h2.4c0.2,0,0.4,0.1,0.4,0.3l7.5,16.7c0.1,0.1,0.1,0.3,0,0.5
				c-0.1,0.1-0.2,0.2-0.4,0.2C27.1,46.4,23.8,46.4,23.8,46.4z M20.8,39.8l-2.5-6l-2.4,6H20.8z"/>
		</defs>
		<clipPath id="SVGID_7_">
			<use xlink:href="#SVGID_6_"  overflow="visible"/>
		</clipPath>
		<path clip-path="url(#SVGID_7_)" fill="#FFFFFF" d="M85.1,39.9l-7.6-11.4h-3.8v17l-7.6-17h-3.3l-8,18h4.6l1.3-3.1h7.5l1.3,3.1h4.4
			v0.1h4.1v-11l7.3,10.9h4v-18h-4L85.1,39.9L85.1,39.9z M62.2,39.6l2.2-5.3l2.2,5.3H62.2z"/>
	</g>
	<g>
		<defs>
			<path id="SVGID_8_" d="M74.4,46.4c-0.3,0-0.5-0.2-0.5-0.5V29.2c0-0.3,0.2-0.5,0.5-0.5h2.8c0.2,0,0.3,0.1,0.4,0.2l7.7,11.6V29.2
				c0-0.3,0.2-0.5,0.5-0.5h2.7c0.3,0,0.5,0.2,0.5,0.5v16.7c0,0.3-0.2,0.5-0.5,0.5h-3c-0.2,0-0.3-0.1-0.4-0.2L77.6,35v10.9
				c0,0.3-0.2,0.5-0.5,0.5L74.4,46.4L74.4,46.4z M105.8,46.4c-0.3,0-0.5-0.2-0.5-0.5V29.2c0-0.3,0.2-0.5,0.5-0.5h11.1
				c0.3,0,0.5,0.2,0.5,0.5v2.6c0,0.3-0.2,0.5-0.5,0.5h-7.8v3.3h7c0.3,0,0.5,0.2,0.5,0.5v2.5c0,0.3-0.2,0.5-0.5,0.5h-7v3.6h8.1
				c0.3,0,0.5,0.2,0.5,0.5v2.7c0,0.3-0.2,0.5-0.5,0.5L105.8,46.4L105.8,46.4z M97.5,46.4c-5.2,0-7-3.5-7-6.6v-4.9
				c0-3,2.2-6.2,6.9-6.2h5.4c0.3,0,0.5,0.2,0.5,0.5v2.7c0,0.3-0.2,0.5-0.5,0.5h-6.1c-1.7,0-2.5,0.9-2.5,2.9v4.7c0,2.2,1.8,3,3.3,3
				h5.2c0.3,0,0.5,0.2,0.5,0.5v2.5c0,0.3-0.2,0.5-0.5,0.5L97.5,46.4L97.5,46.4z M69.8,46.4c-0.2,0-0.4-0.1-0.4-0.3l-1.1-2.8h-7.7
				l-1.1,2.8c-0.1,0.2-0.2,0.3-0.4,0.3h-3.1c-0.2,0-0.3-0.1-0.4-0.2c-0.1-0.1-0.1-0.3,0-0.5L62.8,29c0.1-0.2,0.2-0.3,0.4-0.3h2.4
				c0.2,0,0.4,0.1,0.4,0.3l7.5,16.7c0.1,0.1,0.1,0.3,0,0.5c-0.1,0.1-0.2,0.2-0.4,0.2C73.2,46.4,69.8,46.4,69.8,46.4z M66.8,39.8
				l-2.5-6l-2.4,6H66.8z M49.1,46.4c-0.2,0-0.4-0.1-0.4-0.3l-6.4-16.8c-0.1-0.1,0-0.3,0.1-0.4c0.1-0.1,0.2-0.2,0.4-0.2H46
				c0.2,0,0.4,0.1,0.4,0.3l4.3,12.3L55.1,29c0.1-0.2,0.2-0.3,0.5-0.3h3c0.2,0,0.3,0.1,0.4,0.2c0.1,0.1,0.1,0.3,0.1,0.4L52.7,46
				c-0.1,0.2-0.2,0.3-0.4,0.3H49.1z M28.5,46.4c-0.1,0-0.3-0.1-0.3-0.1c-0.1-0.1-0.1-0.2-0.1-0.3l0-16.7c0-0.3,0.2-0.5,0.5-0.5H36
				c5.2,0,7,3.5,7,6.6v4.9c0,3-2.2,6.2-6.9,6.2H28.5z M36.8,42.7c1.7,0,2.5-0.9,2.5-2.9v-4.7c0-2.2-1.8-3-3.3-3h-4v10.5H36.8z
				 M23.8,46.4c-0.2,0-0.4-0.1-0.4-0.3l-1.1-2.8h-7.7l-1.1,2.8c-0.1,0.2-0.2,0.3-0.4,0.3H9.7c-0.2,0-0.3-0.1-0.4-0.2
				c-0.1-0.1-0.1-0.3,0-0.5L16.7,29c0.1-0.2,0.2-0.3,0.4-0.3h2.4c0.2,0,0.4,0.1,0.4,0.3l7.5,16.7c0.1,0.1,0.1,0.3,0,0.5
				c-0.1,0.1-0.2,0.2-0.4,0.2C27.1,46.4,23.8,46.4,23.8,46.4z M20.8,39.8l-2.5-6l-2.4,6H20.8z"/>
		</defs>
		<clipPath id="SVGID_9_">
			<use xlink:href="#SVGID_8_"  overflow="visible"/>
		</clipPath>
		<path clip-path="url(#SVGID_9_)" fill="#FFFFFF" d="M90.3,34.9v4.9c0,3.1,1.9,6.8,7.2,6.8h6v-3.9h-5.9c-1.5,0-3.2-0.7-3.2-2.8
			v-4.7c0-1.8,0.7-2.7,2.3-2.7h6.8v-4h-6.1C92.5,28.5,90.3,31.8,90.3,34.9z"/>
	</g>
	<g>
		<defs>
			<path id="SVGID_10_" d="M74.4,46.4c-0.3,0-0.5-0.2-0.5-0.5V29.2c0-0.3,0.2-0.5,0.5-0.5h2.8c0.2,0,0.3,0.1,0.4,0.2l7.7,11.6V29.2
				c0-0.3,0.2-0.5,0.5-0.5h2.7c0.3,0,0.5,0.2,0.5,0.5v16.7c0,0.3-0.2,0.5-0.5,0.5h-3c-0.2,0-0.3-0.1-0.4-0.2L77.6,35v10.9
				c0,0.3-0.2,0.5-0.5,0.5L74.4,46.4L74.4,46.4z M105.8,46.4c-0.3,0-0.5-0.2-0.5-0.5V29.2c0-0.3,0.2-0.5,0.5-0.5h11.1
				c0.3,0,0.5,0.2,0.5,0.5v2.6c0,0.3-0.2,0.5-0.5,0.5h-7.8v3.3h7c0.3,0,0.5,0.2,0.5,0.5v2.5c0,0.3-0.2,0.5-0.5,0.5h-7v3.6h8.1
				c0.3,0,0.5,0.2,0.5,0.5v2.7c0,0.3-0.2,0.5-0.5,0.5L105.8,46.4L105.8,46.4z M97.5,46.4c-5.2,0-7-3.5-7-6.6v-4.9
				c0-3,2.2-6.2,6.9-6.2h5.4c0.3,0,0.5,0.2,0.5,0.5v2.7c0,0.3-0.2,0.5-0.5,0.5h-6.1c-1.7,0-2.5,0.9-2.5,2.9v4.7c0,2.2,1.8,3,3.3,3
				h5.2c0.3,0,0.5,0.2,0.5,0.5v2.5c0,0.3-0.2,0.5-0.5,0.5L97.5,46.4L97.5,46.4z M69.8,46.4c-0.2,0-0.4-0.1-0.4-0.3l-1.1-2.8h-7.7
				l-1.1,2.8c-0.1,0.2-0.2,0.3-0.4,0.3h-3.1c-0.2,0-0.3-0.1-0.4-0.2c-0.1-0.1-0.1-0.3,0-0.5L62.8,29c0.1-0.2,0.2-0.3,0.4-0.3h2.4
				c0.2,0,0.4,0.1,0.4,0.3l7.5,16.7c0.1,0.1,0.1,0.3,0,0.5c-0.1,0.1-0.2,0.2-0.4,0.2C73.2,46.4,69.8,46.4,69.8,46.4z M66.8,39.8
				l-2.5-6l-2.4,6H66.8z M49.1,46.4c-0.2,0-0.4-0.1-0.4-0.3l-6.4-16.8c-0.1-0.1,0-0.3,0.1-0.4c0.1-0.1,0.2-0.2,0.4-0.2H46
				c0.2,0,0.4,0.1,0.4,0.3l4.3,12.3L55.1,29c0.1-0.2,0.2-0.3,0.5-0.3h3c0.2,0,0.3,0.1,0.4,0.2c0.1,0.1,0.1,0.3,0.1,0.4L52.7,46
				c-0.1,0.2-0.2,0.3-0.4,0.3H49.1z M28.5,46.4c-0.1,0-0.3-0.1-0.3-0.1c-0.1-0.1-0.1-0.2-0.1-0.3l0-16.7c0-0.3,0.2-0.5,0.5-0.5H36
				c5.2,0,7,3.5,7,6.6v4.9c0,3-2.2,6.2-6.9,6.2H28.5z M36.8,42.7c1.7,0,2.5-0.9,2.5-2.9v-4.7c0-2.2-1.8-3-3.3-3h-4v10.5H36.8z
				 M23.8,46.4c-0.2,0-0.4-0.1-0.4-0.3l-1.1-2.8h-7.7l-1.1,2.8c-0.1,0.2-0.2,0.3-0.4,0.3H9.7c-0.2,0-0.3-0.1-0.4-0.2
				c-0.1-0.1-0.1-0.3,0-0.5L16.7,29c0.1-0.2,0.2-0.3,0.4-0.3h2.4c0.2,0,0.4,0.1,0.4,0.3l7.5,16.7c0.1,0.1,0.1,0.3,0,0.5
				c-0.1,0.1-0.2,0.2-0.4,0.2C27.1,46.4,23.8,46.4,23.8,46.4z M20.8,39.8l-2.5-6l-2.4,6H20.8z"/>
		</defs>
		<clipPath id="SVGID_11_">
			<use xlink:href="#SVGID_10_"  overflow="visible"/>
		</clipPath>
		<polygon clip-path="url(#SVGID_11_)" fill="#FFFFFF" points="109.3,39.3 116.8,39.3 116.8,35.4 109.3,35.4 109.3,32.4 117.5,32.4 
			117.5,28.5 105.1,28.5 105.1,46.6 117.8,46.6 117.8,42.5 109.3,42.5 		"/>
	</g>
</g>
<ellipse fill="#FFFFFF" cx="119.6" cy="30.5" rx="1.5" ry="1.5"/>
<path fill="#FFFFFF" d="M64.4,32.5l-3.1,7.8h6.3L64.4,32.5z M63.2,29.2h2.4l7.5,16.7h-3.3l-1.3-3.1h-8.4l-1.3,3.1h-3.1L63.2,29.2z
	 M36.8,43.2c1.2,0,3-0.4,3-3.3v-4.7c0-2.3-1.7-3.5-3.8-3.5h-4.5v11.5C31.4,43.2,36.8,43.2,36.8,43.2z M36,29.2
	c4.8,0,6.5,3.2,6.5,6.1v4.9c0,2.8-1.9,5.7-6.4,5.7h-7.5l0-16.7C28.6,29.2,36,29.2,36,29.2z M18.3,32.5l-3.1,7.8h6.3L18.3,32.5z
	 M17.2,29.2h2.4l7.5,16.7h-3.3l-1.3-3.1h-8.4l-1.3,3.1H9.7L17.2,29.2z M116.9,29.2v2.6h-8.3v4.3h7.5v2.5h-7.5v4.5h8.5v2.7h-11.3
	V29.2H116.9z M46,29.1l4.8,13.6l4.8-13.6h3l-6.2,16.7h-3.1l-6.4-16.8L46,29.1L46,29.1z M74.4,29.2h2.8l8.6,13v-13h2.7v16.7h-3
	l-8.3-12.5v12.5h-2.7L74.4,29.2L74.4,29.2z M97.4,29.2h5.4v2.7h-6.1c-1.2,0-3,0.4-3,3.3v4.7c0,2.3,1.7,3.5,3.8,3.5h5.2v2.5h-5.3
	c-4.8,0-6.5-3.2-6.5-6.1v-4.9C90.9,32.2,92.9,29.2,97.4,29.2z"/>
<path fill="#FFFFFF" d="M118.7,30.5c0,0.6,0.4,1,0.9,1c0.5,0,0.9-0.4,0.9-1c0-0.6-0.4-1-0.9-1C119.1,29.6,118.7,30,118.7,30.5z
	 M118.3,30.5c0-0.7,0.6-1.2,1.3-1.2c0.7,0,1.3,0.5,1.3,1.2c0,0.7-0.6,1.2-1.3,1.2C118.9,31.8,118.3,31.3,118.3,30.5z"/>
<path fill="#FFFFFF" d="M119.4,30.1v0.4h0.2c0.2,0,0.3,0,0.3-0.2c0-0.1-0.2-0.2-0.3-0.2H119.4z M119.1,31.2v-1.4h0.5
	c0.3,0,0.5,0.1,0.5,0.4c0,0.3-0.2,0.4-0.4,0.4l0.4,0.6h-0.3l-0.3-0.6h-0.2v0.6C119.4,31.2,119.1,31.2,119.1,31.2z"/>
<g>
	<g>
		<path id="SVGID_3_" fill="#8E9090" d="M74.4,46.4c-0.3,0-0.5-0.2-0.5-0.5V29.2c0-0.3,0.2-0.5,0.5-0.5h2.8c0.2,0,0.3,0.1,0.4,0.2
			l7.7,11.6V29.2c0-0.3,0.2-0.5,0.5-0.5h2.7c0.3,0,0.5,0.2,0.5,0.5v16.7c0,0.3-0.2,0.5-0.5,0.5h-3c-0.2,0-0.3-0.1-0.4-0.2L77.6,35
			v10.9c0,0.3-0.2,0.5-0.5,0.5L74.4,46.4L74.4,46.4z M105.8,46.4c-0.3,0-0.5-0.2-0.5-0.5V29.2c0-0.3,0.2-0.5,0.5-0.5h11.1
			c0.3,0,0.5,0.2,0.5,0.5v2.6c0,0.3-0.2,0.5-0.5,0.5h-7.8v3.3h7c0.3,0,0.5,0.2,0.5,0.5v2.5c0,0.3-0.2,0.5-0.5,0.5h-7v3.6h8.1
			c0.3,0,0.5,0.2,0.5,0.5v2.7c0,0.3-0.2,0.5-0.5,0.5L105.8,46.4L105.8,46.4z M97.5,46.4c-5.2,0-7-3.5-7-6.6v-4.9
			c0-3,2.2-6.2,6.9-6.2h5.4c0.3,0,0.5,0.2,0.5,0.5v2.7c0,0.3-0.2,0.5-0.5,0.5h-6.1c-1.7,0-2.5,0.9-2.5,2.9v4.7c0,2.2,1.8,3,3.3,3
			h5.2c0.3,0,0.5,0.2,0.5,0.5v2.5c0,0.3-0.2,0.5-0.5,0.5L97.5,46.4L97.5,46.4z M69.8,46.4c-0.2,0-0.4-0.1-0.4-0.3l-1.1-2.8h-7.7
			l-1.1,2.8c-0.1,0.2-0.2,0.3-0.4,0.3h-3.1c-0.2,0-0.3-0.1-0.4-0.2c-0.1-0.1-0.1-0.3,0-0.5L62.8,29c0.1-0.2,0.2-0.3,0.4-0.3h2.4
			c0.2,0,0.4,0.1,0.4,0.3l7.5,16.7c0.1,0.1,0.1,0.3,0,0.5c-0.1,0.1-0.2,0.2-0.4,0.2C73.2,46.4,69.8,46.4,69.8,46.4z M66.8,39.8
			l-2.5-6l-2.4,6H66.8z M49.1,46.4c-0.2,0-0.4-0.1-0.4-0.3l-6.4-16.8c-0.1-0.1,0-0.3,0.1-0.4c0.1-0.1,0.2-0.2,0.4-0.2H46
			c0.2,0,0.4,0.1,0.4,0.3l4.3,12.3L55.1,29c0.1-0.2,0.2-0.3,0.5-0.3h3c0.2,0,0.3,0.1,0.4,0.2c0.1,0.1,0.1,0.3,0.1,0.4L52.7,46
			c-0.1,0.2-0.2,0.3-0.4,0.3H49.1z M28.5,46.4c-0.1,0-0.3-0.1-0.3-0.1c-0.1-0.1-0.1-0.2-0.1-0.3l0-16.7c0-0.3,0.2-0.5,0.5-0.5H36
			c5.2,0,7,3.5,7,6.6v4.9c0,3-2.2,6.2-6.9,6.2H28.5z M36.8,42.7c1.7,0,2.5-0.9,2.5-2.9v-4.7c0-2.2-1.8-3-3.3-3h-4v10.5H36.8z
			 M23.8,46.4c-0.2,0-0.4-0.1-0.4-0.3l-1.1-2.8h-7.7l-1.1,2.8c-0.1,0.2-0.2,0.3-0.4,0.3H9.7c-0.2,0-0.3-0.1-0.4-0.2
			c-0.1-0.1-0.1-0.3,0-0.5L16.7,29c0.1-0.2,0.2-0.3,0.4-0.3h2.4c0.2,0,0.4,0.1,0.4,0.3l7.5,16.7c0.1,0.1,0.1,0.3,0,0.5
			c-0.1,0.1-0.2,0.2-0.4,0.2C27.1,46.4,23.8,46.4,23.8,46.4z M20.8,39.8l-2.5-6l-2.4,6H20.8z"/>
	</g>
	<g>
		<defs>
			<path id="SVGID_12_" d="M74.4,46.4c-0.3,0-0.5-0.2-0.5-0.5V29.2c0-0.3,0.2-0.5,0.5-0.5h2.8c0.2,0,0.3,0.1,0.4,0.2l7.7,11.6V29.2
				c0-0.3,0.2-0.5,0.5-0.5h2.7c0.3,0,0.5,0.2,0.5,0.5v16.7c0,0.3-0.2,0.5-0.5,0.5h-3c-0.2,0-0.3-0.1-0.4-0.2L77.6,35v10.9
				c0,0.3-0.2,0.5-0.5,0.5L74.4,46.4L74.4,46.4z M105.8,46.4c-0.3,0-0.5-0.2-0.5-0.5V29.2c0-0.3,0.2-0.5,0.5-0.5h11.1
				c0.3,0,0.5,0.2,0.5,0.5v2.6c0,0.3-0.2,0.5-0.5,0.5h-7.8v3.3h7c0.3,0,0.5,0.2,0.5,0.5v2.5c0,0.3-0.2,0.5-0.5,0.5h-7v3.6h8.1
				c0.3,0,0.5,0.2,0.5,0.5v2.7c0,0.3-0.2,0.5-0.5,0.5L105.8,46.4L105.8,46.4z M97.5,46.4c-5.2,0-7-3.5-7-6.6v-4.9
				c0-3,2.2-6.2,6.9-6.2h5.4c0.3,0,0.5,0.2,0.5,0.5v2.7c0,0.3-0.2,0.5-0.5,0.5h-6.1c-1.7,0-2.5,0.9-2.5,2.9v4.7c0,2.2,1.8,3,3.3,3
				h5.2c0.3,0,0.5,0.2,0.5,0.5v2.5c0,0.3-0.2,0.5-0.5,0.5L97.5,46.4L97.5,46.4z M69.8,46.4c-0.2,0-0.4-0.1-0.4-0.3l-1.1-2.8h-7.7
				l-1.1,2.8c-0.1,0.2-0.2,0.3-0.4,0.3h-3.1c-0.2,0-0.3-0.1-0.4-0.2c-0.1-0.1-0.1-0.3,0-0.5L62.8,29c0.1-0.2,0.2-0.3,0.4-0.3h2.4
				c0.2,0,0.4,0.1,0.4,0.3l7.5,16.7c0.1,0.1,0.1,0.3,0,0.5c-0.1,0.1-0.2,0.2-0.4,0.2C73.2,46.4,69.8,46.4,69.8,46.4z M66.8,39.8
				l-2.5-6l-2.4,6H66.8z M49.1,46.4c-0.2,0-0.4-0.1-0.4-0.3l-6.4-16.8c-0.1-0.1,0-0.3,0.1-0.4c0.1-0.1,0.2-0.2,0.4-0.2H46
				c0.2,0,0.4,0.1,0.4,0.3l4.3,12.3L55.1,29c0.1-0.2,0.2-0.3,0.5-0.3h3c0.2,0,0.3,0.1,0.4,0.2c0.1,0.1,0.1,0.3,0.1,0.4L52.7,46
				c-0.1,0.2-0.2,0.3-0.4,0.3H49.1z M28.5,46.4c-0.1,0-0.3-0.1-0.3-0.1c-0.1-0.1-0.1-0.2-0.1-0.3l0-16.7c0-0.3,0.2-0.5,0.5-0.5H36
				c5.2,0,7,3.5,7,6.6v4.9c0,3-2.2,6.2-6.9,6.2H28.5z M36.8,42.7c1.7,0,2.5-0.9,2.5-2.9v-4.7c0-2.2-1.8-3-3.3-3h-4v10.5H36.8z
				 M23.8,46.4c-0.2,0-0.4-0.1-0.4-0.3l-1.1-2.8h-7.7l-1.1,2.8c-0.1,0.2-0.2,0.3-0.4,0.3H9.7c-0.2,0-0.3-0.1-0.4-0.2
				c-0.1-0.1-0.1-0.3,0-0.5L16.7,29c0.1-0.2,0.2-0.3,0.4-0.3h2.4c0.2,0,0.4,0.1,0.4,0.3l7.5,16.7c0.1,0.1,0.1,0.3,0,0.5
				c-0.1,0.1-0.2,0.2-0.4,0.2C27.1,46.4,23.8,46.4,23.8,46.4z M20.8,39.8l-2.5-6l-2.4,6H20.8z"/>
		</defs>
		<clipPath id="SVGID_13_">
			<use xlink:href="#SVGID_12_"  overflow="visible"/>
		</clipPath>
		<path clip-path="url(#SVGID_13_)" fill="#8E9090" d="M36,28.5h-8.1l0,17.5L20,28.5h-3.3l-8,18h4.6l1.3-3.1H22l1.3,3.1h12.8
			c4.9,0,7.1-3.3,7.1-6.4v-4.9C43.2,32.1,41.3,28.5,36,28.5z M16.1,39.6l2.2-5.3l2.2,5.3H16.1z M39.1,39.9c0,2.4-1.3,2.7-2.3,2.7
			h-4.7V32.4h3.8c1.5,0,3.2,0.7,3.2,2.8L39.1,39.9L39.1,39.9z"/>
	</g>
	<g>
		<defs>
			<path id="SVGID_14_" d="M74.4,46.4c-0.3,0-0.5-0.2-0.5-0.5V29.2c0-0.3,0.2-0.5,0.5-0.5h2.8c0.2,0,0.3,0.1,0.4,0.2l7.7,11.6V29.2
				c0-0.3,0.2-0.5,0.5-0.5h2.7c0.3,0,0.5,0.2,0.5,0.5v16.7c0,0.3-0.2,0.5-0.5,0.5h-3c-0.2,0-0.3-0.1-0.4-0.2L77.6,35v10.9
				c0,0.3-0.2,0.5-0.5,0.5L74.4,46.4L74.4,46.4z M105.8,46.4c-0.3,0-0.5-0.2-0.5-0.5V29.2c0-0.3,0.2-0.5,0.5-0.5h11.1
				c0.3,0,0.5,0.2,0.5,0.5v2.6c0,0.3-0.2,0.5-0.5,0.5h-7.8v3.3h7c0.3,0,0.5,0.2,0.5,0.5v2.5c0,0.3-0.2,0.5-0.5,0.5h-7v3.6h8.1
				c0.3,0,0.5,0.2,0.5,0.5v2.7c0,0.3-0.2,0.5-0.5,0.5L105.8,46.4L105.8,46.4z M97.5,46.4c-5.2,0-7-3.5-7-6.6v-4.9
				c0-3,2.2-6.2,6.9-6.2h5.4c0.3,0,0.5,0.2,0.5,0.5v2.7c0,0.3-0.2,0.5-0.5,0.5h-6.1c-1.7,0-2.5,0.9-2.5,2.9v4.7c0,2.2,1.8,3,3.3,3
				h5.2c0.3,0,0.5,0.2,0.5,0.5v2.5c0,0.3-0.2,0.5-0.5,0.5L97.5,46.4L97.5,46.4z M69.8,46.4c-0.2,0-0.4-0.1-0.4-0.3l-1.1-2.8h-7.7
				l-1.1,2.8c-0.1,0.2-0.2,0.3-0.4,0.3h-3.1c-0.2,0-0.3-0.1-0.4-0.2c-0.1-0.1-0.1-0.3,0-0.5L62.8,29c0.1-0.2,0.2-0.3,0.4-0.3h2.4
				c0.2,0,0.4,0.1,0.4,0.3l7.5,16.7c0.1,0.1,0.1,0.3,0,0.5c-0.1,0.1-0.2,0.2-0.4,0.2C73.2,46.4,69.8,46.4,69.8,46.4z M66.8,39.8
				l-2.5-6l-2.4,6H66.8z M49.1,46.4c-0.2,0-0.4-0.1-0.4-0.3l-6.4-16.8c-0.1-0.1,0-0.3,0.1-0.4c0.1-0.1,0.2-0.2,0.4-0.2H46
				c0.2,0,0.4,0.1,0.4,0.3l4.3,12.3L55.1,29c0.1-0.2,0.2-0.3,0.5-0.3h3c0.2,0,0.3,0.1,0.4,0.2c0.1,0.1,0.1,0.3,0.1,0.4L52.7,46
				c-0.1,0.2-0.2,0.3-0.4,0.3H49.1z M28.5,46.4c-0.1,0-0.3-0.1-0.3-0.1c-0.1-0.1-0.1-0.2-0.1-0.3l0-16.7c0-0.3,0.2-0.5,0.5-0.5H36
				c5.2,0,7,3.5,7,6.6v4.9c0,3-2.2,6.2-6.9,6.2H28.5z M36.8,42.7c1.7,0,2.5-0.9,2.5-2.9v-4.7c0-2.2-1.8-3-3.3-3h-4v10.5H36.8z
				 M23.8,46.4c-0.2,0-0.4-0.1-0.4-0.3l-1.1-2.8h-7.7l-1.1,2.8c-0.1,0.2-0.2,0.3-0.4,0.3H9.7c-0.2,0-0.3-0.1-0.4-0.2
				c-0.1-0.1-0.1-0.3,0-0.5L16.7,29c0.1-0.2,0.2-0.3,0.4-0.3h2.4c0.2,0,0.4,0.1,0.4,0.3l7.5,16.7c0.1,0.1,0.1,0.3,0,0.5
				c-0.1,0.1-0.2,0.2-0.4,0.2C27.1,46.4,23.8,46.4,23.8,46.4z M20.8,39.8l-2.5-6l-2.4,6H20.8z"/>
		</defs>
		<clipPath id="SVGID_15_">
			<use xlink:href="#SVGID_14_"  overflow="visible"/>
		</clipPath>
		<polygon clip-path="url(#SVGID_15_)" fill="#8E9090" points="55,28.5 50.7,40.7 46.4,28.4 41.7,28.4 48.6,46.6 52.7,46.6 
			59.4,28.5 		"/>
	</g>
	<g>
		<defs>
			<path id="SVGID_16_" d="M74.4,46.4c-0.3,0-0.5-0.2-0.5-0.5V29.2c0-0.3,0.2-0.5,0.5-0.5h2.8c0.2,0,0.3,0.1,0.4,0.2l7.7,11.6V29.2
				c0-0.3,0.2-0.5,0.5-0.5h2.7c0.3,0,0.5,0.2,0.5,0.5v16.7c0,0.3-0.2,0.5-0.5,0.5h-3c-0.2,0-0.3-0.1-0.4-0.2L77.6,35v10.9
				c0,0.3-0.2,0.5-0.5,0.5L74.4,46.4L74.4,46.4z M105.8,46.4c-0.3,0-0.5-0.2-0.5-0.5V29.2c0-0.3,0.2-0.5,0.5-0.5h11.1
				c0.3,0,0.5,0.2,0.5,0.5v2.6c0,0.3-0.2,0.5-0.5,0.5h-7.8v3.3h7c0.3,0,0.5,0.2,0.5,0.5v2.5c0,0.3-0.2,0.5-0.5,0.5h-7v3.6h8.1
				c0.3,0,0.5,0.2,0.5,0.5v2.7c0,0.3-0.2,0.5-0.5,0.5L105.8,46.4L105.8,46.4z M97.5,46.4c-5.2,0-7-3.5-7-6.6v-4.9
				c0-3,2.2-6.2,6.9-6.2h5.4c0.3,0,0.5,0.2,0.5,0.5v2.7c0,0.3-0.2,0.5-0.5,0.5h-6.1c-1.7,0-2.5,0.9-2.5,2.9v4.7c0,2.2,1.8,3,3.3,3
				h5.2c0.3,0,0.5,0.2,0.5,0.5v2.5c0,0.3-0.2,0.5-0.5,0.5L97.5,46.4L97.5,46.4z M69.8,46.4c-0.2,0-0.4-0.1-0.4-0.3l-1.1-2.8h-7.7
				l-1.1,2.8c-0.1,0.2-0.2,0.3-0.4,0.3h-3.1c-0.2,0-0.3-0.1-0.4-0.2c-0.1-0.1-0.1-0.3,0-0.5L62.8,29c0.1-0.2,0.2-0.3,0.4-0.3h2.4
				c0.2,0,0.4,0.1,0.4,0.3l7.5,16.7c0.1,0.1,0.1,0.3,0,0.5c-0.1,0.1-0.2,0.2-0.4,0.2C73.2,46.4,69.8,46.4,69.8,46.4z M66.8,39.8
				l-2.5-6l-2.4,6H66.8z M49.1,46.4c-0.2,0-0.4-0.1-0.4-0.3l-6.4-16.8c-0.1-0.1,0-0.3,0.1-0.4c0.1-0.1,0.2-0.2,0.4-0.2H46
				c0.2,0,0.4,0.1,0.4,0.3l4.3,12.3L55.1,29c0.1-0.2,0.2-0.3,0.5-0.3h3c0.2,0,0.3,0.1,0.4,0.2c0.1,0.1,0.1,0.3,0.1,0.4L52.7,46
				c-0.1,0.2-0.2,0.3-0.4,0.3H49.1z M28.5,46.4c-0.1,0-0.3-0.1-0.3-0.1c-0.1-0.1-0.1-0.2-0.1-0.3l0-16.7c0-0.3,0.2-0.5,0.5-0.5H36
				c5.2,0,7,3.5,7,6.6v4.9c0,3-2.2,6.2-6.9,6.2H28.5z M36.8,42.7c1.7,0,2.5-0.9,2.5-2.9v-4.7c0-2.2-1.8-3-3.3-3h-4v10.5H36.8z
				 M23.8,46.4c-0.2,0-0.4-0.1-0.4-0.3l-1.1-2.8h-7.7l-1.1,2.8c-0.1,0.2-0.2,0.3-0.4,0.3H9.7c-0.2,0-0.3-0.1-0.4-0.2
				c-0.1-0.1-0.1-0.3,0-0.5L16.7,29c0.1-0.2,0.2-0.3,0.4-0.3h2.4c0.2,0,0.4,0.1,0.4,0.3l7.5,16.7c0.1,0.1,0.1,0.3,0,0.5
				c-0.1,0.1-0.2,0.2-0.4,0.2C27.1,46.4,23.8,46.4,23.8,46.4z M20.8,39.8l-2.5-6l-2.4,6H20.8z"/>
		</defs>
		<clipPath id="SVGID_17_">
			<use xlink:href="#SVGID_16_"  overflow="visible"/>
		</clipPath>
		<path clip-path="url(#SVGID_17_)" fill="#8E9090" d="M85.1,39.9l-7.6-11.4h-3.8v17l-7.6-17h-3.3l-8,18h4.6l1.3-3.1h7.5l1.3,3.1
			h4.4v0.1h4.1v-11l7.3,10.9h4v-18h-4L85.1,39.9L85.1,39.9z M62.2,39.6l2.2-5.3l2.2,5.3H62.2z"/>
	</g>
	<g>
		<defs>
			<path id="SVGID_18_" d="M74.4,46.4c-0.3,0-0.5-0.2-0.5-0.5V29.2c0-0.3,0.2-0.5,0.5-0.5h2.8c0.2,0,0.3,0.1,0.4,0.2l7.7,11.6V29.2
				c0-0.3,0.2-0.5,0.5-0.5h2.7c0.3,0,0.5,0.2,0.5,0.5v16.7c0,0.3-0.2,0.5-0.5,0.5h-3c-0.2,0-0.3-0.1-0.4-0.2L77.6,35v10.9
				c0,0.3-0.2,0.5-0.5,0.5L74.4,46.4L74.4,46.4z M105.8,46.4c-0.3,0-0.5-0.2-0.5-0.5V29.2c0-0.3,0.2-0.5,0.5-0.5h11.1
				c0.3,0,0.5,0.2,0.5,0.5v2.6c0,0.3-0.2,0.5-0.5,0.5h-7.8v3.3h7c0.3,0,0.5,0.2,0.5,0.5v2.5c0,0.3-0.2,0.5-0.5,0.5h-7v3.6h8.1
				c0.3,0,0.5,0.2,0.5,0.5v2.7c0,0.3-0.2,0.5-0.5,0.5L105.8,46.4L105.8,46.4z M97.5,46.4c-5.2,0-7-3.5-7-6.6v-4.9
				c0-3,2.2-6.2,6.9-6.2h5.4c0.3,0,0.5,0.2,0.5,0.5v2.7c0,0.3-0.2,0.5-0.5,0.5h-6.1c-1.7,0-2.5,0.9-2.5,2.9v4.7c0,2.2,1.8,3,3.3,3
				h5.2c0.3,0,0.5,0.2,0.5,0.5v2.5c0,0.3-0.2,0.5-0.5,0.5L97.5,46.4L97.5,46.4z M69.8,46.4c-0.2,0-0.4-0.1-0.4-0.3l-1.1-2.8h-7.7
				l-1.1,2.8c-0.1,0.2-0.2,0.3-0.4,0.3h-3.1c-0.2,0-0.3-0.1-0.4-0.2c-0.1-0.1-0.1-0.3,0-0.5L62.8,29c0.1-0.2,0.2-0.3,0.4-0.3h2.4
				c0.2,0,0.4,0.1,0.4,0.3l7.5,16.7c0.1,0.1,0.1,0.3,0,0.5c-0.1,0.1-0.2,0.2-0.4,0.2C73.2,46.4,69.8,46.4,69.8,46.4z M66.8,39.8
				l-2.5-6l-2.4,6H66.8z M49.1,46.4c-0.2,0-0.4-0.1-0.4-0.3l-6.4-16.8c-0.1-0.1,0-0.3,0.1-0.4c0.1-0.1,0.2-0.2,0.4-0.2H46
				c0.2,0,0.4,0.1,0.4,0.3l4.3,12.3L55.1,29c0.1-0.2,0.2-0.3,0.5-0.3h3c0.2,0,0.3,0.1,0.4,0.2c0.1,0.1,0.1,0.3,0.1,0.4L52.7,46
				c-0.1,0.2-0.2,0.3-0.4,0.3H49.1z M28.5,46.4c-0.1,0-0.3-0.1-0.3-0.1c-0.1-0.1-0.1-0.2-0.1-0.3l0-16.7c0-0.3,0.2-0.5,0.5-0.5H36
				c5.2,0,7,3.5,7,6.6v4.9c0,3-2.2,6.2-6.9,6.2H28.5z M36.8,42.7c1.7,0,2.5-0.9,2.5-2.9v-4.7c0-2.2-1.8-3-3.3-3h-4v10.5H36.8z
				 M23.8,46.4c-0.2,0-0.4-0.1-0.4-0.3l-1.1-2.8h-7.7l-1.1,2.8c-0.1,0.2-0.2,0.3-0.4,0.3H9.7c-0.2,0-0.3-0.1-0.4-0.2
				c-0.1-0.1-0.1-0.3,0-0.5L16.7,29c0.1-0.2,0.2-0.3,0.4-0.3h2.4c0.2,0,0.4,0.1,0.4,0.3l7.5,16.7c0.1,0.1,0.1,0.3,0,0.5
				c-0.1,0.1-0.2,0.2-0.4,0.2C27.1,46.4,23.8,46.4,23.8,46.4z M20.8,39.8l-2.5-6l-2.4,6H20.8z"/>
		</defs>
		<clipPath id="SVGID_19_">
			<use xlink:href="#SVGID_18_"  overflow="visible"/>
		</clipPath>
		<path clip-path="url(#SVGID_19_)" fill="#8E9090" d="M90.3,34.9v4.9c0,3.1,1.9,6.8,7.2,6.8h6v-3.9h-5.9c-1.5,0-3.2-0.7-3.2-2.8
			v-4.7c0-1.8,0.7-2.7,2.3-2.7h6.8v-4h-6.1C92.5,28.5,90.3,31.8,90.3,34.9z"/>
	</g>
	<g>
		<defs>
			<path id="SVGID_20_" d="M74.4,46.4c-0.3,0-0.5-0.2-0.5-0.5V29.2c0-0.3,0.2-0.5,0.5-0.5h2.8c0.2,0,0.3,0.1,0.4,0.2l7.7,11.6V29.2
				c0-0.3,0.2-0.5,0.5-0.5h2.7c0.3,0,0.5,0.2,0.5,0.5v16.7c0,0.3-0.2,0.5-0.5,0.5h-3c-0.2,0-0.3-0.1-0.4-0.2L77.6,35v10.9
				c0,0.3-0.2,0.5-0.5,0.5L74.4,46.4L74.4,46.4z M105.8,46.4c-0.3,0-0.5-0.2-0.5-0.5V29.2c0-0.3,0.2-0.5,0.5-0.5h11.1
				c0.3,0,0.5,0.2,0.5,0.5v2.6c0,0.3-0.2,0.5-0.5,0.5h-7.8v3.3h7c0.3,0,0.5,0.2,0.5,0.5v2.5c0,0.3-0.2,0.5-0.5,0.5h-7v3.6h8.1
				c0.3,0,0.5,0.2,0.5,0.5v2.7c0,0.3-0.2,0.5-0.5,0.5L105.8,46.4L105.8,46.4z M97.5,46.4c-5.2,0-7-3.5-7-6.6v-4.9
				c0-3,2.2-6.2,6.9-6.2h5.4c0.3,0,0.5,0.2,0.5,0.5v2.7c0,0.3-0.2,0.5-0.5,0.5h-6.1c-1.7,0-2.5,0.9-2.5,2.9v4.7c0,2.2,1.8,3,3.3,3
				h5.2c0.3,0,0.5,0.2,0.5,0.5v2.5c0,0.3-0.2,0.5-0.5,0.5L97.5,46.4L97.5,46.4z M69.8,46.4c-0.2,0-0.4-0.1-0.4-0.3l-1.1-2.8h-7.7
				l-1.1,2.8c-0.1,0.2-0.2,0.3-0.4,0.3h-3.1c-0.2,0-0.3-0.1-0.4-0.2c-0.1-0.1-0.1-0.3,0-0.5L62.8,29c0.1-0.2,0.2-0.3,0.4-0.3h2.4
				c0.2,0,0.4,0.1,0.4,0.3l7.5,16.7c0.1,0.1,0.1,0.3,0,0.5c-0.1,0.1-0.2,0.2-0.4,0.2C73.2,46.4,69.8,46.4,69.8,46.4z M66.8,39.8
				l-2.5-6l-2.4,6H66.8z M49.1,46.4c-0.2,0-0.4-0.1-0.4-0.3l-6.4-16.8c-0.1-0.1,0-0.3,0.1-0.4c0.1-0.1,0.2-0.2,0.4-0.2H46
				c0.2,0,0.4,0.1,0.4,0.3l4.3,12.3L55.1,29c0.1-0.2,0.2-0.3,0.5-0.3h3c0.2,0,0.3,0.1,0.4,0.2c0.1,0.1,0.1,0.3,0.1,0.4L52.7,46
				c-0.1,0.2-0.2,0.3-0.4,0.3H49.1z M28.5,46.4c-0.1,0-0.3-0.1-0.3-0.1c-0.1-0.1-0.1-0.2-0.1-0.3l0-16.7c0-0.3,0.2-0.5,0.5-0.5H36
				c5.2,0,7,3.5,7,6.6v4.9c0,3-2.2,6.2-6.9,6.2H28.5z M36.8,42.7c1.7,0,2.5-0.9,2.5-2.9v-4.7c0-2.2-1.8-3-3.3-3h-4v10.5H36.8z
				 M23.8,46.4c-0.2,0-0.4-0.1-0.4-0.3l-1.1-2.8h-7.7l-1.1,2.8c-0.1,0.2-0.2,0.3-0.4,0.3H9.7c-0.2,0-0.3-0.1-0.4-0.2
				c-0.1-0.1-0.1-0.3,0-0.5L16.7,29c0.1-0.2,0.2-0.3,0.4-0.3h2.4c0.2,0,0.4,0.1,0.4,0.3l7.5,16.7c0.1,0.1,0.1,0.3,0,0.5
				c-0.1,0.1-0.2,0.2-0.4,0.2C27.1,46.4,23.8,46.4,23.8,46.4z M20.8,39.8l-2.5-6l-2.4,6H20.8z"/>
		</defs>
		<clipPath id="SVGID_21_">
			<use xlink:href="#SVGID_20_"  overflow="visible"/>
		</clipPath>
		<polygon clip-path="url(#SVGID_21_)" fill="#8E9090" points="109.3,39.3 116.8,39.3 116.8,35.4 109.3,35.4 109.3,32.4 117.5,32.4 
			117.5,28.5 105.1,28.5 105.1,46.6 117.8,46.6 117.8,42.5 109.3,42.5 		"/>
	</g>
</g>
<ellipse fill="#8E9090" cx="119.6" cy="30.5" rx="1.5" ry="1.5"/>
<path fill="#FFFFFF" d="M64.4,32.5l-3.1,7.8h6.3L64.4,32.5z M63.2,29.2h2.4l7.5,16.7h-3.3l-1.3-3.1h-8.4l-1.3,3.1h-3.1L63.2,29.2z
	 M36.8,43.2c1.2,0,3-0.4,3-3.3v-4.7c0-2.3-1.7-3.5-3.8-3.5h-4.5v11.5C31.4,43.2,36.8,43.2,36.8,43.2z M36,29.2
	c4.8,0,6.5,3.2,6.5,6.1v4.9c0,2.8-1.9,5.7-6.4,5.7h-7.5l0-16.7C28.6,29.2,36,29.2,36,29.2z M18.3,32.5l-3.1,7.8h6.3L18.3,32.5z
	 M17.2,29.2h2.4l7.5,16.7h-3.3l-1.3-3.1h-8.4l-1.3,3.1H9.7L17.2,29.2z M116.9,29.2v2.6h-8.3v4.3h7.5v2.5h-7.5v4.5h8.5v2.7h-11.3
	V29.2H116.9z M46,29.1l4.8,13.6l4.8-13.6h3l-6.2,16.7h-3.1l-6.4-16.8L46,29.1L46,29.1z M74.4,29.2h2.8l8.6,13v-13h2.7v16.7h-3
	l-8.3-12.5v12.5h-2.7L74.4,29.2L74.4,29.2z M97.4,29.2h5.4v2.7h-6.1c-1.2,0-3,0.4-3,3.3v4.7c0,2.3,1.7,3.5,3.8,3.5h5.2v2.5h-5.3
	c-4.8,0-6.5-3.2-6.5-6.1v-4.9C90.9,32.2,92.9,29.2,97.4,29.2z"/>
<path fill="#FFFFFF" d="M118.7,30.5c0,0.6,0.4,1,0.9,1c0.5,0,0.9-0.4,0.9-1c0-0.6-0.4-1-0.9-1C119.1,29.6,118.7,30,118.7,30.5z
	 M118.3,30.5c0-0.7,0.6-1.2,1.3-1.2c0.7,0,1.3,0.5,1.3,1.2c0,0.7-0.6,1.2-1.3,1.2C118.9,31.8,118.3,31.3,118.3,30.5z"/>
<path fill="#FFFFFF" d="M119.4,30.1v0.4h0.2c0.2,0,0.3,0,0.3-0.2c0-0.1-0.2-0.2-0.3-0.2H119.4z M119.1,31.2v-1.4h0.5
	c0.3,0,0.5,0.1,0.5,0.4c0,0.3-0.2,0.4-0.4,0.4l0.4,0.6h-0.3l-0.3-0.6h-0.2v0.6C119.4,31.2,119.1,31.2,119.1,31.2z"/>
</svg>
