<?xml version="1.0" encoding="utf-8"?>
<!-- Generator: Adobe Illustrator 18.0.0, SVG Export Plug-In . SVG Version: 6.00 Build 0)  -->
<!DOCTYPE svg PUBLIC "-//W3C//DTD SVG 1.1//EN" "http://www.w3.org/Graphics/SVG/1.1/DTD/svg11.dtd">
<svg version="1.1" id="Layer_1" xmlns="http://www.w3.org/2000/svg" xmlns:xlink="http://www.w3.org/1999/xlink" x="0px" y="0px"
	 viewBox="0 0 535.8 504.9" enable-background="new 0 0 535.8 504.9" xml:space="preserve">
<g>
	<path fill="#808080" d="M535.8,504.9V0H0v504.9H535.8z M527,8.8v487.2H8.8V8.8H527z"/>
	<path fill="#6F85C2" d="M509.3,109.8c-9.7-0.3-19.4-0.6-29.1-0.3c-20.3,0.3-40.9,1.8-61.2,5c-2.9,0.6-5.9,0.9-8.8,1.5
		c-43,7.4-85.7,21.5-126.9,41.5c-2.9,1.5-5.9,2.9-8.8,4.4c-8.5,4.4-16.8,8.8-25.3,13.8c-2.9,1.8-5.9,3.2-8.8,5.3
		c-43.6,25.9-85.7,59.5-127.2,99.8c-2.9,2.6-5.9,5.6-8.8,8.5c-5.6,5.9-11.2,11.5-16.8,17.4c-0.3,0.3-0.9,0.9-1.2,1.5
		c-2.6,2.6-5,5.3-7.7,8.2c-0.3,0-0.9,0.3-0.9,0.9l10.3-9.4c0.3-0.3,0.6-0.9,0.9-1.2c7.4-7.4,12.4-12.4,14.7-14.7
		c2.7-2.6,5.6-5.6,8.8-8.5c42.1-40.3,84.8-73.6,127.8-99.5c2.9-2.1,5.9-3.5,8.8-5.3c8.5-5,16.8-9.4,25.3-13.8
		c2.9-1.5,5.9-2.9,8.8-4.4c41.2-20,83.9-34.2,126.9-41.5c2.9-0.3,5.9-0.9,8.8-1.5c7.7-1.2,15-2.1,22.7-2.9
		C463.7,111.3,486.4,109.8,509.3,109.8z"/>
	<path fill="#08296C" d="M509.3,109.8c-23,0-45.6,1.5-67.7,4.7c-7.7,1.5-15,2.9-22.7,4.4c-2.9,0.9-5.9,1.5-8.8,2.4v162.2H283.2
		l-8.8,8.8h144.5V122.8c22.4-4.7,45-8.5,67.4-10.3c10.6-1.2,21.2-1.8,32.1-2.1C515.5,110.1,512.6,110.1,509.3,109.8z"/>
	<path fill="#17479E" d="M410.1,121.3c2.9-0.9,5.9-1.5,8.8-2.4c7.7-1.5,15-2.9,22.7-4.4c-7.7,0.9-15,1.8-22.7,2.9
		c-2.9,0.6-5.9,1.2-8.8,1.5c-43,7.4-85.7,21.5-126.9,41.5c-2.9,1.5-5.9,2.9-8.8,4.4c-8.5,4.4-16.8,8.8-25.3,13.8
		c-2.9,1.8-5.9,3.2-8.8,5.3c-43,25.9-85.7,59.2-127.8,99.5h127.8v-91.3c2.9-1.8,5.9-3.8,8.8-5.3c8.5-5,16.8-9.4,25.3-14.1
		c2.9-1.5,5.9-2.9,8.8-4.4v115.1h126.9V121.3z"/>
	<path fill="#08296C" d="M274.4,176.3l8.8-7.9c-2.9,1.5-5.9,2.9-8.8,4.4c-8.5,4.7-16.8,9.1-25.3,14.1c-2.9,1.5-5.9,3.5-8.8,5.3v91.3
		H112.5c-3.2,2.9-6.2,5.9-8.8,8.5c-2.4,2.4-7.4,7.4-14.7,14.7c-0.3,0.3-0.6,0.9-0.9,1.2c0.3-0.3,0.6-0.9,1.2-1.2
		c8.8-7.9,14.7-12.7,17.4-14.4h142.5V189.9C257.6,185.2,265.8,180.5,274.4,176.3z"/>
	<path fill="#536493" d="M283.2,168.4l-8.8,7.9v116l8.8-8.8V168.4z"/>
	<path fill="#9E0B0F" d="M430.4,95.4c11.2-0.9,22.7-1.5,34.2-1.8c-17.7-0.9-34.7-0.3-51.8,2.4c0,0,0,0-0.3,0
		c-0.9,0.3-1.5,0.3-2.4,0.3c-42.1,5.9-84.8,19.4-126.9,40c-2.9,1.2-5.9,2.7-8.8,4.1c-8.5,4.4-16.8,8.8-25.3,13.5
		c-2.9,1.8-5.9,3.5-8.8,5.3c-42.4,25.3-84.8,57.7-127.2,96.9c-2.9,2.9-5.9,5.6-8.8,8.2c-3.8,3.8-7.7,7.7-11.8,11.5
		c-9.4,10-19.1,20.3-28.9,30.9c-0.3,0.3-0.6,0.9-1.2,1.5c-2.4,2.6-4.7,5.3-7.1,8.2c-2.9,2.9-5.9,6.2-8.8,9.4
		c-0.3,0.6-0.6,0.9-1.2,1.2c-1.8,2.4-3.5,4.7-5,7.1c2.1-2.7,4.1-5,6.2-7.4c3.2-3.5,6.5-7.1,9.7-10.3c2.4-2.9,5.3-5.6,7.7-8.2
		c0.6-0.6,0.9-1.2,1.2-1.5c1.8-1.5,3.2-3.5,5-5c7.4-8,14.7-15.3,22.4-23c3.8-3.8,7.7-7.7,11.8-11.5c2.9-2.6,5.9-5.3,8.8-8.2
		c42.4-39.7,84.8-72.1,127.2-97.4c2.9-1.8,5.9-3.5,8.8-5c8.5-5,16.8-9.4,25.3-13.8c2.9-1.5,5.9-2.9,8.8-4.4
		c42.1-20.6,84.8-34.2,126.9-40.3c2.9-0.3,5.9-0.9,8.8-1.5C422.8,96.3,426.6,96,430.4,95.4z"/>
	<path fill="#E77C60" d="M464.6,93.6c-4.7-0.3-9.4-0.6-13.8-1.2c-10.9-0.6-21.2-0.6-31.8-0.3c-2.9,0-5.9,0-8.8,0
		c-42.7,2.7-85.1,13.2-126.9,32.4c-2.9,1.2-5.9,2.7-8.8,4.1c-8.5,3.8-16.8,8.2-25.3,13c-2.9,1.8-5.9,3.5-8.8,5
		c-43,25.6-85.4,59.8-127.2,102.7c-2.9,3.2-5.9,6.2-8.8,9.4c-14.1,15-28.3,30.9-42.1,48c-0.6,0.3-0.9,0.9-1.2,1.5
		c-0.6,0.3-0.9,0.9-1.5,1.8c-1.8,2.1-3.5,4.1-5.3,6.5c-2.4,2.9-5,6.2-7.7,9.1c-0.3,0.6-0.6,1.2-1.2,1.5c0.6-0.3,0.9-0.6,1.2-1.2
		c2.9-3.2,5.9-6.5,8.8-9.4c2.4-2.9,4.7-5.6,7.1-8.2c0.6-0.6,0.9-1.2,1.2-1.5c9.7-10.6,19.4-20.9,28.9-30.9
		c4.1-4.1,7.7-8.5,11.8-12.7c2.9-3.2,5.9-6.2,8.8-9.1c41.8-43.3,84.2-77.7,127.2-103c2.9-1.8,5.9-3.8,8.8-5.3
		c8.5-5,16.8-9.4,25.3-13.2c2.9-1.5,5.9-2.9,8.8-4.1c41.8-19.1,84.2-30,126.9-32.1c0.9-0.3,1.5-0.3,2.4-0.3c0.3,0,0.3,0,0.3,0
		C429.8,93.3,446.9,92.7,464.6,93.6z"/>
	<path fill="#DF1A22" d="M410.1,96.3L410.1,96.3c-42.7,2.1-85.1,13-126.9,32.1c-2.9,1.2-5.9,2.6-8.8,4.1
		c-8.5,3.8-16.8,8.2-25.3,13.2c-2.9,1.5-5.9,3.5-8.8,5.3c-43,25.3-85.4,59.8-127.2,103c-2.9,2.9-5.9,5.9-8.8,9.1
		c-4.1,4.1-7.7,8.5-11.8,12.7c4.1-3.8,7.9-7.7,11.8-11.5c2.9-2.6,5.9-5.3,8.8-8.2c42.4-39.2,84.8-71.5,127.2-96.9
		c2.9-1.8,5.9-3.5,8.8-5.3c8.5-4.7,16.8-9.1,25.3-13.5c2.9-1.5,5.9-2.9,8.8-4.1C325.3,115.7,368,102.2,410.1,96.3z"/>
	<path fill="#E77C60" d="M410.1,66.5l8.8-8.8H274.4v56.2l8.8-11.2V66.5H410.1z"/>
	<path fill="#9E0B0F" d="M418.9,57.7l-8.8,8.8v9.7c-42.7,0.6-85.1,9.4-126.9,26.5l-8.8,11.2c2.9-1.5,5.9-2.7,8.8-4.1
		c41.8-17.7,84.2-27.1,126.9-28.3c2.9,0,5.9,0,8.8,0V57.7z"/>
	<path fill="#DF1A22" d="M410.1,76.3v-9.7H283.2v36.2C325,85.7,367.4,76.8,410.1,76.3z"/>
	<path fill="#DF1A22" d="M240.2,123.1V66.5H113.1v153.1C154.9,178.7,197.2,146.3,240.2,123.1z"/>
	<path fill="#9E0B0F" d="M240.2,66.5v56.5c-43,23.3-85.4,55.6-127.2,96.6l-8.5,18.8c2.6-2.9,5.6-5.9,8.5-8.8
		c41.8-41.5,84.2-74.5,127.2-98.6c2.9-1.5,5.9-3.2,8.8-4.7V57.7L240.2,66.5z"/>
	<path fill="#E77C60" d="M240.2,66.5l8.8-8.8H104.2v181.1l0.3-0.3l8.5-18.8V66.5H240.2z"/>
	<path d="M352.1,328.3l-37.7,6.5c7.7,0.6,11.8,5,12.1,14.1v82.7c0,9.7-4.1,14.7-12.1,14.7h50c-8.2,0-12.4-5-12.4-14.7V328.3z"/>
	<path d="M260,334.7c7.9,0.6,12.1,5,12.4,14.1v82.7c0,9.7-4.1,14.7-12.4,14.7h50c-7.9,0-12.1-5-12.1-14.7V328.3L260,334.7z"/>
	<path d="M231.1,352.1c3.8,0,6.8-0.9,9.7-3.2c2.7-2.4,3.8-5,3.8-8.2c0-2.9-1.2-5.9-3.8-7.9c-2.9-2.1-5.9-3.2-9.7-3.2
		c-3.8,0-7.4,1.2-9.7,3.2c-2.9,2.1-4.1,5-4.1,7.9c0,3.2,1.2,5.9,4.1,8.2C223.7,351.2,227.3,352.1,231.1,352.1z"/>
	<path d="M190.8,345.6c0-9.7,4.1-14.4,12.4-14.7h-50c7.9,0.3,12.1,5,12.1,14.7v26.5h-53.3v-26.5c0-9.7,4.4-14.4,12.4-14.7h-50
		c8.2,0.3,12.4,5,12.4,14.7v86c0,9.7-4.1,14.7-12.4,14.7h50c-7.9,0-12.4-5-12.4-14.7v-49.5h53.3v49.5c0,9.7-4.1,14.7-12.1,14.7h50
		c-8.2,0-12.4-5-12.4-14.7V345.6z"/>
	<path d="M243.8,431.6v-66.2l-37.7,6.8c7.7,0.3,11.8,4.7,12.1,13.5v45.9c0,9.7-4.1,14.7-12.1,14.7h50
		C247.9,446.3,243.8,441.3,243.8,431.6z"/>
	<path d="M372.4,331.5c-2.1,2.1-3.5,4.4-3.5,7.1c-0.3,1.5,0.6,2.9,1.5,4.4c1.5,1.5,2.1,2.7,2.4,2.9c2.4,4.4,1.5,8.8-2.4,13.2
		c-1.2,1.5-1.5,2.1-0.9,2.6c0.6,0.6,0.9,0.9,1.5,0.9c0.6,0,1.2-0.3,2.1-0.9c6.8-4.7,12.1-9.1,15-13c3.5-4.1,5-7.4,4.7-10.6
		c0-2.6-1.2-4.7-3.2-6.8c-2.4-1.8-5.3-2.9-8.8-2.9C377.4,328.6,374.8,329.7,372.4,331.5z"/>
	<path d="M445.1,368.3c-4.1-1.5-9.1-2.1-15-2.9c-5.6-0.3-12.1-0.6-19.1-0.6c-5.9,0-11.8,0.6-18.5,2.4c-6.5,1.8-11.8,4.4-15.6,7.9
		c-3.8,3.2-5.9,7.4-5.9,11.8c0,4.7,2.4,9.1,7.4,12.7c4.7,3.8,13.8,7.7,27.1,11.5c13.2,3.8,21.8,7.4,25,10c2.9,2.7,4.7,6.2,4.4,9.4
		c0,3.5-2.4,6.2-5.9,7.9c-3.8,1.8-8.5,2.6-15,2.9c-6.5-0.3-11.8-0.9-16.8-1.5c-5-0.9-8.5-2.4-11.2-5c-2.9-2.4-6.2-6.8-9.7-13.2
		c-2.4,0-3.8,0.3-4.4,0.6c-0.3,0-0.9,0.6-0.9,1.5c0,1.5,0.9,7.1,2.6,15.9c0.3,1.2,0.3,2.4,0.3,2.9c0.3,1.2,0.6,2.4,1.8,2.9
		c10.9,2.9,22.7,4.4,35.9,4.4c5.6,0,11.8-0.9,18.8-2.6c7.1-1.5,12.1-4.1,15.9-7.9c3.5-3.8,6.2-7.9,7.1-12.1
		c0.9-4.4,0.6-8.2-1.8-12.1c-2.1-3.8-5.9-7.1-10.9-9.7c-5.3-2.9-13.2-6.5-23.8-10.3c-10.9-3.8-17.1-6.8-19.1-8.5
		c-2.4-1.8-3.5-3.8-3.5-6.8c0.3-2.9,1.8-4.7,5-5.9c2.9-1.2,7.1-2.1,12.4-2.7c5.6-0.6,11.2,0.6,16.8,3.2c5.6,2.6,9.7,6.8,13,12.7h2.7
		c0.9,0,2.1,0,3.5,0l-0.6-3.2C446.6,376.8,446,371.8,445.1,368.3z"/>
	<g>
		<path d="M423.8,343.1v-9.6h5.9c1.3,0,2.2,0.2,2.8,0.6c0.6,0.4,0.9,1.1,0.9,2c0,0.6-0.1,1.1-0.4,1.5c-0.3,0.4-0.7,0.7-1.2,0.9
			c0.4,0.2,0.7,0.4,0.9,0.7c0.2,0.3,0.3,0.7,0.3,1.4c0,0.1,0,0.2,0,0.3c0.1,1.2,0.2,2,0.5,2.3h-2.7c-0.1-0.1-0.1-0.2-0.1-0.3
			c0-0.1,0-0.3,0-0.4v-0.7c0-0.9-0.1-1.5-0.3-1.7c-0.2-0.3-0.7-0.4-1.3-0.4H429h-2.7v3.5H423.8z M426.2,337.6h2.7
			c0.7,0,1.2-0.1,1.5-0.3c0.3-0.2,0.4-0.5,0.4-0.9c0-0.4-0.1-0.7-0.4-0.8c-0.3-0.2-0.8-0.2-1.7-0.2h-2.6V337.6z"/>
	</g>
	<path d="M428.7,348.9c-6.7,0-12.1-4.8-12.1-10.6c0-5.9,5.4-10.6,12.1-10.6c6.7,0,12.1,4.8,12.1,10.6
		C440.8,344.2,435.4,348.9,428.7,348.9L428.7,348.9z M428.7,329.5c-5.7,0-10.3,3.9-10.3,8.8c0,4.8,4.6,8.8,10.3,8.8
		s10.3-3.9,10.3-8.8C439,333.4,434.4,329.5,428.7,329.5L428.7,329.5z"/>
</g>
</svg>
