<?xml version="1.0" encoding="utf-8"?>
<!-- Generator: Adobe Illustrator 18.0.0, SVG Export Plug-In . SVG Version: 6.00 Build 0)  -->
<!DOCTYPE svg PUBLIC "-//W3C//DTD SVG 1.1//EN" "http://www.w3.org/Graphics/SVG/1.1/DTD/svg11.dtd">
<svg version="1.1" id="Layer_1" xmlns="http://www.w3.org/2000/svg" xmlns:xlink="http://www.w3.org/1999/xlink" x="0px" y="0px"
	 width="234.5px" height="76.5px" viewBox="0 0 234.5 76.5" enable-background="new 0 0 234.5 76.5" xml:space="preserve">
<g>
	<path fill="#FFFFFF" d="M3.6,76.5c-0.9,0-1.7-0.6-2-1.5C1.4,73.9,2,72.7,3,72.4c23.7-7.2,47.2-0.3,48.2,0c1.1,0.3,1.7,1.5,1.4,2.6
		c-0.3,1.1-1.5,1.7-2.5,1.4c-0.3-0.1-23.5-6.9-45.9,0C4,76.4,3.8,76.5,3.6,76.5z"/>
</g>
<g>
	<g>
		<path d="M23.5,25.8c-0.5,0-1.1,0-1.7,0c-1.8,0-3.6-0.1-5.5-0.2c-1.2-0.1-2-1.1-1.9-2.2c0.1-1.2,1.1-2,2.2-1.9
			c1.8,0.1,3.6,0.2,5.3,0.2c15,0.3,21.5-3.3,21.6-3.4c1-0.6,2.3-0.2,2.8,0.8c0.6,1,0.2,2.3-0.7,2.8C45.3,22.1,38.6,25.8,23.5,25.8z"
			/>
	</g>
	<g>
		<path d="M22.5,25.8c-1,0-1.9-0.7-2-1.7L16.6,3.2l1.5-0.7c0.4-0.2,9-3.8,22.8-2.2l1.9,0.2L42,22c0,1.2-1,2-2.2,2
			c-1.2,0-2.1-1-2-2.2l0.7-17.5C30.1,3.7,24,5.1,21.3,5.9l3.3,17.5c0.2,1.1-0.5,2.2-1.7,2.4C22.8,25.8,22.7,25.8,22.5,25.8z"/>
	</g>
	<g>
		<path d="M12.1,65.1H0l5.5-9.2c0.6-1,1.9-1.3,2.9-0.7C9.3,55.7,9.6,57,9,58l-1.7,2.9h1.8l2.2-6.2l2.2,1.3
			c7.9,4.7,21.3,4.8,29.4-3.4c7.6-7.7,2.8-13.5,2.2-14.1l-0.9-1l0.6-1.3c1.5-3.3,1.7-6,0.7-7.9c-1.6-3-5.7-3.8-5.8-3.8
			c-1.1-0.2-1.9-1.3-1.7-2.4c0.2-1.1,1.3-1.9,2.4-1.7c0.3,0,6.2,1.1,8.8,6c1.5,2.9,1.5,6.4-0.1,10.5c1.8,2.8,5.2,10.2-3.2,18.7
			c-4.4,4.4-10.5,7.2-17.2,7.7c-5.3,0.4-10.6-0.5-15-2.5L12.1,65.1z"/>
	</g>
	<g>
		<path d="M9,54c-1.7,0-2.9-0.1-3.2-0.1l-2.1-0.2l0.2-2.1c1.9-20.3,15.8-28.7,16.4-29.1c1-0.6,2.3-0.3,2.9,0.7
			c0.6,1,0.3,2.3-0.7,2.9c-0.5,0.3-11.7,7.2-14.1,23.7c3.7,0,9.8-0.3,12.7-2.4c3.2-2.2,4.7-5.1,4.4-6.3c-0.1-0.4-0.6-0.6-1.4-0.8
			c-1.1-0.2-1.9-1.3-1.7-2.4c0.2-1.1,1.3-1.9,2.4-1.7c3.5,0.6,4.5,2.8,4.8,4c0.8,3.8-2.6,8.2-6.1,10.6C19.5,53.6,13,54,9,54z"/>
	</g>
	<g>
		<circle cx="41" cy="29.5" r="1.7"/>
		<circle cx="27.3" cy="29.5" r="1.7"/>
		<path d="M39.3,32.2c0,0-2.4-2.2-3.2-2.9c-0.8-0.7-1.4-0.9-2.6,0c-1.3,0.9-5.5,3.9-3.7,4.2c1.9,0.3,3.5,0.8,4.2,1.1
			c0.6,0.3,1.4,0.7,2.4,0.2c1-0.5,2.1-1,2.7-1.1C39.5,33.6,40.6,33.5,39.3,32.2z"/>
		<path d="M38.9,36.2c0,0-1.7,0.7-2.4,1.2c-0.7,0.5-0.6,0.6-1.9,0c-1.4-0.6-4-1.6-4.8-1.6c-0.8,0-2.4-0.5,0,1.4
			c2.4,1.9,4.9,4.4,5.8,3.5C36.5,39.9,42.1,35.1,38.9,36.2z"/>
	</g>
</g>
<g>
	<path d="M73.7,27.2L73.7,27.2l0-0.1c-0.2-0.7-0.4-1.5-0.7-2.3c-0.2-0.5-0.4-0.9-0.6-1.2c-0.2-0.4-0.4-0.7-0.7-1.1l0-0.1l0-0.1
		c-0.2-0.3-0.5-0.6-0.9-1c-0.4-0.4-0.7-0.7-1.1-0.9c-0.3-0.3-0.7-0.5-1.2-0.7c-0.4-0.2-0.8-0.4-1.2-0.5c-0.8-0.3-1.7-0.5-2.5-0.6
		c-0.5-0.1-0.9-0.1-1.3-0.1h-1.6l-0.2,0.2c-0.9,0.3-1.6,1.2-1.6,2.2l0,2.6l0,0.1c0.1,0.8,0.1,1.6,0.1,2.4v0.1l0,0.1
		c0.1,0.8,0.1,1.6,0.1,2.4c0,0.4,0,0.8,0,1.2c0,0.4,0,0.9,0,1.3c0,0.4,0,0.8,0,1.2c0,0.4,0,0.9,0,1.3v2.5c0,0.9,0,1.7,0.1,2.6v2.5
		c0,0.4,0,0.9,0,1.3c0,0.4,0,0.8,0,1.2v0.1l0,0.1c0.1,0.8,0.1,1.6,0.1,2.4v0.1l0,0.1c0,0.5,0,1,0,1.5c0,0.3,0,0.6,0,0.9v2.5l-0.1,5
		v1.3l-0.1,1.2l0,0.1c0,0.4,0,0.8,0,1.3c0,0.4,0,0.8,0,1.3v0.1c0,0.6,0.3,1.3,0.7,1.7c0.5,0.5,1.1,0.7,1.8,0.7c0.1,0,0.1,0,0.2,0
		c0.7,0,1.3-0.3,1.7-0.8c0.5-0.5,0.7-1.2,0.6-1.9c0-0.4,0-0.8-0.1-1.2c0-0.4,0-0.8-0.1-1.3v-1.2l-0.1-1.3l-0.2-7.5
		c0-0.5,0-0.9,0-1.3c0-0.4,0-0.8,0-1.2c0-0.4,0-0.8,0-1.3c0-0.2,0-0.5,0-0.7h0.2c0.7,0,1.5-0.1,2.3-0.2c0.5,0,1-0.1,1.3-0.3
		c0.6-0.1,1.1-0.3,1.4-0.5l0.1,0l0.6-0.4c0.3-0.2,0.5-0.4,0.7-0.6c0.4-0.5,0.8-0.9,1-1.3c0.4-0.8,0.8-1.6,0.9-2.6
		c0.1-0.6,0.2-1.1,0.3-1.6c0-0.2,0.1-0.4,0.1-0.6l0-0.1l0-0.1c0.1-1.5,0.1-2.9,0.1-4.3v-2.2l0-0.2C73.9,28.7,73.8,28,73.7,27.2z
		 M69.3,36.3c-0.1,0.4-0.1,0.8-0.2,1.1l0,0.1l0,0.1c-0.1,0.4-0.3,0.9-0.4,1.2l0,0l0,0c-0.2,0.4-0.3,0.5-0.5,0.5l-0.1,0l-0.1,0.1
		c-0.1,0.1-0.4,0.2-1.1,0.2l-0.1,0l-0.1,0c-0.4,0.1-1.1,0.1-1.6,0.1c0,0-0.1,0-0.1,0v-6.1c0-0.4,0-0.9,0-1.3c0-0.4,0-0.8,0-1.2v-0.1
		l0-0.1c-0.1-0.8-0.1-1.6-0.1-2.4v-0.1l0-0.1c0-0.5,0-1,0-1.6c0-0.3,0-0.5,0-0.8l0-0.1c0.1-0.8,0.1-1.6,0.1-2.4c0-0.1,0-0.2,0-0.3
		c0.3,0,0.7,0.1,1.1,0.2l0.7,0.3c0.1,0.1,0.3,0.2,0.5,0.3l0,0l0,0c0.4,0.3,0.7,0.6,0.9,0.9l0,0l0,0c0.3,0.4,0.5,0.8,0.7,1.3l0,0
		l0.2,0.4c0,0,0,0,0,0.1V27l0.1,0.2c0.1,0.2,0.1,0.5,0.2,0.8c0.1,0.3,0.1,0.7,0.1,1.2c0,0.2,0,0.4,0,0.6v2l0,0.1
		c-0.1,1.3-0.1,2.6-0.2,3.8C69.4,35.9,69.3,36.1,69.3,36.3z"/>
	<path d="M81.7,23.6c0.4,0,0.8,0,1.1,0c0.4,0,0.7,0,1.1,0h0l1.1-0.1h1.1l1.1-0.1h1.3l0.1,0c0.7-0.1,1.4-0.4,1.8-1
		c0.4-0.5,0.5-1.2,0.4-1.8c-0.2-1.2-1.2-2.2-2.5-2.2c-0.1,0-0.2,0-0.3,0l-0.2,0c-0.3,0-0.5,0.1-0.7,0.1H87l-1.2,0.2l-2.2,0.2l-0.1,0
		c-0.6,0.1-1.4,0.1-2.1,0.2l-2.1,0.2h-0.1l-0.1,0c-1.1,0.2-1.9,1.1-1.9,2.1v1.2c0,0.2,0,0.4,0,0.6c0,0.2,0,0.4,0,0.6
		c-0.1,0.5-0.1,0.9-0.1,1.3c0,0.2,0,0.3,0,0.5c0,0.2,0,0.5,0,0.7L77,28.9l0,5.1l0,0.1c0.1,0.8,0.1,1.5,0.1,2.4
		c0,0.8-0.1,1.5-0.1,2.4c-0.1,0.8-0.1,1.7-0.1,2.6c0,0.8,0,1.7,0.1,2.6c0,0.4,0,0.8,0,1.2c0,0.4,0,0.8,0,1.2v0.1l0,0.1
		c0.1,0.8,0.1,1.5,0.1,2.4v5l-0.1,2.4l-0.1,5.3c0,1.2,1,2.2,2.2,2.2l9.5,0.1c1.3,0,2.3-1,2.3-2.3c0-1.3-1-2.3-2.3-2.3l-7.2,0.1v-8
		c0-0.8,0-1.6,0.1-2.4l0-0.1v-0.1c0-0.4,0-0.8,0-1.2c0-0.4,0-0.8,0-1.2l0.2-2.4c0-0.1,0-0.2,0-0.3c0.1,0,0.3,0,0.4-0.1
		c0.2,0,0.4,0,0.5,0c0.2,0,0.4,0,0.5,0c0.4,0,0.9,0,1.3-0.1h1c0.5,0,0.9,0,1.1-0.1c0.6,0,1.2-0.3,1.7-0.8c0.4-0.5,0.6-1.1,0.6-1.7
		c0-1.2-1.1-2.2-2.3-2.2c-0.1,0-0.1,0-0.2,0c-0.2,0-0.5,0-1,0.1c-0.3,0-0.7,0-1.1,0.1c-0.2,0-0.4,0-0.5,0c-0.2,0-0.4,0-0.5,0
		c-0.3,0-0.5,0-0.8,0c-0.2,0-0.3,0-0.5,0h-0.2c0-0.1,0-0.2,0-0.3c-0.1-0.8-0.1-1.5-0.1-2.3c0-0.8,0.1-1.5,0.1-2.4l0-0.1v-0.1
		c0-0.4,0-0.8,0-1.2c0-0.4,0-0.8,0-1.3v-6.2c0-0.4,0-0.9-0.1-1.3L81.7,23.6L81.7,23.6z"/>
	<path d="M109.1,20c-0.3-1.1-1.3-2-2.5-2c-0.1,0-0.3,0-0.4,0c-0.1,0-0.3,0-0.5,0.1c-0.1,0-0.2,0-0.3,0c0,0,0,0,0,0h-0.1l-0.2,0
		c0,0-0.1,0-0.3,0h-0.1l-0.1,0c-0.1,0-0.2,0-0.3,0c-0.1,0-0.2,0-0.4,0H103l-0.1,0c-0.1,0-0.4,0-0.6,0c-0.3,0-0.7,0-1.1,0.1h-1.9
		l-0.1,0c-0.2,0-0.4,0-0.6,0h-2.5l-0.1,0c-0.7,0.1-1.4,0.4-1.8,1c-0.4,0.5-0.6,1.2-0.6,1.8c0.1,1.3,1.2,2.3,2.5,2.3
		c0.1,0,0.1,0,0.2,0c0.1,0,0.3,0,0.5-0.1c0.3,0,0.6-0.1,1-0.1l0.1,0c0.2,0,0.5,0,0.8-0.1c0.1,0,0.1,0,0.2,0c0,0.2,0,0.4,0,0.6
		c0,0.3,0,0.6,0.1,1c0,0.4,0,0.8,0.1,1.3v1.2c0,0.3,0,0.6,0,0.8c0,0.2,0,0.5,0,0.6v0.7c-0.1,0.3-0.1,0.6-0.1,0.8
		C99,31,99,31.6,99,32.2c0,0.3,0,0.5,0,0.8c0,0.3,0,0.6,0,1v0.9c0,0.3,0,0.6,0.1,1.1c0,0.3,0,0.6,0,0.8c0,0.3,0,0.6,0,0.9
		c0,0.6,0,1.2-0.1,1.7c-0.1,0.6-0.1,1.3-0.1,2c0,0.7,0.1,1.2,0.1,1.9l0,0.1c0,0.6,0.1,1.2,0.1,1.8l0,0.2c0.1,0.5,0.1,1.1,0.1,1.7
		v1.8c-0.1,1.2-0.1,2.3-0.1,3.4c-0.1,1.1-0.1,2.1-0.1,3.1L99,61.4c0,1.3,1.1,2.3,2.3,2.3h0.1l0.1,0c1.2-0.2,2.2-1.2,2.2-2.3l0,0
		c0,0-0.1-2.6-0.1-6.2v-3.1l0,0c-0.1-1.1-0.1-2.2-0.1-3.3v-1.8c0-0.6,0-1.2,0-1.7l0-0.1v-0.1c0-0.5,0-1,0.1-1.6l0-0.2
		c0-0.4,0-0.7,0.1-1c0-0.3,0-0.6,0.1-0.9l0-0.1v-0.1c0-0.5-0.1-1.1-0.1-1.5c0-0.2,0-0.3-0.1-0.5c-0.1-0.6-0.1-1.1-0.1-1.7l0-0.1
		c0.1-0.6,0.1-1.2,0.1-1.8v-3.6c0-0.5,0-1.1-0.1-1.7c0-0.2,0-0.3,0-0.5c0-0.1,0-0.1,0-0.2v-2.3c0-0.2,0-0.4,0-0.6c0-0.2,0-0.5,0-0.8
		c0-0.2,0-0.3,0-0.5c0-0.2,0-0.5,0-0.7c0-0.7,0.1-1.3,0.1-1.8l0-0.1c0.2,0,0.3,0,0.5,0c0,0,1.4,0,1.4,0l0.2,0.1h1.2l0.2,0
		C108.5,22.8,109.4,21.4,109.1,20L109.1,20z"/>
	<path d="M116.8,23.6c0.4,0,0.8,0,1.1,0c0.4,0,0.7,0,1.1,0h0l1.1-0.1h1.1l1.1-0.1h1.3l0.1,0c0.7-0.1,1.4-0.4,1.8-1
		c0.4-0.5,0.5-1.2,0.4-1.8c-0.2-1.2-1.2-2.2-2.5-2.2c-0.1,0-0.2,0-0.3,0l-0.2,0c-0.3,0-0.5,0.1-0.7,0.1h-0.1l-1.2,0.2l-2.2,0.2
		l-0.1,0c-0.6,0.1-1.4,0.1-2.1,0.2l-2.1,0.2h-0.1l-0.1,0c-1.1,0.2-1.9,1.1-1.9,2.1v1.2c0,0.2,0,0.4,0,0.6c0,0.2,0,0.4,0,0.6
		c-0.1,0.5-0.1,0.9-0.1,1.3c0,0.2,0,0.3,0,0.5c0,0.2,0,0.5,0,0.7l-0.1,2.4l0,5.1l0,0.1c0.1,0.8,0.1,1.5,0.1,2.4
		c0,0.8-0.1,1.5-0.1,2.4c-0.1,0.8-0.1,1.7-0.1,2.6c0,0.8,0,1.7,0.1,2.6c0,0.4,0,0.8,0,1.2c0,0.4,0,0.8,0,1.2v0.1l0,0.1
		c0.1,0.8,0.1,1.5,0.1,2.4v5l-0.1,2.4l-0.1,5.3c0,1.2,1,2.2,2.2,2.2l9.5,0.1c1.3,0,2.3-1,2.3-2.3c0-1.3-1-2.3-2.3-2.3l-7.2,0.1v-8
		c0-0.8,0-1.6,0.1-2.4l0-0.1v-0.1c0-0.4,0-0.8,0-1.2c0-0.4,0-0.8,0-1.2l0.2-2.4c0-0.1,0-0.2,0-0.3c0.1,0,0.3,0,0.4-0.1
		c0.2,0,0.4,0,0.5,0c0.2,0,0.4,0,0.5,0c0.4,0,0.9,0,1.3-0.1h1c0.5,0,0.9,0,1.1-0.1c0.6,0,1.2-0.3,1.7-0.8c0.4-0.5,0.6-1.1,0.6-1.7
		c0-1.2-1.1-2.2-2.3-2.2c-0.1,0-0.1,0-0.2,0c-0.2,0-0.5,0-1,0.1c-0.3,0-0.7,0-1.1,0.1c-0.2,0-0.4,0-0.5,0c-0.2,0-0.4,0-0.5,0
		c-0.3,0-0.5,0-0.8,0c-0.2,0-0.3,0-0.5,0h-0.2c0-0.1,0-0.2,0-0.3c-0.1-0.8-0.1-1.5-0.1-2.3c0-0.8,0.1-1.5,0.1-2.4l0-0.1v-0.1
		c0-0.4,0-0.8,0-1.2c0-0.4,0-0.8,0-1.3v-6.2c0-0.4,0-0.9-0.1-1.3L116.8,23.6L116.8,23.6z"/>
	<path d="M143.4,61.2c0-0.2,0-0.3,0-0.5c0-0.1,0-0.2,0-0.2v-0.1l-0.2-1.2l0-0.1c-0.1-0.4-0.2-0.8-0.3-1.2l-0.4-1.6l0-0.1
		c-0.1-0.2-0.2-0.5-0.2-0.8c-0.1-0.3-0.1-0.6-0.2-0.8l-1.1-3.7l0-0.1c0-0.1-0.1-0.2-0.1-0.3c0-0.2-0.1-0.3-0.2-0.5
		c-0.1-0.4-0.2-0.7-0.3-1c-0.2-0.6-0.3-1.2-0.5-1.8l-0.5-1.7l0-0.1c0-0.2-0.1-0.5-0.2-0.8l-0.1-0.6c0-0.2-0.1-0.3-0.1-0.5
		c0-0.2-0.1-0.4-0.1-0.6c0.1,0,0.2-0.1,0.3-0.2c0.5-0.3,0.9-0.6,1.3-0.9c0.5-0.4,0.8-0.8,1.1-1.2c0.6-0.8,1-1.7,1.3-2.5l0-0.1
		l0.1-0.3c0.2-0.7,0.3-1.4,0.4-2.2c0.1-0.7,0.2-1.4,0.2-2.2c0.1-0.8,0.1-1.5,0.1-2.3v-2.2l0-0.2c-0.1-0.7-0.1-1.4-0.2-2.1l0-0.1
		l0-0.1c0-0.1,0-0.1,0-0.1v-0.2l-0.2-0.7c-0.1-0.3-0.2-0.6-0.3-0.9c0-0.1-0.1-0.2-0.1-0.3l0-0.1l0-0.1c-0.4-0.9-0.9-1.8-1.5-2.4
		c-0.7-0.8-1.6-1.4-2.1-1.7l-0.1,0l-0.1,0c-0.4-0.2-0.8-0.4-1.3-0.6c-0.4-0.1-0.8-0.3-1.3-0.3c-0.7-0.2-1.6-0.3-2.5-0.3
		c-0.4,0-0.8,0-1.3,0.1c-0.2,0-0.3,0-0.4,0c0,0,0,0-0.1,0c-0.2,0-0.3,0-0.4,0.1l-0.6,0l-0.2,0.2c-0.9,0.3-1.5,1.2-1.5,2.2v0.1
		c0,0.4,0,0.8,0,1.2c0,0.4,0,0.9,0,1.4c0,0.8,0,1.7,0.1,2.6c0.1,0.8,0.1,1.6,0.1,2.4v2.5c0,0.4,0,0.8,0,1.2c0,0.4,0,0.8,0,1.3
		c-0.1,0.9-0.1,1.8-0.1,2.6v2.5l0.1,2.5c0,0.9,0,1.7,0.1,2.6c0,0.4,0,0.8,0,1.2c0,0.4,0,0.8,0,1.3c0,0.8,0,1.6-0.1,2.4l0,0.1v2.6
		l-0.1,5.1c0,0.4,0,0.8,0,1.3c0,0.4,0,0.8,0,1.2c0,0.4,0,0.8-0.1,1.3c0,0.4,0,0.8-0.1,1.2l0,0.1v0.2c0,0.6,0.3,1.3,0.8,1.8
		c0.5,0.5,1.1,0.7,1.7,0.7c0.1,0,0.1,0,0.2,0c1.4,0,2.4-1.2,2.4-2.6v-0.1l0-0.1c-0.1-0.8-0.1-1.6-0.1-2.4v-0.1l0-0.1
		c-0.1-0.8-0.1-1.6-0.1-2.4l-0.2-7.6v-2.5c0-0.4,0-0.8,0-1.3c0-0.4,0-0.8,0-1.2c0-0.1,0-0.2,0-0.3c0,0,0.3,0,0.4,0
		c0,0.1,0,0.1,0.1,0.2l0,0.1c0,0.1,0.1,0.2,0.1,0.4c0.1,0.3,0.2,0.6,0.3,0.9l0.2,0.6l0.2,0.9l0,0.1c0.1,0.4,0.3,1,0.4,1.5l0,0.1
		l0,0.1c0.1,0.3,0.2,0.6,0.2,0.9c0.1,0.3,0.1,0.6,0.2,0.9l0.2,1l0,0.1c0.1,0.3,0.1,0.5,0.2,0.8l0,0.1l0.9,3.8c0.1,0.4,0.2,0.7,0.2,1
		c0.1,0.2,0.1,0.4,0.2,0.7c0.1,0.4,0.2,0.7,0.3,1c0.1,0.2,0.1,0.4,0.2,0.6c0.1,0.5,0.2,1,0.4,1.4l0.3,1c0.1,0.2,0.1,0.3,0.2,0.5
		l0,0.1l0,0.1c0.1,0.2,0.1,0.4,0.2,0.5c0.4,0.8,1.1,1.2,2,1.2c0.1,0,0.2,0,0.2,0c0.6,0,1.2-0.3,1.6-0.8c0.4-0.5,0.6-1,0.5-1.6V61.2z
		 M133.7,33.6c-0.1-0.8-0.1-1.6-0.1-2.4v-0.1l0-0.1c-0.1-0.7-0.1-1.6-0.1-2.4l0.2-2.5v-0.1c0-0.3,0-0.6,0-0.8c0-0.6,0-1.1,0-1.7V23
		c0.2,0,0.4,0,0.6,0c0.3,0,0.6,0,0.9,0.1c0.3,0.1,0.5,0.1,0.8,0.2l0.1,0l0.1,0c0.1,0,0.3,0.1,0.4,0.2l0,0c0.4,0.2,0.8,0.5,1.1,0.8
		l0,0l0,0c0.3,0.3,0.5,0.7,0.7,1.2c0.2,0.5,0.3,1,0.4,1.6c0.1,0.6,0.2,1.1,0.2,1.7V30c0,0.1,0,0.3,0,0.4c0,0.2,0,0.4,0,0.6
		c-0.1,1.4-0.1,2.7-0.3,4c-0.1,0.5-0.3,1.2-0.4,1.7l0,0c-0.1,0.4-0.3,0.9-0.6,1.2c-0.1,0.1-0.2,0.3-0.3,0.3
		c-0.2,0.1-0.3,0.2-0.4,0.3l-0.1,0l-0.1,0c-0.3,0.2-0.8,0.3-1.3,0.3c-0.6,0.1-1.2,0.1-1.8,0.1l-0.1,0L133.7,33.6L133.7,33.6z"/>
	<path d="M161.2,49.4c-0.1-0.8-0.2-1.7-0.4-2.4c-0.2-0.8-0.4-1.6-0.7-2.4l0,0c-0.3-0.8-0.8-1.6-1.4-2.3c-0.3-0.4-0.7-0.9-1.2-1.2
		c0.3-0.2,0.6-0.5,0.8-0.8c0.7-0.7,1.2-1.5,1.6-2.3c0.4-0.8,0.7-1.7,0.8-2.6l0.2-1.2V34c0,0,0,0,0-0.1c0-0.1,0-0.3,0-0.5v-0.6
		c0-0.2,0-0.4,0-0.7c0-0.5,0-1,0-1.5c0-0.3,0-0.8-0.1-1.2c0-0.2,0-0.4-0.1-0.6c0-0.2,0-0.4-0.1-0.6c-0.1-0.8-0.3-1.6-0.4-2.3l0-0.1
		l-0.4-1.1c-0.1-0.4-0.3-0.8-0.5-1.3c-0.4-0.9-0.9-1.6-1.5-2.3l0-0.1l-1-0.9l0,0c-0.3-0.2-0.7-0.5-1.2-0.8c-0.5-0.3-1.1-0.5-1.3-0.6
		c-0.3-0.1-0.9-0.3-1.3-0.4l0,0c-0.5-0.1-0.9-0.1-1.4-0.1c-0.4,0-0.9,0-1.4,0.1l-1.2,0.2l-0.7,0.2l-0.1,0H148l-0.7,0.3l0,0
		c-0.7,0.4-1.1,1.1-1.1,1.9v1.3l0.1,1.3l0.2,9.9l0.1,1.3l0.1,1.2l0.1,2.5l0,0.1c0.1,0.8,0.1,1.5,0.1,2.4v7.5l-0.1,2.5
		c-0.1,0.8-0.1,1.7-0.1,2.5c0,0.4,0,0.8-0.1,1.3c0,0.4,0,0.8-0.1,1.2l-0.1,1.3v1.2c0,0.2,0,0.4-0.1,0.6c0,0.2,0,0.4,0,0.5l0,0.1v0.1
		c0,0.4,0,0.7,0,1l0,0.1v0.1c0,0.9,0.6,1.8,1.4,2.1l0.6,0.2h0.1l0.4,0.2h0.2c0,0,0.1,0,0.1,0l0.2,0.1l0.1,0c0.4,0.1,0.8,0.1,1.2,0.1
		c0.3,0,0.7,0.1,1.1,0.1c0.5,0,1,0,1.5-0.1l0.1,0l0.1,0c1-0.2,2-0.5,2.8-0.9c1-0.5,1.8-1.1,2.4-1.8c0.7-0.8,1.2-1.5,1.5-2.3
		c0.4-0.8,0.6-1.6,0.9-2.5l0-0.1l0-0.3c0.1-0.7,0.2-1.3,0.3-2.1l0.1-0.6v-1.7c0-0.8-0.1-1.5-0.1-2.2L161.2,49.4z M151,23.1
		c0.1,0,0.4,0,0.6,0h0.2l0.1,0c0.1,0,0.3,0,0.4,0.1l0.1,0h0.2c0,0,0.1,0,0.2,0.1s0.2,0,0.2,0.1c0.1,0.1,0.3,0.1,0.4,0.2l0.1,0l0.1,0
		c0.2,0.1,0.3,0.2,0.5,0.4c0.1,0.1,0.3,0.3,0.5,0.5c0.3,0.4,0.5,0.8,0.7,1.3l0.3,0.8l0.1,0.5l0.2,0.5c0.1,0.5,0.2,1.1,0.3,1.6
		c0,0.1,0,0.3,0,0.3c0,0,0,0,0,0.1v0.3l0.1,0.1V30l0,0.1c0,0.3,0.1,0.6,0.1,0.7v0.1l0.2,2.1v0.8c0,0.2,0,0.3-0.1,0.5
		c0,0.1,0,0.3,0,0.3l0,0c0,0.3-0.1,0.5-0.1,0.8l-0.3,0.8c-0.2,0.4-0.4,0.8-0.7,1.1c-0.3,0.3-0.6,0.6-1.1,0.9
		c-0.4,0.2-0.8,0.4-1.4,0.5c-0.5,0.1-1,0.2-1.5,0.2v-5.1l-0.1-2.5v-2.5l-0.1-5C150.9,23.6,150.9,23.3,151,23.1L151,23.1z
		 M151.4,59.6v-5.6c0-0.8,0-1.7-0.1-2.6v-2.5l-0.1-2.5v-1.3l-0.1-1.2l0-0.5c0.6,0,1.2,0.1,1.6,0.2l0.1,0l0.1,0
		c0.5,0.1,0.9,0.3,1.3,0.5c0.4,0.2,0.7,0.5,1.1,0.9c0.3,0.3,0.5,0.8,0.7,1.3l0,0.1c0.2,0.5,0.4,1,0.5,1.6l0,0l0,0
		c0.1,0.6,0.2,1.2,0.3,1.9c0.1,0.6,0.1,1.3,0.1,1.9v1l-0.1,0.5v0.5c0,0.6-0.1,1.1-0.3,1.7l0,0l0,0c-0.1,0.5-0.3,1-0.5,1.5
		c-0.2,0.5-0.5,0.9-0.8,1.3c-0.2,0.3-0.6,0.5-1.1,0.8l-0.1,0c-0.3,0.2-0.8,0.3-1.2,0.3l-0.1,0l-0.1,0c-0.3,0-0.5,0.1-0.9,0.1
		C151.7,59.6,151.5,59.6,151.4,59.6z"/>
	<path d="M176.7,18.7c-0.7,0-1.4,0.3-1.8,0.8c-0.4,0.5-0.7,1.2-0.6,1.8v0.9c0,0.3,0,0.6,0,1c0,0.5,0,1,0,1.7v0l0,0
		c0,0.6,0,1.3,0.1,2.1c0,0.7,0,1.4,0.1,2.1l0,0.1c0.1,0.8,0.1,1.6,0.1,2.5v0.1l0,0.1c0.1,0.8,0.1,1.8,0.1,2.8v0l0,0
		c0.1,1,0.1,1.9,0.1,3c0,1,0,2.1-0.1,3.3l0,0v0c0,0.5,0,1-0.1,1.5l0,0.1v1.8c0,0.6,0,1.2,0,1.8c0,0.6,0,1.2,0,1.8
		c-0.1,0.6-0.1,1.3-0.1,1.9c0,0.3,0,0.6-0.1,0.9c0,0.3,0,0.6-0.1,0.9l0,0.1c-0.1,1.2-0.1,2.4-0.3,3.6l-0.2,0.9c0,0.1,0,0.2-0.1,0.3
		c0,0.1-0.1,0.3-0.1,0.4c-0.2,0.4-0.4,0.9-0.6,1.2c-0.1,0.2-0.3,0.3-0.4,0.4l-0.3,0.1h-0.9c0,0-0.1,0-0.1,0l0,0l-0.2-0.1
		c-0.2-0.1-0.4-0.3-0.6-0.6c-0.3-0.5-0.4-0.9-0.5-1.3l0-0.1l0-0.1c0-0.1-0.1-0.2-0.1-0.3c0-0.1-0.1-0.3-0.1-0.4l-0.2-0.8
		c-0.2-1.1-0.4-2.3-0.5-3.5c0-0.2,0-0.4,0-0.6c0-0.1,0-0.3,0-0.4c0-0.2,0-0.4,0-0.6c0-0.1,0-0.3,0-0.4c0-0.3,0-0.6,0-1
		c0-0.3,0-0.6,0-0.9v0c-0.1-2.4-0.1-4.8-0.1-7.1c0-1.1,0-2.2,0.1-3.2c0-1.1,0-2.2,0.1-3.2l0.2-9.6c0.1-2.3,0.1-3.7,0.1-3.7
		c0-1.4-1.1-2.5-2.5-2.5c-1.4,0-2.5,1.1-2.5,2.5c0,0.1,0,1.4,0.1,3.7c0,2.2,0,5.6,0.1,9.6c0,1,0,2,0,3c0,1.1,0,2.3,0,3.4v0
		c0,0.8,0,1.6,0,2.4c0,1.6,0.1,3.2,0.1,4.8l0,0.1c0,0.3,0,0.6,0.1,0.9c0,0.3,0,0.6,0.1,0.9c0,0.7,0.1,1.4,0.1,2l0,0.3
		c0.1,1.2,0.2,2.5,0.4,3.7l0,0.1c0.3,1.4,0.5,2.9,1.3,4.5c0.2,0.4,0.4,0.7,0.7,1.2l0.1,0.1l1.1,1.1l0.1,0.1c0.4,0.3,0.9,0.5,1.4,0.7
		c0.3,0.1,0.5,0.2,0.7,0.2l0,0l0.2,0.1h0.1c0.1,0,0.3,0.1,0.4,0.1h0.2l0.2,0.1h0.2c0.2,0,0.4,0,0.5-0.1l0.7-0.1l0.1,0
		c0.5-0.1,0.9-0.3,1.4-0.6l0,0l0,0c0.6-0.3,1-0.7,1.4-1.1c0.4-0.4,0.7-0.8,0.9-1.3c0.4-0.8,0.7-1.5,0.9-2.3l0-0.1l0-0.1
		c0-0.1,0-0.2,0.1-0.3c0.1-0.2,0.1-0.4,0.2-0.7c0-0.1,0-0.2,0.1-0.3c0.1-0.2,0.1-0.5,0.2-0.7c0.2-1.4,0.4-2.7,0.5-4.1
		c0.1-0.7,0.1-1.4,0.1-2.1c0-0.3,0-0.6,0-0.9c0-0.3,0-0.6,0-0.9c0.1-1.3,0.1-2.5,0.1-3.7v-0.1l0-0.1c-0.1-0.6-0.1-1.1-0.1-1.7V41
		l0-0.2c-0.1-1.1-0.1-2.1-0.1-3.1v-8.5c0.1-1.6,0.1-3.1,0.1-4.2c0-0.5,0-0.9,0-1.3c0-0.5,0-0.9,0.1-1.3l0-0.1v-1.1
		C179.3,19.8,178.2,18.7,176.7,18.7z"/>
	<path d="M196.7,61.2c0-0.2,0-0.3,0-0.5c0-0.1,0-0.2,0-0.2v-0.1l-0.2-1.2l0-0.1c-0.1-0.4-0.2-0.8-0.3-1.2l-0.4-1.6l0-0.1
		c-0.1-0.2-0.2-0.5-0.2-0.8c-0.1-0.3-0.1-0.6-0.2-0.8l-1.1-3.7l0-0.1c0-0.1-0.1-0.2-0.1-0.3c0-0.2-0.1-0.3-0.2-0.5
		c-0.1-0.4-0.2-0.7-0.3-1c-0.2-0.6-0.3-1.2-0.5-1.8l-0.5-1.7l0-0.1c-0.1-0.2-0.1-0.5-0.2-0.8l-0.1-0.6c0-0.2-0.1-0.3-0.1-0.5
		c0-0.2-0.1-0.4-0.1-0.6c0.1,0,0.2-0.1,0.3-0.2c0.5-0.3,0.9-0.6,1.3-0.9c0.5-0.4,0.8-0.8,1.1-1.2c0.6-0.8,1-1.7,1.3-2.5l0-0.1
		l0.1-0.3c0.2-0.7,0.3-1.4,0.4-2.2c0.1-0.7,0.2-1.4,0.2-2.2c0.1-0.8,0.1-1.5,0.1-2.3v-2.2l0-0.2c-0.1-0.7-0.1-1.4-0.2-2.1l0-0.1
		l0-0.1c0-0.1,0-0.1,0-0.1v-0.2l-0.2-0.7c-0.1-0.3-0.2-0.6-0.3-0.9c0-0.1-0.1-0.2-0.1-0.3l0-0.1l0-0.1c-0.4-0.9-0.9-1.8-1.5-2.4
		c-0.7-0.8-1.6-1.4-2.1-1.7l-0.1,0l-0.1,0c-0.4-0.2-0.8-0.4-1.3-0.6c-0.4-0.1-0.8-0.3-1.3-0.3c-0.7-0.2-1.6-0.3-2.5-0.3
		c-0.4,0-0.8,0-1.3,0.1c-0.2,0-0.3,0-0.4,0c0,0,0,0-0.1,0c-0.2,0-0.3,0-0.4,0.1l-0.6,0l-0.2,0.2c-0.9,0.3-1.5,1.2-1.5,2.2v0.1
		c0,0.4,0,0.8,0,1.2c0,0.4,0,0.9,0,1.4c0,0.8,0,1.7,0.1,2.6c0.1,0.8,0.1,1.6,0.1,2.4v2.5c0,0.4,0,0.8,0,1.2c0,0.4,0,0.8,0,1.3
		c-0.1,0.9-0.1,1.8-0.1,2.6v2.5l0.1,2.5c0,0.9,0,1.7,0.1,2.6c0,0.4,0,0.8,0,1.2c0,0.4,0,0.8,0,1.3c0,0.8,0,1.6-0.1,2.4l0,0.1v2.6
		l-0.1,5.1c0,0.4,0,0.8,0,1.3c0,0.4,0,0.8,0,1.2c0,0.4,0,0.8-0.1,1.3c0,0.4,0,0.8-0.1,1.2l0,0.1v0.2c0,0.6,0.3,1.3,0.8,1.8
		c0.5,0.5,1.1,0.7,1.7,0.7c0.1,0,0.1,0,0.2,0c1.4,0,2.4-1.2,2.4-2.6v-0.1l0-0.1c-0.1-0.8-0.1-1.6-0.1-2.4v-0.1l0-0.1
		c-0.1-0.8-0.1-1.6-0.1-2.4l-0.2-7.6v-2.5c0-0.4,0-0.8,0-1.3c0-0.4,0-0.8,0-1.2c0-0.1,0-0.2,0-0.3c0,0,0.3,0,0.4,0
		c0,0.1,0,0.1,0.1,0.2l0,0.1c0,0.1,0.1,0.2,0.1,0.4c0.1,0.3,0.2,0.6,0.3,0.9l0.1,0.6l0.2,0.9l0,0.1c0.1,0.4,0.3,1,0.4,1.5l0,0.1
		l0,0.1c0.1,0.3,0.2,0.6,0.2,0.9c0.1,0.3,0.1,0.6,0.2,0.9l0.2,1l0,0.1c0.1,0.3,0.1,0.5,0.2,0.8l0,0.1l0.9,3.8c0.1,0.4,0.2,0.7,0.3,1
		c0.1,0.2,0.1,0.4,0.2,0.7c0.1,0.4,0.2,0.7,0.3,1c0.1,0.2,0.1,0.4,0.2,0.6c0.1,0.5,0.2,1,0.4,1.4l0.3,1c0.1,0.2,0.1,0.3,0.2,0.5
		l0,0.1l0,0.1c0.1,0.2,0.1,0.4,0.2,0.5c0.4,0.8,1.1,1.2,2,1.2c0.1,0,0.2,0,0.2,0c0.6,0,1.2-0.3,1.6-0.8c0.4-0.5,0.6-1,0.5-1.6V61.2z
		 M187,33.6c-0.1-0.8-0.1-1.6-0.1-2.4v-0.1l0-0.1c-0.1-0.7-0.1-1.6-0.1-2.4l0.2-2.5v-0.1c0-0.3,0-0.6,0-0.8c0-0.6,0-1.1,0-1.7V23
		c0.2,0,0.4,0,0.6,0c0.3,0,0.6,0,0.9,0.1c0.3,0.1,0.5,0.1,0.8,0.2l0.1,0l0.1,0c0.1,0,0.3,0.1,0.4,0.2l0,0c0.4,0.2,0.8,0.5,1.1,0.8
		l0,0l0,0c0.3,0.3,0.5,0.7,0.7,1.2c0.2,0.5,0.3,1,0.4,1.6c0.1,0.6,0.2,1.1,0.2,1.7V30c0,0.1,0,0.3,0,0.4c0,0.2,0,0.4,0,0.6
		c-0.1,1.4-0.1,2.7-0.3,4c-0.1,0.5-0.3,1.2-0.4,1.7l0,0c-0.1,0.4-0.3,0.9-0.6,1.2c-0.1,0.1-0.2,0.3-0.3,0.3
		c-0.2,0.1-0.3,0.2-0.4,0.3l-0.1,0l-0.1,0c-0.3,0.2-0.8,0.3-1.3,0.3c-0.6,0.1-1.2,0.1-1.8,0.1l-0.1,0L187,33.6L187,33.6z"/>
	<path d="M214.9,28.1c0-0.2,0-0.3,0-0.4c0,0,0-0.1,0-0.1v-0.1l-0.3-1.5l0-0.1c-0.1-0.4-0.2-0.9-0.4-1.3c-0.1-0.5-0.3-0.9-0.5-1.3
		c-0.5-1.1-1.1-2-1.9-2.7c-0.5-0.5-1.1-0.9-1.6-1.1c-0.6-0.3-1.2-0.5-1.8-0.5c-0.4-0.1-0.7-0.1-1-0.1c-0.2,0-0.4,0-0.6,0
		c0,0-0.1,0-0.1,0h-0.1l-0.1,0c-0.5,0.1-1,0.1-1.6,0.3l0,0c-0.6,0.2-1.3,0.5-1.8,1c-0.5,0.4-0.9,0.8-1.3,1.4
		c-0.2,0.3-0.3,0.5-0.4,0.7c0,0,0,0.1,0,0.1c-0.1,0.2-0.2,0.3-0.2,0.4c0,0,0,0.1,0,0.1l-0.1,0.2l-0.1,0.2c0,0.1-0.1,0.2-0.1,0.3
		c-0.1,0.3-0.2,0.6-0.3,1c-0.2,0.9-0.4,1.8-0.5,2.6c-0.1,0.9-0.2,1.7-0.2,2.6c-0.1,0.8-0.1,1.7-0.1,2.5c-0.1,0.9-0.1,1.7-0.1,2.5
		v2.5c0,0.8,0,1.7,0,2.5c0,0.8,0,1.6,0,2.4c0,0.7,0,1.3-0.1,2c0,1-0.1,1.9-0.1,2.9c0.1,1.9,0.2,3.6,0.4,5.1l0.4,2.6
		c0.1,0.4,0.1,0.8,0.2,1.2c0,0.2,0.1,0.5,0.1,0.7c0,0.2,0.1,0.3,0.1,0.4l0,0.1l0,0.1c0.2,0.9,0.5,1.7,0.9,2.6
		c0.2,0.6,0.6,1.1,0.9,1.5c0.3,0.4,0.7,0.9,1.3,1.3c0.5,0.4,1.1,0.6,1.9,0.8c0.7,0.2,1.3,0.2,1.7,0.2h0.2c0.2,0,0.4,0,0.5-0.1
		c0.1,0,0.3-0.1,0.5-0.1c0.3-0.1,0.6-0.2,0.9-0.3c0.7-0.4,1.2-0.8,1.6-1.2l0,0c0.7-0.7,1.2-1.6,1.6-2.7c0.3-0.8,0.6-1.7,0.8-2.7
		c0.4-1.7,0.6-3.4,0.8-5.1l0-0.1c0.1-1.7,0.2-3.3,0.2-5c0.1-1.7,0.1-3.4,0.1-5v-0.2l0-0.1c-0.2-1.1-1.1-2-2.2-2c-0.1,0-0.1,0-0.2,0
		h-0.1l-5.6,0.5l-0.1,0c-1.3,0.2-2.2,1.4-2,2.7c0.2,1.1,1.2,2,2.3,2c0.1,0,0.2,0,0.3,0l3-0.3v2.3c0,1.6-0.1,3.1-0.2,4.8
		c-0.1,1.4-0.3,3-0.6,4.5c-0.2,0.7-0.4,1.4-0.6,2l0,0.1l0,0.1c-0.1,0.5-0.4,0.9-0.8,1.4l0,0l0,0.1c0,0-0.1,0.1-0.1,0.1l-0.2,0.1h0
		l-0.2,0.1c-0.1,0-0.1,0-0.2,0c-0.1,0-0.2,0-0.3,0l-0.1,0l-0.2,0c-0.1,0-0.3-0.1-0.4-0.2c-0.1-0.1-0.2-0.1-0.3-0.3l-0.4-0.7
		c-0.2-0.6-0.4-1.2-0.6-1.9c-0.3-1.6-0.4-3.2-0.5-4.5c-0.1-1.5-0.1-3.1-0.1-4.8l0-0.1c0-0.8-0.1-1.6-0.1-2.4
		c-0.1-0.8-0.1-1.6-0.1-2.4c0-1.7,0.1-3.4,0.1-4.8v-0.1c0-0.4,0-0.8,0-1.2c0-0.4,0-0.8,0-1.3l0.1-2.4l0-0.2c0.1-1.5,0.1-3,0.2-4.5
		c0-0.2,0.1-0.5,0.1-0.7c0.1-0.5,0.1-1,0.2-1.5l0-0.1l0-0.1c0.1-0.6,0.3-1.1,0.5-1.5c0.1-0.2,0.2-0.3,0.3-0.3
		c0.1-0.1,0.3-0.1,0.4-0.2l0.8-0.1h0.4c0,0,0,0,0.1,0c0.1,0,0.2,0,0.3,0c0.3,0.1,0.6,0.2,0.8,0.4c0.3,0.3,0.5,0.7,0.8,1.3
		c0.2,0.6,0.4,1.3,0.5,1.9c0,0.2,0.1,0.6,0.1,0.9v0.1l0.1,0.6v0.7l0,0.1c0.1,1.3,1.2,2.3,2.5,2.3c0.1,0,0.2,0,0.2,0
		c1.3-0.1,2.4-1.2,2.4-2.6v-0.4l-0.1-0.1L214.9,28.1z"/>
	<path d="M234.5,60.9c-0.1-1.2-1.1-2.1-2.3-2.1c-0.1,0-0.1,0-0.2,0c-0.2,0-0.4,0-0.5,0c-0.1,0-0.1,0-0.2,0c-0.2,0-0.4,0-0.5,0
		c-0.1,0-0.1,0-0.2,0c-0.3,0-0.6,0-0.9,0.1h-0.6c-0.3,0-0.6,0-0.9,0c-0.2,0-0.5,0-0.7,0h-1.5l0,0c-0.8,0-1.6,0.1-2.4,0.1l0-0.1
		c0.5-1.1,1.1-2.2,1.5-3.3l1.5-3.4l1.5-3.3l0-0.1c0-0.1,0.1-0.3,0.2-0.4c0.1-0.1,0.1-0.2,0.1-0.3l0,0l0.2-0.5l0.2-0.4l0.7-1.5
		c0.3-0.5,0.5-1,0.8-1.7c0.2-0.4,0.4-0.9,0.6-1.3c0.1-0.1,0.2-0.4,0.2-0.4c0.2-0.6,0.5-1.2,0.7-1.9l0.5-1.7l0.5-1.8
		c0.1-0.3,0.2-0.6,0.3-0.9c0.1-0.2,0.1-0.3,0.1-0.4c0-0.1,0.1-0.2,0.1-0.3l0-0.1l0-0.1c0-0.1,0-0.2,0.1-0.3c0-0.2,0.1-0.3,0.1-0.5
		l0.1-0.3c0-0.1,0.1-0.2,0.1-0.3l0-0.1c0.2-0.7,0.3-1.4,0.5-2l0,0l0.1-0.6v-0.1l0.1-0.1v-1.3c0-0.7,0-1.3-0.1-2
		c-0.1-1.3-0.2-2.6-0.7-4.1l0-0.1c-0.3-0.9-0.7-1.6-1.2-2.2c-0.3-0.4-0.7-0.7-1.1-1c-0.4-0.3-0.7-0.5-1-0.6c-0.1,0-0.2-0.1-0.3-0.1
		l-0.1,0l-0.1,0c-0.4-0.2-0.9-0.3-1.3-0.3c-0.5-0.1-0.9-0.1-1.2-0.1c-0.1,0-0.2,0-0.4,0c-0.2,0-0.4,0-0.6,0c-0.4,0-0.8,0-1.3,0.1
		c-0.9,0.1-1.6,0.4-2.3,0.7c-0.9,0.4-1.5,0.9-2.1,1.4l-0.1,0.1l-0.1,0.1c-0.4,0.5-1,1.1-1.4,1.9c-0.4,0.6-0.7,1.3-0.9,2.1
		c-0.3,0.7-0.4,1.4-0.5,2.1c0,0.2-0.1,0.3-0.1,0.5c0,0.2-0.1,0.3-0.1,0.5l0,0.1v0.4c-0.1,0.3-0.1,0.5-0.1,0.7v0.1l0,0.1
		c0.1,1.4,1.2,2.4,2.5,2.4c0.1,0,0.1,0,0.2,0c1.4,0,2.4-1.2,2.4-2.6v-0.4l-0.1-0.1v-0.2c0.1-0.3,0.1-0.6,0.1-0.9
		c0-0.4,0.1-0.8,0.2-1.2l0-0.2c0.2-0.5,0.3-0.9,0.5-1.2c0.2-0.4,0.4-0.7,0.6-1c0.3-0.3,0.5-0.5,0.7-0.6c0.3-0.2,0.7-0.3,1-0.3l0.1,0
		l0.1,0c0.1,0,0.3,0,0.4,0h0.9c0.4,0,0.7,0.1,1,0.2c0.2,0.1,0.2,0.1,0.3,0.2l0,0.1l0.1,0.1c0.1,0.1,0.2,0.2,0.2,0.3
		c0,0.1,0.1,0.3,0.1,0.4v0l0.1,0.2c0.1,0.4,0.2,0.9,0.3,1.3l0,0.1l0,0.1c0.1,0.3,0.1,0.6,0.1,1c0,0.2,0,0.4,0,0.6c0,0.2,0,0.4,0,0.5
		c0,0.1,0,0.2,0,0.3v1.6l-0.1,0.8v0l-0.1,0.1c0,0,0,0.4,0,0.4l-0.1,0.2v0.2l0,0.1l-0.1,0.6v0c0,0.1,0,0.2,0,0.3l-0.1,0.3l-0.2,0.9
		c-0.2,0.9-0.6,1.9-1.1,3.1l-0.8,1.8l0,0.2c0,0.1-0.1,0.3-0.2,0.4l0,0.1l-0.3,1l-1.2,3.4l0,0.1c-0.3,1-0.8,2.1-1.2,3.2
		c-0.5,1.1-0.9,2.2-1.4,3.3l0,0c-0.1,0.2-0.2,0.4-0.3,0.6c-0.2,0.3-0.3,0.7-0.5,1.1l-0.7,1.5c-0.5,1.1-1,2.1-1.6,3.2l0,0
		c-0.5,1-1,2.1-1.6,3.1l-0.2,0.3v0.3c0,0.1-0.1,0.3-0.1,0.5c0,1.2,1,2.2,2.2,2.2c0.5,0,1,0,1.5,0c0.5,0,1,0,1.6,0h6.2l0.8-0.1h0.7
		c0.3,0,0.6,0,0.9-0.1c0.3,0,0.6,0,0.9-0.1c0.6-0.1,1.1-0.4,1.5-0.8C234.4,62.1,234.5,61.5,234.5,60.9z"/>
</g>
</svg>
