<?xml version="1.0" encoding="utf-8"?>
<!-- Generator: Adobe Illustrator 18.0.0, SVG Export Plug-In . SVG Version: 6.00 Build 0)  -->
<!DOCTYPE svg PUBLIC "-//W3C//DTD SVG 1.1//EN" "http://www.w3.org/Graphics/SVG/1.1/DTD/svg11.dtd">
<svg version="1.1" id="Слой_1" xmlns="http://www.w3.org/2000/svg" xmlns:xlink="http://www.w3.org/1999/xlink" x="0px" y="0px"
	 viewBox="0 0 633.9 74.3" enable-background="new 0 0 633.9 74.3" xml:space="preserve">
<g>
	<g>
		<path d="M213.7,37.7c0-0.1,0-0.2,0-0.2c0-0.1,0-0.2,0-0.2c0-11.3-4-20.9-12.9-28.2c-9.5-7.8-20.5-10.2-32.5-8.3
			c-18.1,2.8-31.4,17.1-31.4,36l0,0c0,0.1,0,0.2,0,0.2c0,0.1,0,0.2,0,0.2c0,6.9,1.5,13.2,4.7,18.8c2.8,5,6.7,9,11.6,12.1
			c5.9,3.9,12.3,5.9,19.1,6.3c0.1,0,0.3,0,0.4,0.1c1.7,0,3.4,0,5.1,0c0.9-0.1,1.9-0.3,2.8-0.4c0.2,0,0.4,0,0.5-0.1c0,0,0.1,0,0.1,0
			c0.1,0,0.3,0,0.4-0.1c0.2,0,0.4-0.1,0.6-0.1C200.3,70.8,213.7,56.6,213.7,37.7C213.7,37.7,213.7,37.7,213.7,37.7z M195.4,50.1
			c-0.8,1.4-1.8,2.7-3,3.9c-0.9,1-1.8,1.9-2.8,2.6c-1.4,1-2.9,1.9-4.7,2.7c-3.9,1.8-8.1,2.4-12.1,2c-1.3-0.2-2.7-0.4-4.1-0.8
			c-0.7-0.2-1.3-0.4-1.9-0.6c-5.8-2.1-10.6-6.6-13.1-12.8c-0.3-0.9-0.6-1.8-0.9-2.7c-0.3-1.2-0.6-2.4-0.7-3.7
			c-0.2-1.7-0.3-3.4-0.3-5c0.4-4.4,1.4-8.3,3.2-11.7c0.8-1.4,1.8-2.7,3-3.9c0.9-1,1.8-1.9,2.8-2.6c1.4-1,2.9-1.9,4.7-2.7
			c3.9-1.8,8.1-2.4,12.1-2c1.3,0.2,2.7,0.4,4.1,0.8c0.7,0.2,1.3,0.4,1.9,0.6c5.8,2.1,10.6,6.6,13.1,12.8c0.3,0.9,0.6,1.8,0.9,2.7
			c0.3,1.2,0.6,2.4,0.7,3.7c0.2,1.7,0.3,3.4,0.3,5C198.3,42.8,197.3,46.8,195.4,50.1z"/>
		<path d="M0,1.2c4.9,0,9.8,0,14.8,0c0,24,0,47.8,0,71.8C9.9,73,4.9,73,0,73C0,49.1,0,25.1,0,1.2z"/>
		<path d="M90.4,36.8c4.9,1.8,8.6,4.8,10.7,9.6c4.6,10.7-1.1,22.2-12.7,25.1c-3.6,0.9-7.3,1.4-11,1.5c-9,0.2-18.1,0.1-27.1,0.1
			c-0.3,0-0.7-0.1-1.1-0.1c0-23.9,0-47.7,0-71.5c0.3-0.1,0.5-0.1,0.7-0.1c9.3,0.1,18.6-0.1,27.9,0.3c6,0.2,11.5,2.3,16,6.6
			c7.1,6.9,7.3,19.1,0.5,25.8C93.1,35,91.7,35.8,90.4,36.8z M63.9,60.9c5.6-0.2,11,0,16.4-0.5c4.7-0.5,6.9-3.3,6.9-8
			c0-4.6-2.2-7.1-6.9-8c-0.7-0.1-1.5-0.3-2.2-0.3c-4.5,0-8.9,0-13.4,0c-0.3,0-0.5,0.1-0.8,0.2C63.9,49.7,63.9,55.1,63.9,60.9z
			 M63.9,31.7c3.2,0,6.4,0,9.6,0c1.2,0,2.4-0.1,3.6-0.3c3.2-0.5,5.8-1.9,6.8-5.2c0.4-1.4,0.5-3,0.5-4.5c-0.1-4-2.3-7.1-6.2-7.6
			c-4.7-0.6-9.4-0.5-14.3-0.8C63.9,19.7,63.9,25.7,63.9,31.7z"/>
		<path d="M248.3,1.4c0.3,0,0.5-0.1,0.7-0.1c9.3,0.1,18.7-0.2,28,0.3c9.7,0.5,18.4,3.8,25.3,11c5.2,5.6,7.8,12.3,8.6,19.8
			c0.7,6.9,0.1,13.7-2.7,20.2c-4.2,9.9-11.9,15.8-22.1,18.5c-3.8,1-7.9,1.6-11.9,1.8c-8.4,0.3-25.6,0.1-25.9,0
			C248.3,49.1,248.3,25.3,248.3,1.4z M263,60.7c4.7-0.2,9.3,0,13.9-0.5c7-0.8,12.7-4.1,16.3-10.4c2.9-5.2,3.4-10.8,2.7-16.6
			c-0.4-3.8-1.7-7.4-4-10.6c-2.7-3.7-6.3-6-10.7-7.4c-6-1.9-12.1-1.2-18.2-1.3C263,29.4,263,44.8,263,60.7z"/>
		<path d="M372.6,36.5c3.3-6.4,6.4-12.5,9.5-18.6c2.6-5.2,5.3-10.3,8-15.5c0.2-0.5,0.8-1.1,1.2-1.1c5.1-0.1,10.2,0,15.6,0
			c-0.9,1.8-1.8,3.3-2.6,4.9c-7.9,14.6-15.7,29.1-23.5,43.7c-0.4,0.7-0.6,1.7-0.6,2.5c-0.1,6.8,0,13.6,0,20.5c-4.9,0-9.8,0-14.8,0
			c0-0.5,0-1,0-1.6c0-6.2,0-12.4,0-18.6c0-1-0.3-2.2-0.8-3.1C356,34,347.5,18.4,339.1,2.8c-0.2-0.4-0.4-0.9-0.7-1.5
			c2.9,0,5.6,0,8.3,0c2.1,0,4.3,0.1,6.4,0c1.1,0,1.6,0.4,2,1.2c5.5,10.8,11,21.5,16.5,32.3C371.9,35.3,372.2,35.8,372.6,36.5z"/>
		<path d="M512.2,0.6c2.9,0.1,5.2,0.6,7.8,1.2c19.4,4.7,23.2,24.1,16.3,36.2c-2.1,3.7-5.1,6.4-8.8,8.4c-0.3,0.2-0.7,0.4-1,0.6
			c0,0,0,0.1-0.1,0.2c8.8,6,11.8,14.9,12.5,25.1c-4.8,0-9.5,0-14.3,0c-0.7-7-2.3-13.6-8.5-18c-4.5-3.2-9.6-3-14.9-2.8
			c0,6.9,0,13.8,0,20.7c-5,0-9.7,0-14.7,0c0-0.5-0.1-1-0.1-1.4c0-22.9,0-45.9,0-68.8c0-0.5,0.1-1,0.1-1.5
			C495.1,0.6,503.6,0.6,512.2,0.6z M501.2,39c4.3,0,8.4,0.3,12.6-0.1c5.4-0.5,9.1-4,10.2-9c0.4-1.8,0.5-3.7,0.4-5.5
			c-0.3-5.6-3.9-10.1-9.3-10.9c-4.5-0.7-9.2-0.5-13.8-0.7C501.2,21.8,501.2,30.4,501.2,39z"/>
		<path d="M633.9,44.4c-0.4,2.4-0.6,4.9-1.2,7.3c-2.8,12.4-11.9,20.3-24.6,21.7c-6.4,0.7-12.7,0.1-18.6-2.7
			c-8.8-4.1-13.5-11.3-15.2-20.6c-0.5-2.7-0.7-5.5-0.7-8.3c-0.1-13.3,0-26.6,0-39.9c0-0.4,0.1-0.9,0.1-1.3c4.9,0,9.7,0,14.6,0
			c0,13.8,0,27.6,0,41.4c0,2.2,0.2,4.5,0.6,6.6c1.5,7.6,7,12.1,14.6,12.3c7.1,0.2,12.8-4.2,14.7-11.4c0.4-1.7,0.7-3.4,0.7-5.1
			c0.1-14.6,0-29.2,0-43.8c5,0,9.9,0,14.9,0C633.9,15.2,633.9,29.8,633.9,44.4z"/>
	</g>
	<path fill="#222220" d="M442.2,45c-5.7,0-8.5-2.7-8.5-8.3c0-5.7,2.9-8.5,8.7-8.5c5.2,0,8,2.9,8.1,8.3C450.4,42.2,447.8,45,442.2,45
		z"/>
</g>
</svg>
