<?xml version="1.0" encoding="utf-8"?>
<!-- Generator: Adobe Illustrator 18.0.0, SVG Export Plug-In . SVG Version: 6.00 Build 0)  -->
<!DOCTYPE svg PUBLIC "-//W3C//DTD SVG 1.1//EN" "http://www.w3.org/Graphics/SVG/1.1/DTD/svg11.dtd">
<svg version="1.1" id="Слой_1" xmlns="http://www.w3.org/2000/svg" xmlns:xlink="http://www.w3.org/1999/xlink" x="0px" y="0px"
	 viewBox="0 0 739.3 152.6" enable-background="new 0 0 739.3 152.6" xml:space="preserve">
<g>
	<g>
		<g>
			<path fill="#E35100" d="M164.2,35.7c13.8,0,24,9.2,24,22.8s-10.2,22.3-24,22.3h-18.7v12.2h-15.2V35.7H164.2z M145.6,66.9h18
				c5.4,0,9.2-2.8,9.2-8.4c0-5.5-3.8-8.9-9.2-8.9h-18V66.9z"/>
			<path fill="#E35100" d="M248.4,35.7v13.8h-37.5v7.6h33.7v13.8h-33.7V79h38.9v14.1h-54.1V35.7H248.4z"/>
			<path fill="#E35100" d="M316,35.7v13.7h-22.3v43.7h-15.3V49.4h-22.3V35.7H316z"/>
			<path fill="#E35100" d="M372.8,54.7c-6.6-4.9-13.6-6.7-22.5-6.7c-9.7,0-11.9,2.2-11.9,4.7c0,2.4,2.5,2.8,5.9,3.2l16.7,1.9
				c12.6,1.6,20.4,6.6,20.4,17.7c0,13.2-13.1,19.1-30.3,19.1c-11.9,0-20.8-2.6-30.3-9.7l7.2-11.8c7.8,5.5,15.7,8.3,24.5,8.3
				c7.9,0,14.1-1.8,14.1-5.6c0-2-0.5-3-4.1-3.3L342.8,70c-12.1-1.5-19.4-6.2-19.4-17.3c0-12.5,12.1-18.4,27-18.4
				c11,0,20.7,2.1,29.9,9.1L372.8,54.7z"/>
			<path fill="#E35100" d="M404.6,35.7v20.9h28.1V35.7H448v57.3h-15.3V70.3h-28.1v22.7h-15.2V35.7H404.6z"/>
			<path fill="#E35100" d="M488.5,94.5c-17.1,0-32.2-12.1-32.2-30.1c0-17.9,15.1-30.1,32.2-30.1c17.1,0,32.2,12.1,32.2,30.1
				C520.7,82.4,505.6,94.5,488.5,94.5z M488.5,81.5c9.4,0,16.9-6.6,16.9-17.1s-7.5-17.1-16.9-17.1c-9.5,0-17,6.6-17,17.1
				S478.9,81.5,488.5,81.5z"/>
			<path fill="#E35100" d="M562.8,35.7c13.8,0,24,9.2,24,22.8s-10.2,22.3-24,22.3h-18.7v12.2h-15.2V35.7H562.8z M544.1,66.9h18
				c5.4,0,9.2-2.8,9.2-8.4c0-5.5-3.8-8.9-9.2-8.9h-18V66.9z"/>
			<path fill="#436DB1" d="M608.3,84.2c0,5.7-4.7,9.8-10.4,9.8c-5.6,0-10.2-4.1-10.2-9.8c0-5.6,4.6-10.2,10.2-10.2
				C603.6,74.1,608.3,78.6,608.3,84.2z"/>
			<path fill="#436DB1" d="M650,35.7c13.8,0,24,9.2,24,22.8c0,8.5-3.9,15-10.4,18.9l8.7,15.7h-16.6l-6.5-12.2h-17.8v12.2h-15.2V35.7
				H650z M631.3,66.9h18c5.4,0,9.2-2.8,9.2-8.4c0-5.5-3.8-8.9-9.2-8.9h-18V66.9z"/>
			<path fill="#436DB1" d="M695.4,35.7v29.3c0,10.2,4.5,16.1,14.3,16.1c9.7,0,14.2-5.9,14.2-16.1V35.7h15.3V65
				c0,19-11.5,29.6-29.6,29.6c-18,0-29.6-10.6-29.6-29.6V35.7H695.4z"/>
		</g>
		<path fill="#E35100" d="M104.7,59.2c0.2,0.4,0.3,0.7,0.3,0.7L99.3,0L64,23.1C78,25,88.3,34.4,95.1,43.2
			c-10-10.7-25.3-16.6-41.6-16.6c-16.3,0-31.6,5.9-41.6,16.6c6.6-8.1,16.7-17,31.1-20.4L7.5,0.1L2.6,58.8c0,0,0.1-0.8,0.8-2.2
			C1.2,61.9,0,67.8,0,74.3c0,29.8,25.1,49.9,53.5,49.9s53.5-20.1,53.5-49.9C107.1,68.8,106.2,63.8,104.7,59.2z"/>
	</g>
	<g>
		<path fill="#3D3D3D" d="M190.6,130.7c1.8,0,3.6,0.4,5.1,1.4v1.9c-1.3-1-3.1-1.5-4.8-1.5c-3.6,0-7.3,2.1-7.3,7
			c0,4.7,3.5,6.9,7.1,6.9c1.9,0,3.8-0.5,5.2-1.4v2c-1.6,0.8-3.5,1.2-5.5,1.2c-4.3,0-8.8-2.7-8.8-8.7
			C181.5,133.4,186.2,130.7,190.6,130.7z"/>
		<path fill="#3D3D3D" d="M213.9,148.3c-2.3,0-4.5-0.5-6.1-1.3v-1.9c1.5,0.8,3.8,1.3,5.9,1.3c2.8,0,5.5-0.7,5.5-3.3
			c0-2.2-2.2-2.9-4-2.9h-3.9v-1.8h3.9c2.1-0.1,3.6-0.9,3.6-2.7c0-2.2-2.3-3.2-5.1-3.2c-2,0-4.1,0.5-5.7,1.3v-1.9
			c1.8-0.8,3.7-1.3,5.9-1.3c4.3,0,6.9,1.8,6.9,4.8c0,2-1.2,3.4-3.2,3.8c1.9,0.5,3.6,1.9,3.6,4.1
			C221.2,146.7,218.2,148.3,213.9,148.3z"/>
		<path fill="#3D3D3D" d="M240.4,146.3c0.5,0,0.9-0.1,1.3-0.2v1.6c-0.6,0.2-1.2,0.4-1.8,0.4c-1.4,0-2.7-0.7-2.9-2.6
			c-1.7,1.8-4.1,2.8-6.9,2.8c-2.9,0-5.9-1.5-5.9-5c0-4.2,3.9-5.5,7.4-5.5c1.8,0,3.7,0.3,5.3,0.7v-1.1c0-2.9-1.9-4.9-5.4-4.9
			c-2.6,0-4.6,0.6-6,1.2v-2c1.3-0.5,3.5-1.1,6.2-1.1c4.5,0,7.1,2.5,7.1,7v7.2C238.9,146,239.6,146.3,240.4,146.3z M230.4,146.6
			c2.5,0,5-1.2,6.5-3.3v-3.1c-1.5-0.4-3.3-0.7-5-0.7c-2.8,0-5.7,0.9-5.7,3.7C226.2,145.5,228.3,146.6,230.4,146.6z"/>
		<path fill="#3D3D3D" d="M252.6,148.3c-5.1,0-8.7-3.7-8.7-9.7c0-5.5,2.2-9.6,5.3-11.5c4.8-2.9,8-1.8,10.4-4.1v2.1
			c-2.4,1.9-5.1,1.1-9.2,3.5c-2.5,1.5-3.8,4.2-4.4,7.2c1.3-2.5,4-4,7-4c4.5,0,8.2,3.3,8.2,8.2C261.1,145.1,257.6,148.3,252.6,148.3z
			 M252.5,146.4c4.1,0,6.6-2.7,6.6-6.3c0-3.7-2.6-6.4-6.5-6.4c-3.5,0-6.3,2.5-6.7,5.9C245.9,143.4,248.5,146.4,252.5,146.4z"/>
		<path fill="#3D3D3D" d="M273.1,130.7c4.6,0,8.9,3.1,8.9,8.8s-4.3,8.8-8.9,8.8c-4.5,0-8.8-3.1-8.8-8.8S268.6,130.7,273.1,130.7z
			 M273.1,132.6c-3.8,0-6.9,2.5-6.9,6.9c0,4.4,3.1,6.9,6.9,6.9c3.7,0,6.8-2.5,6.8-6.9C280,135.1,276.8,132.6,273.1,132.6z"/>
		<path fill="#3D3D3D" d="M289.9,147.9v-15h-6.5v-1.9h15v1.9h-6.5v15H289.9z"/>
		<path fill="#3D3D3D" d="M308.6,130.7c4.6,0,8.9,3.1,8.9,8.8s-4.3,8.8-8.9,8.8c-4.5,0-8.8-3.1-8.8-8.8S304.1,130.7,308.6,130.7z
			 M308.7,132.6c-3.8,0-6.9,2.5-6.9,6.9c0,4.4,3.1,6.9,6.9,6.9c3.7,0,6.8-2.5,6.8-6.9C315.5,135.1,312.4,132.6,308.7,132.6z"/>
		<path fill="#3D3D3D" d="M321.8,147.9v-16.8h2v13.6l11.4-13.6h1.7v16.8h-2v-13.6l-11.4,13.6H321.8z M329.4,128.3
			c-1.6,0-3.2-0.4-4.7-1.4V125c1.6,1.2,3,1.5,4.7,1.5c1.7,0,3.1-0.4,4.7-1.5v1.9C332.6,128,331.1,128.3,329.4,128.3z"/>
		<path fill="#3D3D3D" d="M359.1,130.7c4.6,0,8.9,3.1,8.9,8.8s-4.3,8.8-8.9,8.8c-4.5,0-8.8-3.1-8.8-8.8S354.6,130.7,359.1,130.7z
			 M359.1,132.6c-3.8,0-6.9,2.5-6.9,6.9c0,4.4,3.1,6.9,6.9,6.9c3.7,0,6.8-2.5,6.8-6.9C366,135.1,362.9,132.6,359.1,132.6z"/>
		<path fill="#3D3D3D" d="M381.3,147.9v-16.8h8.9c3.1,0,5.2,1.6,5.2,4.5c0,1.9-1,3.3-2.6,3.8c1.6,0.4,3.1,1.7,3.1,4
			c0,2.9-2,4.6-5.4,4.6H381.3z M383.3,138.5h6.8c2,0,3.3-0.9,3.3-2.8c0-2-1.5-2.9-3.4-2.9h-6.7V138.5z M383.3,146.1h7
			c2.1,0,3.7-0.7,3.7-2.9c0-2.3-1.7-3-3.5-3h-7.1V146.1z"/>
		<path fill="#3D3D3D" d="M415.2,146.3c0.5,0,0.9-0.1,1.3-0.2v1.6c-0.6,0.2-1.2,0.4-1.8,0.4c-1.4,0-2.7-0.7-2.9-2.6
			c-1.7,1.8-4.1,2.8-6.9,2.8c-2.9,0-5.9-1.5-5.9-5c0-4.2,3.9-5.5,7.4-5.5c1.8,0,3.7,0.3,5.3,0.7v-1.1c0-2.9-1.9-4.9-5.4-4.9
			c-2.6,0-4.6,0.6-6,1.2v-2c1.3-0.5,3.5-1.1,6.2-1.1c4.5,0,7.1,2.5,7.1,7v7.2C413.6,146,414.3,146.3,415.2,146.3z M405.2,146.6
			c2.5,0,5-1.2,6.5-3.3v-3.1c-1.5-0.4-3.3-0.7-5-0.7c-2.8,0-5.7,0.9-5.7,3.7C401,145.5,403.1,146.6,405.2,146.6z"/>
		<path fill="#3D3D3D" d="M419.6,147.9v-16.8h2v15h8.5v-15h2v15h8.5v-15h2v16.8H419.6z"/>
		<path fill="#3D3D3D" d="M455.2,130.7c6.4,0,8.6,5.3,7.7,9.7h-14c0.2,4.3,3.8,6.1,7.5,6.1c2,0,4.1-0.5,5.5-1.4v2
			c-1.5,0.8-3.6,1.2-5.8,1.2c-4.9,0-9.3-2.7-9.3-8.8C446.9,133.7,451.2,130.7,455.2,130.7z M455.4,132.5c-3.3,0-6.3,2.1-6.5,6.1
			h12.2C461.4,136.3,460.1,132.5,455.4,132.5z"/>
		<path fill="#3D3D3D" d="M467.2,147.9v-16.8h2.2l6.8,10l6.8-10h2.1v16.8h-1.9V134l-6.3,9.2h-1.5l-6.3-9.2v13.9H467.2z"/>
		<path fill="#3D3D3D" d="M499.6,147.9v-16.8h14.9v16.8h-2v-15h-10.9v15H499.6z"/>
		<path fill="#3D3D3D" d="M520,147.9v-16.8h2v13.6l11.4-13.6h1.7v16.8h-2v-13.6l-11.4,13.6H520z"/>
		<path fill="#3D3D3D" d="M545,147.9v-15h-6.5v-1.9h15v1.9H547v15H545z"/>
		<path fill="#3D3D3D" d="M563.7,130.7c4.6,0,8.9,3.1,8.9,8.8s-4.3,8.8-8.9,8.8c-4.5,0-8.8-3.1-8.8-8.8S559.2,130.7,563.7,130.7z
			 M563.8,132.6c-3.8,0-6.9,2.5-6.9,6.9c0,4.4,3.1,6.9,6.9,6.9c3.7,0,6.8-2.5,6.8-6.9C570.6,135.1,567.5,132.6,563.8,132.6z"/>
		<path fill="#3D3D3D" d="M576.9,147.9v-16.8h2.2l6.8,10l6.8-10h2.1v16.8h-1.9V134l-6.3,9.2h-1.5l-6.3-9.2v13.9H576.9z"/>
		<path fill="#3D3D3D" d="M615.4,152.6v-4.7h-15.1v-16.8h2v15h10.6v-15h2v15h2.5v6.5H615.4z"/>
		<path fill="#3D3D3D" d="M628.1,130.7c6.4,0,8.6,5.3,7.7,9.7h-14c0.2,4.3,3.8,6.1,7.5,6.1c2,0,4.1-0.5,5.5-1.4v2
			c-1.5,0.8-3.6,1.2-5.8,1.2c-4.9,0-9.3-2.7-9.3-8.8C619.8,133.7,624,130.7,628.1,130.7z M628.2,132.5c-3.3,0-6.3,2.1-6.5,6.1H634
			C634.3,136.3,632.9,132.5,628.2,132.5z"/>
	</g>
</g>
</svg>
